<?xml version="1.0" encoding="UTF-8"?>
<svg version="1.1" xmlns="http://www.w3.org/2000/svg" width="224" height="288">
<path d="M0 0 C4.57875 -0.061875 9.1575 -0.12375 13.875 -0.1875 C16.0094458 -0.22846802 16.0094458 -0.22846802 18.18701172 -0.27026367 C26.55868006 -0.32468595 34.33312002 0.04051514 41.5625 4.625 C43.76485323 8.26367055 44.33672464 11.76898171 44 16 C42.5111211 18.77924062 41.21243017 20.78756983 39 23 C39.78375 23.4125 40.5675 23.825 41.375 24.25 C44.17859466 26.1190631 45.03159947 26.83068917 46 30 C46.55582084 34.90975076 45.83295302 38.08885637 43.55859375 42.32421875 C40.11623152 46.02540521 36.01029536 48.19915803 30.99243164 48.45410156 C29.54818518 48.45311791 28.1038199 48.4316625 26.66015625 48.390625 C25.9791687 48.38659668 25.29818115 48.38256836 24.59655762 48.37841797 C22.08492575 48.35769886 19.57368199 48.30185501 17.0625 48.25 C11.431875 48.1675 5.80125 48.085 0 48 C0 32.16 0 16.32 0 0 Z M18 9 C18 12.3 18 15.6 18 19 C23.01535052 18.67039784 23.01535052 18.67039784 27 16 C27.33333333 13.5 27.33333333 13.5 27 11 C25.04366025 8.58878141 25.04366025 8.58878141 21.375 8.875 C19.704375 8.936875 19.704375 8.936875 18 9 Z M18 27 C18 30.96 18 34.92 18 39 C21.37400578 39.41725678 21.37400578 39.41725678 25 39 C27.26051003 36.98257918 27.26051003 36.98257918 28 34 C27.44586908 30.75279778 27.44586908 30.75279778 26 28 C23.47825081 26.5527864 23.47825081 26.5527864 18 27 Z " fill="#00A1D4" transform="translate(169,239)"/>
<path d="M0 0 C23.76 0 47.52 0 72 0 C64.68090991 14.63818017 46.825828 23.65047332 31.86328125 28.72460938 C21.09641056 32.0071919 11.43113574 33 0 33 C0 22.11 0 11.22 0 0 Z " fill="#009ED5" transform="translate(110,175)"/>
<path d="M0 0 C8.8488239 -0.02312589 17.69763747 -0.04091634 26.54648495 -0.05181217 C30.65494285 -0.05704046 34.76338014 -0.06413713 38.87182617 -0.07543945 C42.83346828 -0.08627025 46.79509052 -0.09227724 50.75674629 -0.09487724 C52.27148311 -0.09673114 53.78621879 -0.1003511 55.30094719 -0.10573006 C57.41541813 -0.11294307 59.52980594 -0.11399083 61.64428711 -0.11352539 C62.85007919 -0.115746 64.05587128 -0.11796661 65.29820251 -0.12025452 C68 0 68 0 69 1 C69.08843793 3.44830426 69.11528752 5.86820599 69.09765625 8.31640625 C69.0962413 9.04746078 69.09482635 9.77851532 69.09336853 10.53172302 C69.08775408 12.87535632 69.07519922 15.21889539 69.0625 17.5625 C69.05748686 19.14778508 69.05292363 20.73307166 69.04882812 22.31835938 C69.03777997 26.2122761 69.02050572 30.10612205 69 34 C47.12307189 31.93384568 28.34073798 27.25540075 11 13 C9.84177734 12.05060547 9.84177734 12.05060547 8.66015625 11.08203125 C5.35689557 8.28053168 2.41791682 5.62687523 0 2 C0 1.34 0 0.68 0 0 Z " fill="#009ED5" transform="translate(40,175)"/>
<path d="M0 0 C3.22333025 2.63129 4.69005131 4.07015392 6 8 C6 10.97 6 13.94 6 17 C-0.27 17 -6.54 17 -13 17 C-13 15.02 -13 13.04 -13 11 C-13.66 10.01 -14.32 9.02 -15 8 C-17.54207971 7.66656449 -17.54207971 7.66656449 -20 8 C-21.30661495 9.08108449 -21.30661495 9.08108449 -21.11352539 11.68383789 C-21.10567017 13.43555298 -21.10567017 13.43555298 -21.09765625 15.22265625 C-21.09282227 17.11274414 -21.09282227 17.11274414 -21.08789062 19.04101562 C-21.07953403 20.38151109 -21.07106907 21.72200588 -21.0625 23.0625 C-21.0574866 24.40689942 -21.05292342 25.7513006 -21.04882812 27.09570312 C-21.03699488 30.39717941 -21.02050971 33.69856803 -21 37 C-17.535 36.505 -17.535 36.505 -14 36 C-13.67 33.03 -13.34 30.06 -13 27 C-6.73 27 -0.46 27 6 27 C6 37.5 6 37.5 3 41 C-3.77431836 46.6452653 -11.66134072 47.42591687 -20.22265625 47.2578125 C-26.52728697 46.67257252 -32.88920867 44.8330935 -38 41 C-41.2938715 36.05919275 -40.37187315 30.16342591 -40.37060547 24.37646484 C-40.37497166 22.13952098 -40.41127697 19.90456262 -40.44921875 17.66796875 C-40.45508877 16.23959005 -40.45905693 14.81120202 -40.4609375 13.3828125 C-40.46915527 12.08746582 -40.47737305 10.79211914 -40.48583984 9.45751953 C-39.92214678 5.44595113 -38.8264326 3.84080152 -36 1 C-25.79601 -5.12941912 -10.62696681 -5.18039037 0 0 Z " fill="#00A0D4" transform="translate(155,241)"/>
<path d="M0 0 C2.6875 2.0625 2.6875 2.0625 4 5 C4.3006867 8.73484539 4.18124883 12.23908679 4 16 C-1.94 16 -7.88 16 -14 16 C-14.33 13.36 -14.66 10.72 -15 8 C-18.97754128 7.26665571 -18.97754128 7.26665571 -23 7 C-23.02891949 11.29165262 -23.04677118 15.58328036 -23.0625 19.875 C-23.07087891 21.09832031 -23.07925781 22.32164062 -23.08789062 23.58203125 C-23.09111328 24.74863281 -23.09433594 25.91523438 -23.09765625 27.1171875 C-23.10289307 28.19597168 -23.10812988 29.27475586 -23.11352539 30.38623047 C-23.17883106 32.98232186 -23.17883106 32.98232186 -22 35 C-20.12816413 35.84311576 -20.12816413 35.84311576 -18 36 C-17.01 35.34 -16.02 34.68 -15 34 C-14.67 31.36 -14.34 28.72 -14 26 C-8.06 26 -2.12 26 4 26 C4.60926485 36.11379658 4.60926485 36.11379658 1.9375 40 C-6.87488257 45.99992004 -16.12680425 46.97033146 -26.50390625 45.69140625 C-32.3144309 44.58042607 -37.02035581 42.69849622 -40.63916016 37.765625 C-42.25715815 34.47737934 -42.38734863 32.21654663 -42.3984375 28.5625 C-42.40230469 27.33789062 -42.40617187 26.11328125 -42.41015625 24.8515625 C-42.39855469 23.58054687 -42.38695312 22.30953125 -42.375 21 C-42.38660156 19.72898437 -42.39820313 18.45796875 -42.41015625 17.1484375 C-42.40628906 15.92382812 -42.40242188 14.69921875 -42.3984375 13.4375 C-42.39505371 12.32246094 -42.39166992 11.20742187 -42.38818359 10.05859375 C-41.77990494 5.26581705 -39.98549841 2.78391919 -36.25 -0.1875 C-25.29463465 -6.29722298 -10.97177773 -5.91692299 0 0 Z " fill="#00A0D4" transform="translate(48,242)"/>
<path d="M0 0 C7.3940625 -0.061875 7.3940625 -0.061875 14.9375 -0.125 C16.47398193 -0.14320801 18.01046387 -0.16141602 19.59350586 -0.18017578 C38.61645606 -0.25703619 38.61645606 -0.25703619 45 5 C48.32024488 9.80863052 48.74051042 14.3396601 48 20 C46.69157484 23.71868203 45.72212345 25.46303641 42.5625 27.8125 C38.86161885 29.52754248 35.7392061 30.12670862 31.671875 30.09765625 C30.9509668 30.09515869 30.23005859 30.09266113 29.48730469 30.09008789 C28.58399414 30.08098389 27.68068359 30.07187988 26.75 30.0625 C22.41875 30.0315625 22.41875 30.0315625 18 30 C18 35.94 18 41.88 18 48 C12.06 48 6.12 48 0 48 C0 32.16 0 16.32 0 0 Z M19 10 C19 13.63 19 17.26 19 21 C23.42664564 21.30495485 23.42664564 21.30495485 27.375 19.5 C27.91125 19.005 28.4475 18.51 29 18 C28.67 15.69 28.34 13.38 28 11 C25.03 10.67 22.06 10.34 19 10 Z " fill="#00A0D5" transform="translate(60,239)"/>
<path d="M0 0 C1.22912109 0.37705078 2.45824219 0.75410156 3.72460938 1.14257812 C6.7159894 2.06210739 9.70230861 2.99807418 12.6875 3.9375 C12.6875 9.2175 12.6875 14.4975 12.6875 19.9375 C3.40355352 20.11843292 -5.87921742 20.26511346 -15.1645298 20.35199738 C-19.47640235 20.39370353 -23.78700368 20.45024185 -28.09814453 20.54101562 C-32.26093345 20.62811452 -36.42250211 20.67580855 -40.58613205 20.69651794 C-42.17228788 20.71126989 -43.75837881 20.74008006 -45.34401321 20.78334045 C-57.77524634 21.10892579 -57.77524634 21.10892579 -61.59591675 18.19747925 C-63.14660228 16.1635904 -64.25670856 14.25946265 -65.3125 11.9375 C-65.86679688 11.05320313 -66.42109375 10.16890625 -66.9921875 9.2578125 C-67.38664062 8.53335938 -67.78109375 7.80890625 -68.1875 7.0625 C-68.80238281 5.95261719 -68.80238281 5.95261719 -69.4296875 4.8203125 C-70.3125 2.9375 -70.3125 2.9375 -70.3125 0.9375 C-69.16974609 1.1540625 -69.16974609 1.1540625 -68.00390625 1.375 C-56.86230054 3.3779853 -49.68947075 3.72157607 -39.3125 -1.0625 C-25.67699087 -7.15214485 -13.89880003 -4.3998935 0 0 Z " fill="#009DD5" transform="translate(96.3125,153.0625)"/>
<path d="M0 0 C6.94947677 2.78861487 15.23030876 2.6838053 22.38427734 0.69360352 C25.78237407 -0.21660097 26.7205512 -0.2360299 29.88427734 0.75610352 C28.78597729 2.69693511 27.6804123 4.63365679 26.57177734 6.56860352 C25.95689453 7.64754883 25.34201172 8.72649414 24.70849609 9.83813477 C21.94953596 14.25128942 21.94953596 14.25128942 19.88427734 15.75610352 C17.39090117 16.0364976 15.15039172 16.13559592 12.65893555 16.09667969 C11.92697968 16.09711777 11.1950238 16.09755585 10.44088745 16.0980072 C8.02200629 16.0959175 5.60381864 16.07257866 3.18505859 16.04907227 C1.50783161 16.04347694 -0.16940027 16.03920654 -1.84663391 16.03620911 C-6.2608494 16.0247553 -10.67476871 15.99528363 -15.08886719 15.96209717 C-19.59322096 15.93140776 -24.09762259 15.91770619 -28.60205078 15.90258789 C-37.44009247 15.87041427 -46.27783659 15.81764209 -55.11572266 15.75610352 C-55.11572266 10.47610352 -55.11572266 5.19610352 -55.11572266 -0.24389648 C-52.54791016 -0.33670898 -52.54791016 -0.33670898 -49.92822266 -0.43139648 C-45.02852945 -0.81050522 -41.23808617 -1.84813488 -36.74072266 -3.80639648 C-23.2810729 -9.25092859 -12.59021816 -5.6304766 0 0 Z " fill="#009ED6" transform="translate(165.11572265625,157.243896484375)"/>
<path d="M0 0 C0.99 0 1.98 0 3 0 C2.67 1.32 2.34 2.64 2 4 C6.455 4.99 6.455 4.99 11 6 C11 6.99 11 7.98 11 9 C3.25 8.125 3.25 8.125 1 7 C1 7.99 1 8.98 1 10 C3.31 10.66 5.62 11.32 8 12 C7.67 13.32 7.34 14.64 7 16 C5.35 16.33 3.7 16.66 2 17 C3.32 17.66 4.64 18.32 6 19 C5.01 20.485 5.01 20.485 4 22 C2.68 21.67 1.36 21.34 0 21 C-0.66 22.65 -1.32 24.3 -2 26 C-1.34 26.33 -0.68 26.66 0 27 C0.66 25.68 1.32 24.36 2 23 C2.99 23 3.98 23 5 23 C3.66614356 27.00156932 1.94567217 29.05432783 -1 32 C-1.165 32.66 -1.33 33.32 -1.5 34 C-2.20062351 36.80249404 -3.95699427 38.0208382 -6 40 C-6.33 40.99 -6.66 41.98 -7 43 C-7.66 43 -8.32 43 -9 43 C-9.66 44.32 -10.32 45.64 -11 47 C-12.65 47 -14.3 47 -16 47 C-15.01 47.495 -15.01 47.495 -14 48 C-14.33 49.32 -14.66 50.64 -15 52 C-15.99 51.505 -15.99 51.505 -17 51 C-17.474375 51.969375 -17.94875 52.93875 -18.4375 53.9375 C-20 57 -20 57 -21 58 C-23.33297433 58.04092937 -25.66705225 58.04241723 -28 58 C-27.01 58.99 -26.02 59.98 -25 61 C-26.6875 62.125 -26.6875 62.125 -29 63 C-31.75 62.125 -31.75 62.125 -34 61 C-33.34 62.65 -32.68 64.3 -32 66 C-32.99 66.33 -33.98 66.66 -35 67 C-35.33 67.66 -35.66 68.32 -36 69 C-37.875 68.6875 -37.875 68.6875 -40 68 C-40.66 67.01 -41.32 66.02 -42 65 C-42 67.31 -42 69.62 -42 72 C-43.6875 72.8125 -43.6875 72.8125 -46 73 C-48.75 70.5625 -48.75 70.5625 -51 68 C-50.67 70.64 -50.34 73.28 -50 76 C-54.75 75.125 -54.75 75.125 -57 74 C-56.67 75.32 -56.34 76.64 -56 78 C-60.39251833 80.02055843 -64.15340923 81.40895235 -69 82 C-70.82845741 77.94559445 -72.21775257 74.3972938 -73 70 C-71.44240657 69.46467177 -69.87861955 68.94734622 -68.3125 68.4375 C-67.44238281 68.14746094 -66.57226562 67.85742188 -65.67578125 67.55859375 C-62.00233207 66.79172772 -59.33093226 67.33453387 -56 69 C-56.33 67.68 -56.66 66.36 -57 65 C-54 63 -54 63 -51.4375 63.25 C-49 64 -49 64 -47 66 C-47.0928125 64.576875 -47.0928125 64.576875 -47.1875 63.125 C-47.0946875 61.578125 -47.0946875 61.578125 -47 60 C-44 58 -44 58 -41 58 C-40.67 57.01 -40.34 56.02 -40 55 C-35.87878788 51.88124488 -35.87878788 51.88124488 -32.6875 52.3125 C-32.130625 52.539375 -31.57375 52.76625 -31 53 C-30.938125 52.071875 -30.87625 51.14375 -30.8125 50.1875 C-30 47 -30 47 -27.625 45.3125 C-26.75875 44.879375 -25.8925 44.44625 -25 44 C-24.484375 43.443125 -23.96875 42.88625 -23.4375 42.3125 C-22 41 -22 41 -18 41 C-18.66 39.68 -19.32 38.36 -20 37 C-17.6875 34.5 -17.6875 34.5 -15 32 C-14.01 32 -13.02 32 -12 32 C-12.22429687 31.443125 -12.44859375 30.88625 -12.6796875 30.3125 C-13.13196054 27.04730929 -11.9186634 25.71115942 -10.125 23 C-8.15429831 19.99353416 -6.64272128 17.55968708 -6 14 C-4.02 14 -2.04 14 0 14 C0 13.34 0 12.68 0 12 C-1.32 11.67 -2.64 11.34 -4 11 C-3.52269162 9.5410574 -3.04308958 8.08286504 -2.5625 6.625 C-2.29566406 5.81289062 -2.02882813 5.00078125 -1.75390625 4.1640625 C-1 2 -1 2 0 0 Z M-4 19 C-4.99 20.98 -5.98 22.96 -7 25 C-6.01 24.67 -5.02 24.34 -4 24 C-2.78130071 21.49552484 -2.78130071 21.49552484 -2 19 C-2.66 19 -3.32 19 -4 19 Z M-12 41 C-11.67 41.66 -11.34 42.32 -11 43 C-10.34 42.67 -9.68 42.34 -9 42 C-9.99 41.67 -10.98 41.34 -12 41 Z M-27 49 C-27.33 49.99 -27.66 50.98 -28 52 C-27.01 53.485 -27.01 53.485 -26 55 C-24.68 54.67 -23.36 54.34 -22 54 C-22.33 52.35 -22.66 50.7 -23 49 C-24.32 49 -25.64 49 -27 49 Z M-36 56 C-36.33 56.99 -36.66 57.98 -37 59 C-36.01 58.67 -35.02 58.34 -34 58 C-34 57.34 -34 56.68 -34 56 C-34.66 56 -35.32 56 -36 56 Z M-38 63 C-37 65 -37 65 -37 65 Z M-66 71 C-66.66 71.66 -67.32 72.32 -68 73 C-66.02 72.67 -64.04 72.34 -62 72 C-63.89179203 71.3185177 -63.89179203 71.3185177 -66 71 Z M-62 73 C-62 73.66 -62 74.32 -62 75 C-63.65 75.33 -65.3 75.66 -67 76 C-67 76.66 -67 77.32 -67 78 C-63.535 77.505 -63.535 77.505 -60 77 C-60.66 75.68 -61.32 74.36 -62 73 Z " fill="#009ED5" transform="translate(207,144)"/>
<path d="M0 0 C60.72 0 121.44 0 184 0 C184 1.65 184 3.3 184 5 C123.28 5 62.56 5 0 5 C0 3.35 0 1.7 0 0 Z " fill="#009ED6" transform="translate(19,114)"/>
<path d="M0 0 C0.495 0.99 0.495 0.99 1 2 C0.01 2 -0.98 2 -2 2 C-1.835 2.99 -1.67 3.98 -1.5 5 C-0.91525483 9.02732942 -0.92867976 12.93474623 -1 17 C-2.32 17 -3.64 17 -5 17 C-5.33 12.38 -5.66 7.76 -6 3 C-6.99 3 -7.98 3 -9 3 C-8.690625 4.918125 -8.690625 4.918125 -8.375 6.875 C-8.0234375 9.0546875 -8.0234375 9.0546875 -8 11 C-10 13 -10 13 -13.125 13.125 C-14.07375 13.08375 -15.0225 13.0425 -16 13 C-16.99 10.69 -17.98 8.38 -19 6 C-19.99 6 -20.98 6 -22 6 C-21.7525 7.3921875 -21.7525 7.3921875 -21.5 8.8125 C-21 12 -21 12 -21 15 C-19.0624994 17.18777466 -19.0624994 17.18777466 -17 19 C-19.19921875 19.71484375 -19.19921875 19.71484375 -22 20 C-24.45703125 18.56640625 -24.45703125 18.56640625 -26.8125 16.5625 C-27.60269531 15.90378906 -28.39289063 15.24507812 -29.20703125 14.56640625 C-29.79871094 14.04949219 -30.39039063 13.53257813 -31 13 C-30.67 12.01 -30.34 11.02 -30 10 C-28.68 10.33 -27.36 10.66 -26 11 C-26 10.34 -26 9.68 -26 9 C-30.455 9.495 -30.455 9.495 -35 10 C-34.55527344 10.83144531 -34.11054687 11.66289062 -33.65234375 12.51953125 C-33.08644531 13.60621094 -32.52054688 14.69289063 -31.9375 15.8125 C-31.36902344 16.89144531 -30.80054688 17.97039063 -30.21484375 19.08203125 C-29 22 -29 22 -30 25 C-30.99 25 -31.98 25 -33 25 C-33 24.34 -33 23.68 -33 23 C-34.27875 23.20625 -35.5575 23.4125 -36.875 23.625 C-39.0546875 23.9765625 -39.0546875 23.9765625 -41 24 C-43 22 -43 22 -43.25 19 C-43 16 -43 16 -41 14 C-42.98 14.99 -44.96 15.98 -47 17 C-46.34215037 20.29680965 -45.10579427 22.84117922 -43.4375 25.75 C-42.98246094 26.54921875 -42.52742188 27.3484375 -42.05859375 28.171875 C-41.70925781 28.77515625 -41.35992187 29.3784375 -41 30 C-42.98 30.99 -42.98 30.99 -45 32 C-47.31 28.37 -49.62 24.74 -52 21 C-52.99 21.66 -53.98 22.32 -55 23 C-52.36 25.97 -49.72 28.94 -47 32 C-47.33 32.99 -47.66 33.98 -48 35 C-49.134375 35.144375 -50.26875 35.28875 -51.4375 35.4375 C-54.80777201 35.61171478 -54.80777201 35.61171478 -56 37 C-58.33944736 36.71269945 -60.6739143 36.38063221 -63 36 C-63 35.01 -63 34.02 -63 33 C-62.34 33 -61.68 33 -61 33 C-61.33 32.34 -61.66 31.68 -62 31 C-63.65 31.33 -65.3 31.66 -67 32 C-67.34613723 35.06049937 -67.34613723 35.06049937 -65.25 36.82421875 C-64.5075 37.43910156 -63.765 38.05398437 -63 38.6875 C-62.2575 39.31011719 -61.515 39.93273438 -60.75 40.57421875 C-60.1725 41.04472656 -59.595 41.51523437 -59 42 C-59.33 43.32 -59.66 44.64 -60 46 C-61.65 45.34 -63.3 44.68 -65 44 C-65.391875 44.515625 -65.78375 45.03125 -66.1875 45.5625 C-68 47 -68 47 -70.5625 46.8125 C-73 46 -73 46 -75 44 C-77.57061311 43.35232207 -77.57061311 43.35232207 -80 43 C-75.52418628 32.86564459 -64.02880748 22.48841733 -54 18 C-54.515625 17.608125 -55.03125 17.21625 -55.5625 16.8125 C-56.036875 16.214375 -56.51125 15.61625 -57 15 C-56.6875 12.3125 -56.6875 12.3125 -56 10 C-54.35 9.67 -52.7 9.34 -51 9 C-51 9.66 -51 10.32 -51 11 C-51.66 11 -52.32 11 -53 11 C-52.67 11.99 -52.34 12.98 -52 14 C-47.71102671 13.47861975 -44.83423448 12.5358368 -41.1875 10.25 C-29.35107907 3.53246779 -13.61600994 -0.605156 0 0 Z M-15 4 C-14.34 6.31 -13.68 8.62 -13 11 C-12.67 11 -12.34 11 -12 11 C-12.33 8.69 -12.66 6.38 -13 4 C-13.66 4 -14.32 4 -15 4 Z M-40 17 C-39.67 18.32 -39.34 19.64 -39 21 C-38.01 21 -37.02 21 -36 21 C-36 19.68 -36 18.36 -36 17 C-37.32 17 -38.64 17 -40 17 Z M-60 25 C-60.33 25.66 -60.66 26.32 -61 27 C-60.34 27 -59.68 27 -59 27 C-59 29.31 -59 31.62 -59 34 C-57.68 33.67 -56.36 33.34 -55 33 C-55.35049575 29.75791433 -55.56221181 28.38472296 -58.0625 26.1875 C-58.701875 25.795625 -59.34125 25.40375 -60 25 Z M-73 37 C-73 38.32 -73 39.64 -73 41 C-72.34 41.66 -71.68 42.32 -71 43 C-69.68 43 -68.36 43 -67 43 C-67 42.01 -67 41.02 -67 40 C-69.61851243 37.57286241 -69.61851243 37.57286241 -73 37 Z " fill="#009ED6" transform="translate(103,7)"/>
<path d="M0 0 C9 10.66666667 9 10.66666667 9 15 C10.093125 14.773125 11.18625 14.54625 12.3125 14.3125 C16 14 16 14 17.875 14.9375 C20.54895189 19.83974513 20.27514942 24.3371958 18.8125 29.5 C17.5640667 34.90171793 18.8984881 38.87452411 20.46704102 44.09570312 C23.19924005 54.12426124 22.33532732 64.7028717 22 75 C21.34 75 20.68 75 20 75 C20 73.68 20 72.36 20 71 C18.02 71.495 18.02 71.495 16 72 C15.67 69.69 15.34 67.38 15 65 C14.01 65 13.02 65 12 65 C12.66 66.98 13.32 68.96 14 71 C10.34543185 71.75241109 6.68266103 72.40049704 3 73 C2.94583812 71.39620659 2.90713362 69.79188594 2.875 68.1875 C2.85179687 67.29417969 2.82859375 66.40085937 2.8046875 65.48046875 C3 63 3 63 5 60 C5.66 60 6.32 60 7 60 C7.33 58.35 7.66 56.7 8 55 C9.65 55 11.3 55 13 55 C13.33 56.65 13.66 58.3 14 60 C14.99 60 15.98 60 17 60 C18.35439668 62.70879335 18.06501451 65.00933268 18 68 C18.66 68 19.32 68 20 68 C19.85975781 65.52039864 19.7130815 63.04147598 19.5625 60.5625 C19.52318359 59.85544922 19.48386719 59.14839844 19.44335938 58.41992188 C19.52375562 54.91309581 19.52375562 54.91309581 18 52 C15.80489397 52.25361783 13.61771261 52.57765908 11.4375 52.9375 C10.23996094 53.13214844 9.04242188 53.32679687 7.80859375 53.52734375 C6.41833984 53.76130859 6.41833984 53.76130859 5 54 C4.67 52.68 4.34 51.36 4 50 C4.99 50 5.98 50 7 50 C6.95875 48.88625 6.9175 47.7725 6.875 46.625 C7 43 7 43 9 41 C11.4375 40.5625 11.4375 40.5625 14 41 C15.8125 43.5 15.8125 43.5 17 46 C16.505 41.05 16.505 41.05 16 36 C15.25234375 36.28875 14.5046875 36.5775 13.734375 36.875 C12.74953125 37.24625 11.7646875 37.6175 10.75 38 C9.77546875 38.37125 8.8009375 38.7425 7.796875 39.125 C5 40 5 40 1 40 C1 38.68 1 37.36 1 36 C3.97 35.34 6.94 34.68 10 34 C9.34 32.68 8.68 31.36 8 30 C6.68 30 5.36 30 4 30 C3.01 32.475 3.01 32.475 2 35 C1.01 34.67 0.02 34.34 -1 34 C-0.65657251 30.90915263 0.25955655 29.67555431 2.25 27.1875 C5 25 5 25 7.6875 24.9375 C10 26 10 26 11.3125 27.875 C12 30 12 30 12 33 C12.66 33 13.32 33 14 33 C12.68 29.37 11.36 25.74 10 22 C6.22057032 22 4.25385726 23.38074064 1.03515625 25.22265625 C-1.4070311 26.15546869 -2.57726137 25.86177951 -5 25 C-5 24.01 -5 23.02 -5 22 C-1.04 20.02 2.92 18.04 7 16 C6.34 15.34 5.68 14.68 5 14 C1.37 16.31 -2.26 18.62 -6 21 C-6.66 19.68 -7.32 18.36 -8 17 C-7.34 16.34 -6.68 15.68 -6 15 C-7.98 14.34 -9.96 13.68 -12 13 C-12 11.68 -12 10.36 -12 9 C-10.68 9.33 -9.36 9.66 -8 10 C-7.38125 9.195625 -6.7625 8.39125 -6.125 7.5625 C-4 5 -4 5 -2 4 C-0.86649466 1.98330173 -0.86649466 1.98330173 0 0 Z M1 7 C-0.98 7.99 -0.98 7.99 -3 9 C-3 9.99 -3 10.98 -3 12 C0.93075644 11.42547254 0.93075644 11.42547254 4 9 C3.01 8.34 2.02 7.68 1 7 Z M14 17 C13.01 17.495 13.01 17.495 12 18 C12.99 20.97 13.98 23.94 15 27 C17.05825864 22.88348273 17.34008135 22.13191749 16 18 C15.34 17.67 14.68 17.34 14 17 Z M9 46 C10 48 10 48 10 48 Z M13 46 C14 48 14 48 14 48 Z M10 58 C9.67 58.99 9.34 59.98 9 61 C9.66 61 10.32 61 11 61 C10.67 60.01 10.34 59.02 10 58 Z M6 64 C6.66 65.32 7.32 66.64 8 68 C8 66.68 8 65.36 8 64 C7.34 64 6.68 64 6 64 Z " fill="#009ED6" transform="translate(202,51)"/>
<path d="M0 0 C58.74 0 117.48 0 178 0 C178.33 1.32 178.66 2.64 179 4 C119.6 4 60.2 4 -1 4 C-0.67 2.68 -0.34 1.36 0 0 Z " fill="#009ED5" transform="translate(22,100)"/>
<path d="M0 0 C50.49 0 100.98 0 153 0 C153.99 1.98 153.99 1.98 155 4 C103.19 4 51.38 4 -2 4 C-1.34 2.68 -0.68 1.36 0 0 Z " fill="#009DD6" transform="translate(35,73)"/>
<path d="M0 0 C0.66 0.33 1.32 0.66 2 1 C1.67 2.32 1.34 3.64 1 5 C1.721875 4.731875 2.44375 4.46375 3.1875 4.1875 C6 4 6 4 8.8125 6 C11 9 11 9 11.5625 12.5 C10.91761403 16.51262381 9.93925354 18.22870381 7 21 C6.01 21 5.02 21 4 21 C4.04125 21.94875 4.0825 22.8975 4.125 23.875 C4 27 4 27 2 29 C-1.625 28.625 -1.625 28.625 -5 28 C-5 28.99 -5 29.98 -5 31 C-5.66 31 -6.32 31 -7 31 C-6.125 23.375 -6.125 23.375 -5 20 C-4.01 20.33 -3.02 20.66 -2 21 C-2 22.32 -2 23.64 -2 25 C-1.34 25 -0.68 25 0 25 C-0.33 23.02 -0.66 21.04 -1 19 C-2.65 19 -4.3 19 -6 19 C-6.99 23.29 -7.98 27.58 -9 32 C-4.38 32.99 0.24 33.98 5 35 C4.67 36.32 4.34 37.64 4 39 C2.68 38.67 1.36 38.34 0 38 C0.04125 38.78375 0.0825 39.5675 0.125 40.375 C0 43 0 43 -2 45 C-2.99 45 -3.98 45 -5 45 C-4.67 46.98 -4.34 48.96 -4 51 C-2.02 49.68 -0.04 48.36 2 47 C2.33 48.32 2.66 49.64 3 51 C1.4050992 52.19991599 -0.20126147 53.38461318 -1.8125 54.5625 C-2.70582031 55.22378906 -3.59914063 55.88507813 -4.51953125 56.56640625 C-5.33808594 57.03949219 -6.15664062 57.51257813 -7 58 C-7.99 57.67 -8.98 57.34 -10 57 C-9.67 56.01 -9.34 55.02 -9 54 C-9.99 53.67 -10.98 53.34 -12 53 C-12 55.31 -12 57.62 -12 60 C-12.66 60 -13.32 60 -14 60 C-14.84575047 37.49364018 -10.39826146 20.00006033 0 0 Z M-1 8 C-3.36980013 10.95377498 -3.36980013 10.95377498 -3 15 C-1.01508358 14.73323796 -1.01508358 14.73323796 1 14 C1.33 13.01 1.66 12.02 2 11 C1.01 10.01 0.02 9.02 -1 8 Z M3 13 C3.33 14.32 3.66 15.64 4 17 C5.32 16.67 6.64 16.34 8 16 C8 15.01 8 14.02 8 13 C6.35 13 4.7 13 3 13 Z M-10 36 C-11.75747614 40.50353262 -12.19294408 44.17639811 -12 49 C-10.68 49 -9.36 49 -8 49 C-7.92572162 45.65747276 -7.93453047 43.1964086 -9 40 C-9.34227417 38.66893378 -9.67751743 37.33599921 -10 36 Z M-6 37 C-6 38.32 -6 39.64 -6 41 C-4.68 40.67 -3.36 40.34 -2 40 C-2.66 39.01 -3.32 38.02 -4 37 C-4.66 37 -5.32 37 -6 37 Z " fill="#009CD5" transform="translate(14,62)"/>
<path d="M0 0 C4.05071917 0.2382776 6.43009455 0.5626307 9.6875 3.0625 C11.61970823 5.51692667 12.48258959 7.03573211 13.625 9.8125 C16.31890125 15.66400682 21.8182365 18.51558183 27 22 C29.15763727 23.58637712 31.04887646 25.15434259 33 27 C33 27.99 33 28.98 33 30 C32.401875 30.103125 31.80375 30.20625 31.1875 30.3125 C28.90759282 30.82969347 28.90759282 30.82969347 27.5 32.625 C27.005 33.07875 26.51 33.5325 26 34 C23.8125 33.6875 23.8125 33.6875 22 33 C22 32.01 22 31.02 22 30 C23.32 29.34 24.64 28.68 26 28 C26 27.34 26 26.68 26 26 C23.92934145 26.51191212 23.92934145 26.51191212 22 28 C21.29327794 31.10930941 21.29327794 31.10930941 21.25 34.625 C21.19328125 35.81351563 21.1365625 37.00203125 21.078125 38.2265625 C21.05234375 39.14179687 21.0265625 40.05703125 21 41 C19.35 40.67 17.7 40.34 16 40 C16.2475 38.4840625 16.2475 38.4840625 16.5 36.9375 C17.11038101 33.06048178 17.11038101 33.06048178 16.8125 29.375 C17.03829438 25.31070109 18.21504637 23.87198343 21 21 C19.68 21 18.36 21 17 21 C15.19964598 22.97245783 15.19964598 22.97245783 13.75 25.5 C13.22921875 26.3353125 12.7084375 27.170625 12.171875 28.03125 C11.78515625 28.6809375 11.3984375 29.330625 11 30 C9.68 29.67 8.36 29.34 7 29 C7.99 27.02 8.98 25.04 10 23 C8.68 22.67 7.36 22.34 6 22 C6.33 20.35 6.66 18.7 7 17 C6.01 17.33 5.02 17.66 4 18 C4.33 20.64 4.66 23.28 5 26 C3.68 25.67 2.36 25.34 1 25 C-0.1875 21.75 -0.1875 21.75 -1 18 C0.375 15.5625 0.375 15.5625 2 14 C4.31 14.33 6.62 14.66 9 15 C9.33 15.99 9.66 16.98 10 18 C11.32 17.67 12.64 17.34 14 17 C12.42516875 15.82188197 10.83977627 14.65787174 9.25 13.5 C8.36828125 12.8503125 7.4865625 12.200625 6.578125 11.53125 C3.92657375 9.65956057 3.92657375 9.65956057 0 10 C-1.65 13.63 -3.3 17.26 -5 21 C-6.32 20.67 -7.64 20.34 -9 20 C-8.05250065 17.08982343 -7.10599506 14.2414332 -5.875 11.4375 C-4.92882061 8.80171456 -4.84123866 6.77832339 -5 4 C-4.34 4 -3.68 4 -3 4 C-1.36323743 2.0399719 -1.36323743 2.0399719 0 0 Z M2 3 C2 4.32 2 5.64 2 7 C5.465 8.485 5.465 8.485 9 10 C7.92598892 7.08482708 7.22189824 5.22189824 5 3 C4.01 3 3.02 3 2 3 Z " fill="#009ED5" transform="translate(159,11)"/>
<path d="M0 0 C1.35439668 2.70879335 1.06501451 5.00933268 1 8 C1.99 8.33 2.98 8.66 4 9 C3 12 3 12 -0.0625 13.6875 C-1.031875 14.120625 -2.00125 14.55375 -3 15 C0.76624671 16.25541557 2.37188934 15.37061958 6 14 C6.33 14.99 6.66 15.98 7 17 C7.66 17 8.32 17 9 17 C11.43160605 20.36683915 12 21.73350364 12 26 C12.804375 26.226875 13.60875 26.45375 14.4375 26.6875 C15.283125 27.120625 16.12875 27.55375 17 28 C17.8125 30.625 17.8125 30.625 18 33 C19.32 33.33 20.64 33.66 22 34 C20.73046875 35.46484375 19.4609375 36.9296875 18.19140625 38.39453125 C16.79128769 40.10712971 16.79128769 40.10712971 16 43 C19.15133488 41.16172132 22.11964908 39.24027294 25 37 C25.66 37.99 26.32 38.98 27 40 C25.76446724 41.20254524 24.51097661 42.38666232 23.25 43.5625 C22.55390625 44.22378906 21.8578125 44.88507813 21.140625 45.56640625 C19 47 19 47 16.84375 46.8359375 C14.37195529 45.71525092 13.39190098 44.29663662 12 42 C12 41.34 12 40.68 12 40 C10.6078125 39.38125 10.6078125 39.38125 9.1875 38.75 C6.09302357 37.05107176 4.8460131 35.91475752 3 33 C2.67 32.67 2.34 32.34 2 32 C1.95907063 29.66702567 1.95758277 27.33294775 2 25 C0.68 25.33 -0.64 25.66 -2 26 C-2.33 25.01 -2.66 24.02 -3 23 C-2.67 22.67 -2.34 22.34 -2 22 C-2.825 21.443125 -3.65 20.88625 -4.5 20.3125 C-7 18 -7 18 -7.5 15.4375 C-6.93215055 12.66923392 -6.18476274 11.72960384 -4 10 C-4.495 9.54625 -4.99 9.0925 -5.5 8.625 C-7 7 -7 7 -7 5 C-8.65 5.33 -10.3 5.66 -12 6 C-11.7421875 4.11328125 -11.7421875 4.11328125 -11 2 C-9.2578125 0.91796875 -9.2578125 0.91796875 -7.125 0.1875 C-6.42632812 -0.06644531 -5.72765625 -0.32039062 -5.0078125 -0.58203125 C-3 -1 -3 -1 0 0 Z M-4 3 C-4 3.99 -4 4.98 -4 6 C-3.34 6 -2.68 6 -2 6 C-2 5.01 -2 4.02 -2 3 C-2.66 3 -3.32 3 -4 3 Z M6 22 C6.99 23.485 6.99 23.485 8 25 C8 24.01 8 23.02 8 22 C7.34 22 6.68 22 6 22 Z M6 28 C6 28.99 6 29.98 6 31 C6.99 31 7.98 31 9 31 C9 30.01 9 29.02 9 28 C8.01 28 7.02 28 6 28 Z M13 30 C13 30.66 13 31.32 13 32 C13.66 31.67 14.32 31.34 15 31 C14.34 30.67 13.68 30.34 13 30 Z M9 31 C8.67 31.99 8.34 32.98 8 34 C9.485 34.99 9.485 34.99 11 36 C10.67 34.35 10.34 32.7 10 31 C9.67 31 9.34 31 9 31 Z M14 33 C14.33 34.32 14.66 35.64 15 37 C15 35.68 15 34.36 15 33 C14.67 33 14.34 33 14 33 Z " fill="#009ED5" transform="translate(18,153)"/>
<path d="M0 0 C10.38747843 4.85981097 18.56473765 7.60706624 29.94921875 3.953125 C32.92597838 2.74299938 35.79541516 1.39818778 38.6875 0 C49.61630806 -4.37836442 57.60996107 -2.93813508 68.30078125 1.5 C70.73920706 2.54454373 73.16266367 3.61531685 75.5859375 4.6953125 C82.92140748 7.78101398 89.54146606 8.08858291 97 5.125 C99.94597553 3.84414107 102.82378394 2.45479397 105.6875 1 C105.6875 1.99 105.6875 2.98 105.6875 4 C104.10675436 4.81752303 102.52278777 5.62881997 100.9375 6.4375 C99.61492187 7.11619141 99.61492187 7.11619141 98.265625 7.80859375 C89.89588592 11.67642772 82.25933421 10.2428631 73.82421875 7.21875 C69.60629011 5.57990351 65.43201458 3.85279329 61.28125 2.05078125 C51.26938343 -2.00523096 44.29107636 0.96144974 34.6875 5 C33.99785156 5.33 33.30820313 5.66 32.59765625 6 C25.56363435 9.20148043 16.93409816 9.6035276 9.5546875 7.34814453 C3.63323772 5.1074141 -1.99969186 2.21973096 -7.59375 -0.73046875 C-17.04569576 -3.95723595 -25.16682864 -1.52515928 -34.1875 1.9375 C-36.18389946 2.67847134 -38.18126371 3.41684958 -40.1796875 4.15234375 C-41.48075439 4.6472229 -41.48075439 4.6472229 -42.80810547 5.15209961 C-52.4617561 8.42048805 -63.00224439 8.25710372 -72.32421875 4.16796875 C-74.33586105 2.98627711 -75.75481372 1.7258175 -77.3125 0 C-76.6525 -0.33 -75.9925 -0.66 -75.3125 -1 C-73.47265625 -0.2578125 -73.47265625 -0.2578125 -71.375 0.875 C-61.78091112 6.00380265 -51.65395473 4.78584129 -41.5625 1.75 C-36.90873832 0.31406178 -32.44824158 -1.32043034 -28 -3.3125 C-17.9051743 -7.4776345 -9.27145403 -4.70464347 0 0 Z " fill="#009FD8" transform="translate(96.3125,131)"/>
<path d="M0 0 C1.73567655 0.82566057 3.47261052 1.64868429 5.2109375 2.46875 C5.9642334 2.83419922 6.7175293 3.19964844 7.49365234 3.57617188 C14.168736 6.46947274 21.89897751 6.68847269 28.796875 4.48828125 C31.77804475 3.22847221 34.70668089 1.89879489 37.625 0.5 C45.79789394 -3.3110398 53.4640991 -3.86034816 62.0625 -0.8125 C64.96935317 0.35024127 67.83387063 1.5911821 70.703125 2.84375 C79.91291919 6.82386206 86.81301488 8.65385236 96.625 5.5 C97.31078125 5.14550781 97.9965625 4.79101562 98.703125 4.42578125 C100.625 3.5 100.625 3.5 103.625 3.5 C103.625 4.16 103.625 4.82 103.625 5.5 C94.9561687 9.97423551 85.91724666 11.45810382 76.44921875 8.51171875 C73.46028638 7.25954605 70.54587696 5.90281574 67.625 4.5 C58.65480915 0.63800586 51.05871651 -1.47483685 41.6875 2.25 C39.99482208 2.98823959 38.30736929 3.73856069 36.625 4.5 C27.76864305 8.41265919 19.19430786 10.53397542 9.66015625 7.58203125 C6.59826872 6.31206716 3.61586348 4.92913181 0.625 3.5 C-12.46239856 -2.61321955 -12.46239856 -2.61321955 -26.40429688 -0.77148438 C-29.52225843 0.39674412 -32.62205629 1.59541443 -35.69262695 2.88354492 C-47.59515261 7.84871829 -58.1498909 9.18558189 -70.375 4.5 C-73.5 2.9375 -73.5 2.9375 -75.375 1.5 C-75.375 0.84 -75.375 0.18 -75.375 -0.5 C-72.27063419 0.17486213 -69.5805409 1.262728 -66.6875 2.5625 C-55.98464799 6.8436408 -45.94417715 3.61090666 -35.51171875 -0.29296875 C-34.64522705 -0.61322021 -33.77873535 -0.93347168 -32.88598633 -1.26342773 C-31.16874081 -1.9061423 -29.45834888 -2.56757511 -27.7565918 -3.25024414 C-17.39003598 -7.1468635 -9.65000505 -4.71550927 0 0 Z " fill="#00A1D8" transform="translate(96.375,141.5)"/>
<path d="M0 0 C21.45 0 42.9 0 65 0 C65 1.65 65 3.3 65 5 C43.55 5 22.1 5 0 5 C0 3.35 0 1.7 0 0 Z " fill="#009ED5" transform="translate(79,41)"/>
<path d="M0 0 C0.99 0 1.98 0 3 0 C4.21693876 2.43387753 4.31959896 4.41838846 4.5625 7.125 C4.64628906 8.03507813 4.73007813 8.94515625 4.81640625 9.8828125 C4.87699219 10.58148438 4.93757813 11.28015625 5 12 C3.68 12.33 2.36 12.66 1 13 C0.01 11.68 -0.98 10.36 -2 9 C-2 10.65 -2 12.3 -2 14 C-6.18524749 14.08206368 -9.91081136 13.84189178 -14 13 C-14.33 13.33 -14.66 13.66 -15 14 C-17.18639453 14.07258946 -19.37500389 14.08373783 -21.5625 14.0625 C-23.35880859 14.04896484 -23.35880859 14.04896484 -25.19140625 14.03515625 C-26.11824219 14.02355469 -27.04507813 14.01195312 -28 14 C-28.0272415 12.58344207 -28.04650467 11.16672955 -28.0625 9.75 C-28.07410156 8.96109375 -28.08570312 8.1721875 -28.09765625 7.359375 C-28 5 -28 5 -27 1 C-24.03 1.33 -21.06 1.66 -18 2 C-18 2.99 -18 3.98 -18 5 C-19.2065625 4.9690625 -19.2065625 4.9690625 -20.4375 4.9375 C-22.93354885 4.70366379 -22.93354885 4.70366379 -24 6 C-22.02 6 -20.04 6 -18 6 C-18.33 6.99 -18.66 7.98 -19 9 C-20.65 9.33 -22.3 9.66 -24 10 C-21.69 10.33 -19.38 10.66 -17 11 C-16.87625 10.071875 -16.7525 9.14375 -16.625 8.1875 C-16 5 -16 5 -14 2 C-12.1875 2.125 -12.1875 2.125 -10 3 C-8.25 6.0625 -8.25 6.0625 -7 9 C-7 6.36 -7 3.72 -7 1 C-3 1 -3 1 -1.25 2.5 C-0.8375 2.995 -0.425 3.49 0 4 C0 2.68 0 1.36 0 0 Z M-13 7 C-12 9 -12 9 -12 9 Z " fill="#009ED5" transform="translate(127,215)"/>
<path d="M0 0 C3 1 3 1 4.6875 3.9375 C6 7 6 7 6 9 C6.66 9.33 7.32 9.66 8 10 C7 11 7 11 3.5625 11.125 C0 11 0 11 -2 10 C-2 10.99 -2 11.98 -2 13 C-1.21625 12.95875 -0.4325 12.9175 0.375 12.875 C3 13 3 13 5 15 C4.54545455 20.45454545 4.54545455 20.45454545 2 23 C0.68 23 -0.64 23 -2 23 C-1.37240135 20.07120629 -0.41377341 17.63904371 1 15 C-1.7972908 17.06756277 -2.02692273 18.14440371 -2.6875 21.6875 C-2.8421875 23.3271875 -2.8421875 23.3271875 -3 25 C-4.32 24.67 -5.64 24.34 -7 24 C-7 23.01 -7 22.02 -7 21 C-7.969375 20.7525 -8.93875 20.505 -9.9375 20.25 C-13 19 -13 19 -14.0625 17.125 C-13.9767359 14.20902068 -13.00145487 13.0729354 -11 11 C-10.01 10.67 -9.02 10.34 -8 10 C-10.31 9.67 -12.62 9.34 -15 9 C-15 8.34 -15 7.68 -15 7 C-9.22240116 6.87963336 -3.72040011 7.1679418 2 8 C1.2265625 6.8553125 1.2265625 6.8553125 0.4375 5.6875 C-0.036875 4.800625 -0.51125 3.91375 -1 3 C-0.67 2.01 -0.34 1.02 0 0 Z M-9 14 C-9.33 14.99 -9.66 15.98 -10 17 C-8.68 17 -7.36 17 -6 17 C-6 16.01 -6 15.02 -6 14 C-6.99 14 -7.98 14 -9 14 Z " fill="#009ED6" transform="translate(132,0)"/>
<path d="M0 0 C0.47050781 0.47824219 0.94101563 0.95648438 1.42578125 1.44921875 C3.38074073 3.37507214 5.07724877 3.89307571 7.6875 4.6875 C8.49574219 4.93886719 9.30398437 5.19023437 10.13671875 5.44921875 C10.75160156 5.63097656 11.36648437 5.81273437 12 6 C11.01 7.485 11.01 7.485 10 9 C8.35 8.34 6.7 7.68 5 7 C5 7.66 5 8.32 5 9 C6.32 9.33 7.64 9.66 9 10 C9 10.99 9 11.98 9 13 C6.525 12.505 6.525 12.505 4 12 C3.67 12.99 3.34 13.98 3 15 C1.68 15 0.36 15 -1 15 C-1 13.68 -1 12.36 -1 11 C-1.33 11.33 -1.66 11.66 -2 12 C-5.4375 11.75 -5.4375 11.75 -9 11 C-11 8 -11 8 -10.8125 5 C-10 2 -10 2 -8.875 0.0625 C-5.76866344 -1.69775739 -3.34812456 -0.83703114 0 0 Z M-5 2 C-6.485 4.475 -6.485 4.475 -8 7 C-6.02 7.99 -6.02 7.99 -4 9 C-3.01 7.35 -2.02 5.7 -1 4 C-2.32 3.34 -3.64 2.68 -5 2 Z " fill="#009ED5" transform="translate(65,205)"/>
<path d="M0 0 C1.35384615 6.4 1.35384615 6.4 -0.4375 9.4375 C-0.953125 9.953125 -1.46875 10.46875 -2 11 C-0.68 11 0.64 11 2 11 C2 11.99 2 12.98 2 14 C-2.1196377 15.29243536 -5.66831683 16.26252625 -10 16 C-10 12 -10 12 -8.5 10.25 C-8.005 9.8375 -7.51 9.425 -7 9 C-8.32 9.33 -9.64 9.66 -11 10 C-11 8.68 -11 7.36 -11 6 C-11.66 5.67 -12.32 5.34 -13 5 C-13 4.01 -13 3.02 -13 2 C-11.58461283 1.66127487 -10.16762037 1.32925376 -8.75 1 C-7.56664062 0.7215625 -7.56664062 0.7215625 -6.359375 0.4375 C-4 0 -4 0 0 0 Z M-7 4 C-3 5 -3 5 -3 5 Z " fill="#009ED6" transform="translate(13,134)"/>
<path d="M0 0 C3.40755272 1.92880342 6.74147635 3.8276509 10 6 C10 6.99 10 7.98 10 9 C9.2575 9.061875 8.515 9.12375 7.75 9.1875 C4.1814261 10.24185138 3.07754772 11.99909773 1 15 C0.01 14.67 -0.98 14.34 -2 14 C-0.35 11.03 1.3 8.06 3 5 C-0.76687864 6.88343932 -1.79421646 7.69132469 -4 11 C-5.32 10.34 -6.64 9.68 -8 9 C-5.36 6.03 -2.72 3.06 0 0 Z " fill="#009ED5" transform="translate(45,193)"/>
<path d="M0 0 C2 2 2 2 2 5 C1.401875 4.835 0.80375 4.67 0.1875 4.5 C-2.11344336 3.8885876 -2.11344336 3.8885876 -5 4 C-5.33 5.65 -5.66 7.3 -6 9 C-4.35 8.34 -2.7 7.68 -1 7 C-0.01 8.485 -0.01 8.485 1 10 C-1 12 -1 12 -3.9375 12.375 C-7 12 -7 12 -8.9375 10.375 C-10.39177282 7.12427252 -10.07387226 5.36479974 -9 2 C-6.06138223 -1.25346967 -4.07402725 -1.39374616 0 0 Z " fill="#009ED6" transform="translate(88,214)"/>
<path d="M0 0 C0.99 0 1.98 0 3 0 C3.125 6.625 3.125 6.625 2 10 C3.65 10.33 5.3 10.66 7 11 C7 11.99 7 12.98 7 14 C4.36 13.67 1.72 13.34 -1 13 C-2.12758089 9.61725734 -1.81750262 8.23221777 -1.0625 4.8125 C-0.86785156 3.91144531 -0.67320313 3.01039063 -0.47265625 2.08203125 C-0.23869141 1.05142578 -0.23869141 1.05142578 0 0 Z " fill="#009FD6" transform="translate(91,215)"/>
<path d="M0 0 C3.48330216 0.64505596 6.09432866 1.98217268 9 4 C9 4.66 9 5.32 9 6 C5.59687262 4.94124926 2.98646769 3.99097846 0 2 C0 1.34 0 0.68 0 0 Z " fill="#0097C9" transform="translate(21,141)"/>
</svg>
