<svg width="25" height="24" viewBox="0 0 25 24" fill="none" xmlns="http://www.w3.org/2000/svg">
<mask id="mask0_6101_85044" style="mask-type:alpha" maskUnits="userSpaceOnUse" x="0" y="0" width="25" height="24">
<rect x="0.306519" width="24" height="24" rx="5" fill="#D9D9D9"/>
</mask>
<g mask="url(#mask0_6101_85044)">
<path d="M12.3065 14C12.8565 14 13.3274 13.8042 13.719 13.4125C14.1107 13.0208 14.3065 12.55 14.3065 12C14.3065 11.45 14.1107 10.9792 13.719 10.5875C13.3274 10.1958 12.8565 10 12.3065 10C11.7565 10 11.2857 10.1958 10.894 10.5875C10.5024 10.9792 10.3065 11.45 10.3065 12C10.3065 12.55 10.5024 13.0208 10.894 13.4125C11.2857 13.8042 11.7565 14 12.3065 14ZM8.30652 18H16.3065V17.425C16.3065 17.025 16.1982 16.6583 15.9815 16.325C15.7649 15.9917 15.4649 15.7417 15.0815 15.575C14.6482 15.3917 14.2024 15.25 13.744 15.15C13.2857 15.05 12.8065 15 12.3065 15C11.8065 15 11.3274 15.05 10.869 15.15C10.4107 15.25 9.96485 15.3917 9.53152 15.575C9.14819 15.7417 8.84819 15.9917 8.63152 16.325C8.41485 16.6583 8.30652 17.025 8.30652 17.425V18ZM18.3065 22H6.30652C5.75652 22 5.28569 21.8042 4.89402 21.4125C4.50235 21.0208 4.30652 20.55 4.30652 20V4C4.30652 3.45 4.50235 2.97917 4.89402 2.5875C5.28569 2.19583 5.75652 2 6.30652 2H14.3065L20.3065 8V20C20.3065 20.55 20.1107 21.0208 19.719 21.4125C19.3274 21.8042 18.8565 22 18.3065 22ZM18.3065 20V8.85L13.4565 4H6.30652V20H18.3065Z" fill="#333333"/>
</g>
</svg>
