<?xml version="1.0" encoding="UTF-8"?>
<svg version="1.1" xmlns="http://www.w3.org/2000/svg" width="463" height="600">
<path d="M0 0 C8.435625 -0.04125 16.87125 -0.0825 25.5625 -0.125 C28.1929126 -0.14320801 30.8233252 -0.16141602 33.53344727 -0.18017578 C72.52842694 -0.34037059 72.52842694 -0.34037059 84.0625 10.375 C89.33288689 16.37809921 90.63579163 22.20840892 90.41015625 30.06640625 C89.32950855 37.79561029 83.95100665 42.47243298 78 47 C78.87011719 47.52787109 78.87011719 47.52787109 79.7578125 48.06640625 C86.4531568 52.29795224 92.33064245 56.40497965 94.4375 64.375 C96.03893365 74.0991693 93.28409129 81.17045398 87.875 89.125 C82.03726421 95.71947932 73.25522339 99.63078912 64.57667542 100.24050903 C63.384207 100.23606781 62.19173859 100.23162659 60.96313477 100.22705078 C60.2882624 100.22729185 59.61339003 100.22753292 58.91806698 100.2277813 C56.75904034 100.22630256 54.60037015 100.21113713 52.44140625 100.1953125 C51.09826829 100.19236758 49.75512803 100.19032991 48.4119873 100.18920898 C43.46212293 100.17877367 38.51230787 100.15085114 33.5625 100.125 C16.9490625 100.063125 16.9490625 100.063125 0 100 C0 67 0 34 0 0 Z M37 17 C37 24.26 37 31.52 37 39 C45.77565426 39.90405245 45.77565426 39.90405245 53.75 37 C56.52754623 33.29660503 57.40544353 30.60403658 57 26 C55.49717203 21.94236447 54.61841259 20.41227506 51 18 C46.34092271 17.42507312 41.69100034 17.2582202 37 17 Z M37 56 C37 64.91 37 73.82 37 83 C47.69676955 83.80824258 47.69676955 83.80824258 55 79 C57.74270849 74.53953982 57.5293694 70.08515459 57 65 C55.45771534 60.88724091 54.66328593 59.44219062 51 57 C46.34092271 56.42507312 41.69100034 56.2582202 37 56 Z " fill="#FCFCFC" transform="translate(349,500)"/>
<path d="M0 0 C48.84 0 97.68 0 148 0 C144.18977035 5.0803062 140.71448195 9.62181698 136.25 14 C135.72978271 14.51344971 135.20956543 15.02689941 134.67358398 15.5559082 C113.17780895 36.48730019 85.36083185 51.23347967 56.8125 59.9375 C56.09328369 60.16139404 55.37406738 60.38528809 54.63305664 60.6159668 C50.92813693 61.69776278 48.67518359 61.92083314 45 61 C44.15115234 61.66128906 44.15115234 61.66128906 43.28515625 62.3359375 C39.92779786 64.7807831 36.48812709 65.03530949 32.4375 65.625 C31.62974121 65.74979736 30.82198242 65.87459473 29.98974609 66.00317383 C19.89072355 67.52661997 10.28724617 68 0 68 C0 45.56 0 23.12 0 0 Z M77 2 C78 4 78 4 78 4 Z M73 12 C74 14 74 14 74 14 Z M72 14 C73 16 73 16 73 16 Z M63 32 C64 34 64 34 64 34 Z M60 37 C61 39 61 39 61 39 Z M55 45 C56 47 56 47 56 47 Z M53 48 C54 50 54 50 54 50 Z M51 51 C52 53 52 53 52 53 Z M48 55 C49 57 49 57 49 57 Z " fill="#FBFBFB" transform="translate(228,367)"/>
<path d="M0 0 C4.77189692 3.41404007 7.88577829 6.38724474 10 12 C10.34879423 15.63716684 10.28317851 19.22566934 10.1875 22.875 C10.125625 26.21625 10.06375 29.5575 10 33 C-2.21 33 -14.42 33 -27 33 C-27 28.38 -27 23.76 -27 19 C-30.24238379 14.06894532 -30.24238379 14.06894532 -33.18359375 13.1875 C-38.05588464 12.78217944 -41.01455167 12.76182323 -45 16 C-46.67178387 17.67178387 -46.15307973 19.71060763 -46.17700195 22.00708008 C-46.18983719 23.07521439 -46.20267242 24.14334869 -46.21589661 25.24385071 C-46.22328354 26.40732529 -46.23067047 27.57079987 -46.23828125 28.76953125 C-46.246353 29.95721603 -46.25442474 31.14490082 -46.26274109 32.36857605 C-46.27660205 34.88803641 -46.28731515 37.4075157 -46.29516602 39.92700195 C-46.31238035 43.78568011 -46.35625036 47.64350225 -46.40039062 51.50195312 C-46.41051672 53.94530618 -46.41903308 56.38866654 -46.42578125 58.83203125 C-46.44328934 59.98943314 -46.46079742 61.14683502 -46.47883606 62.33930969 C-46.47444771 63.95569588 -46.47444771 63.95569588 -46.4699707 65.60473633 C-46.47583694 66.55214188 -46.48170319 67.49954742 -46.48774719 68.47566223 C-45.85573721 71.7466327 -44.53513978 72.91286001 -42 75 C-39.55222161 76.2238892 -38.26609459 76.016364 -35.5625 75.75 C-34.78003906 75.68296875 -33.99757813 75.6159375 -33.19140625 75.546875 C-30.5801139 75.0949693 -30.5801139 75.0949693 -28 72 C-27.67 66.06 -27.34 60.12 -27 54 C-14.79 54 -2.58 54 10 54 C10.0825 57.50625 10.165 61.0125 10.25 64.625 C10.28641602 65.71893066 10.32283203 66.81286133 10.36035156 67.93994141 C10.42742341 73.83685454 10.04146768 77.37597842 6 82 C5.51660156 82.56847656 5.03320312 83.13695312 4.53515625 83.72265625 C-3.82933316 91.33278852 -15.25759696 94.13292542 -26.28125 94.23828125 C-27.09057983 94.246353 -27.89990967 94.25442474 -28.73376465 94.26274109 C-30.44846474 94.27655635 -32.16319203 94.28728992 -33.87792969 94.29516602 C-35.61173705 94.30662787 -37.34551076 94.3269867 -39.07910156 94.35668945 C-52.45537093 94.58559502 -65.13430186 93.8329172 -76 85 C-81.14923569 79.8958342 -83.10575893 76.37561191 -83.19287109 69.00317383 C-83.21696548 67.15028496 -83.21696548 67.15028496 -83.24154663 65.25996399 C-83.2530366 63.90899345 -83.26364471 62.55801516 -83.2734375 61.20703125 C-83.28142302 60.18355874 -83.28142302 60.18355874 -83.28956985 59.13941002 C-83.31627822 55.52516174 -83.33565712 51.91094767 -83.35009766 48.29663086 C-83.36341342 45.3158483 -83.39122353 42.33575416 -83.43212891 39.35522461 C-83.48164618 35.74660701 -83.50624188 32.13861158 -83.51332474 28.52966881 C-83.52000659 27.16020601 -83.5351484 25.79075542 -83.55921555 24.42148781 C-83.69222529 16.39363533 -83.56653444 10.16183557 -78 4 C-59.58639853 -12.40699105 -20.36043883 -13.7004822 0 0 Z " fill="#FBFBFB" transform="translate(321,506)"/>
<path d="M0 0 C7.86253245 7.27962056 7.86253245 7.27962056 8.11352539 12.24658203 C8.10567017 13.61339111 8.10567017 13.61339111 8.09765625 15.0078125 C8.09515869 15.8961377 8.09266113 16.78446289 8.09008789 17.69970703 C8.08098389 18.83005371 8.07187988 19.96040039 8.0625 21.125 C8.041875 24.71375 8.02125 28.3025 8 32 C-3.88 32 -15.76 32 -28 32 C-28.495 24.575 -28.495 24.575 -29 17 C-33.29872504 12.70127496 -34.24324664 12.2940439 -39.80859375 11.890625 C-42.88193517 12.04401815 -44.67098288 13.0348918 -47 15 C-48.24196911 17.48393823 -48.13358927 19.15832012 -48.14526367 21.93701172 C-48.15164352 22.96502899 -48.15802338 23.99304626 -48.16459656 25.05221558 C-48.16570938 26.16678131 -48.1668222 27.28134705 -48.16796875 28.4296875 C-48.17129715 29.57156525 -48.17462555 30.71344299 -48.17805481 31.8899231 C-48.18312509 34.30926103 -48.1854631 36.72860598 -48.18530273 39.14794922 C-48.18748683 42.85265627 -48.20563516 46.55706452 -48.22460938 50.26171875 C-48.22754372 52.60937398 -48.22952824 54.95703063 -48.23046875 57.3046875 C-48.23765427 58.41520477 -48.24483978 59.52572205 -48.25224304 60.66989136 C-48.2476281 62.22137375 -48.2476281 62.22137375 -48.24291992 63.80419922 C-48.24434494 64.71305878 -48.24576996 65.62191833 -48.24723816 66.55831909 C-47.9814136 69.18355607 -47.41057526 70.78209693 -46 73 C-42.3167713 75.27493537 -39.11955534 75.11465697 -34.96484375 74.77734375 C-32.22765118 73.88240022 -32.22765118 73.88240022 -29 69 C-28.67 63.72 -28.34 58.44 -28 53 C-16.12 53 -4.24 53 8 53 C8.0825 56.50625 8.165 60.0125 8.25 63.625 C8.28641602 64.71893066 8.32283203 65.81286133 8.36035156 66.93994141 C8.44005701 73.94759299 7.18954684 77.50779543 2.39453125 82.7578125 C-6.501498 90.44573901 -17.08404146 93.30165397 -28.671875 93.3359375 C-29.87738007 93.3459227 -29.87738007 93.3459227 -31.10723877 93.35610962 C-32.79803197 93.36617216 -34.48886438 93.37092864 -36.1796875 93.37060547 C-38.72985304 93.37496555 -41.27826606 93.41131544 -43.828125 93.44921875 C-57.10089261 93.54142223 -68.41694712 91.69562943 -79 83 C-83.48569098 78.16925587 -85.24637492 74.54536971 -85.2746582 67.94970703 C-85.28419022 66.72808868 -85.29372223 65.50647034 -85.30354309 64.24783325 C-85.30263168 62.9311264 -85.30172028 61.61441956 -85.30078125 60.2578125 C-85.30467069 58.88784658 -85.30900587 57.51788187 -85.31376648 56.1479187 C-85.3212214 53.27809743 -85.32094314 50.40839919 -85.31567383 47.53857422 C-85.30988574 43.87116229 -85.32679711 40.20425648 -85.3500185 36.53692818 C-85.36479319 33.70752038 -85.3656224 30.87823334 -85.36250877 28.04879379 C-85.36326811 26.0425265 -85.37711374 24.03627787 -85.39118958 22.03005981 C-85.38496078 20.80213715 -85.37873199 19.57421448 -85.37231445 18.30908203 C-85.37294388 17.23304718 -85.3735733 16.15701233 -85.3742218 15.04837036 C-84.57189238 8.51268162 -81.16805732 4.68240465 -76.28515625 0.66796875 C-56.20669607 -13.98759107 -20.51682871 -13.62730191 0 0 Z " fill="#FBFBFB" transform="translate(99,507)"/>
<path d="M0 0 C46.86 0 93.72 0 142 0 C142 22.44 142 44.88 142 68 C134.09091681 68 127.09316372 67.72449927 119.375 66.6875 C118.40304688 66.56955078 117.43109375 66.45160156 116.4296875 66.33007812 C110.9780384 65.6156483 106.01167337 64.53926771 100.86181641 62.59692383 C98.849734 61.84734711 98.849734 61.84734711 96 62 C73.26857252 56.4136809 51.74623698 45.98408807 33 32 C32.1646875 31.37738281 31.329375 30.75476563 30.46875 30.11328125 C19.42081728 21.55830738 7.79570526 11.6935579 0 0 Z M65 4 C66 6 66 6 66 6 Z M66 7 C67 9 67 9 67 9 Z M67 9 C68 11 68 11 68 11 Z M69 14 C70 16 70 16 70 16 Z M71 18 C72 20 72 20 72 20 Z M75 26 C76 28 76 28 76 28 Z M76 28 C77 30 77 30 77 30 Z M77 30 C78 32 78 32 78 32 Z M89 49 C90 51 90 51 90 51 Z M91 52 C92 54 92 54 92 54 Z " fill="#FBFBFB" transform="translate(82,367)"/>
<path d="M0 0 C0.71145172 0.23740906 1.42290344 0.47481812 2.15591431 0.71942139 C4.10122879 1.3710913 6.04458497 2.02859881 7.98779297 2.68652344 C12.9601236 4.2654833 18.00710136 5.60070271 23.0402832 6.97338867 C23.0402832 17.86338867 23.0402832 28.75338867 23.0402832 39.97338867 C4.01199379 40.22187689 -15.01497853 40.42442653 -34.04447937 40.54332256 C-42.88058631 40.60000003 -51.71561236 40.67724091 -60.55102539 40.80322266 C-68.25374582 40.91300112 -75.95568345 40.98386044 -83.65916443 41.00836211 C-87.73712092 41.02268201 -91.81283841 41.05622702 -95.89007568 41.1364193 C-99.73216062 41.21137076 -103.57109656 41.23406524 -107.41384315 41.21757317 C-108.82003245 41.22058743 -110.22633227 41.24231591 -111.63188744 41.2846489 C-122.20830479 41.58743547 -122.20830479 41.58743547 -126.51661682 37.61702919 C-128.58633074 34.81845748 -130.30363475 32.03171419 -131.9597168 28.97338867 C-132.98326977 27.29788993 -134.00994881 25.62429062 -135.04174805 23.95385742 C-135.95832098 22.35987375 -136.8685853 20.76224435 -137.7722168 19.16088867 C-138.23563477 18.35458008 -138.69905273 17.54827148 -139.17651367 16.7175293 C-145.9597168 4.84934987 -145.9597168 4.84934987 -145.9597168 0.97338867 C-144.35555013 1.26505534 -142.75138346 1.55672201 -141.1472168 1.84838867 C-140.12756836 2.02885742 -139.10791992 2.20932617 -138.05737305 2.39526367 C-136.2032361 2.74130688 -134.3537053 3.1168922 -132.51831055 3.55151367 C-114.31107941 7.64302629 -98.57533677 5.15115671 -82.3972168 -3.58911133 C-55.44120619 -18.13055122 -27.31969328 -9.12545851 0 0 Z M-67.9597168 -4.02661133 C-67.9597168 -2.37661133 -67.9597168 -0.72661133 -67.9597168 0.97338867 C-67.6297168 0.97338867 -67.2997168 0.97338867 -66.9597168 0.97338867 C-66.9597168 -0.67661133 -66.9597168 -2.32661133 -66.9597168 -4.02661133 C-67.2897168 -4.02661133 -67.6197168 -4.02661133 -67.9597168 -4.02661133 Z M-66.9597168 0.97338867 C-66.9597168 2.95338867 -66.9597168 4.93338867 -66.9597168 6.97338867 C-66.6297168 6.97338867 -66.2997168 6.97338867 -65.9597168 6.97338867 C-65.9597168 4.99338867 -65.9597168 3.01338867 -65.9597168 0.97338867 C-66.2897168 0.97338867 -66.6197168 0.97338867 -66.9597168 0.97338867 Z M-65.9597168 6.97338867 C-65.9597168 8.62338867 -65.9597168 10.27338867 -65.9597168 11.97338867 C-65.6297168 11.97338867 -65.2997168 11.97338867 -64.9597168 11.97338867 C-64.9597168 10.32338867 -64.9597168 8.67338867 -64.9597168 6.97338867 C-65.2897168 6.97338867 -65.6197168 6.97338867 -65.9597168 6.97338867 Z M-64.9597168 12.97338867 C-63.9597168 16.97338867 -63.9597168 16.97338867 -63.9597168 16.97338867 Z M-63.9597168 16.97338867 C-62.9597168 20.97338867 -62.9597168 20.97338867 -62.9597168 20.97338867 Z M-62.9597168 20.97338867 C-61.9597168 24.97338867 -61.9597168 24.97338867 -61.9597168 24.97338867 Z M-61.9597168 25.97338867 C-60.9597168 28.97338867 -60.9597168 28.97338867 -60.9597168 28.97338867 Z M-60.9597168 28.97338867 C-59.9597168 31.97338867 -59.9597168 31.97338867 -59.9597168 31.97338867 Z M-59.9597168 32.97338867 C-58.9597168 34.97338867 -58.9597168 34.97338867 -58.9597168 34.97338867 Z M-58.9597168 35.97338867 C-57.9597168 37.97338867 -57.9597168 37.97338867 -57.9597168 37.97338867 Z " fill="#FBFBFB" transform="translate(200.959716796875,321.026611328125)"/>
<path d="M0 0 C11.1375 -0.061875 22.275 -0.12375 33.75 -0.1875 C37.24303711 -0.21481201 40.73607422 -0.24212402 44.33496094 -0.27026367 C48.66064453 -0.28381348 48.66064453 -0.28381348 50.69732666 -0.28633118 C52.09432864 -0.29088321 53.49132021 -0.30131812 54.88824463 -0.31672668 C67.8594137 -0.45242322 80.93885154 0.15920184 90.71484375 9.66796875 C97.64943392 17.3485784 99.34372993 24.7969431 99.20703125 34.9375 C98.70107489 42.42183555 96.17036406 47.83021403 91.015625 53.27734375 C80.61390389 62.16718679 66.26049346 61.26290133 53.4375 61.125 C48.013125 61.08375 42.58875 61.0425 37 61 C37 73.54 37 86.08 37 99 C24.79 99 12.58 99 0 99 C0 66.33 0 33.66 0 0 Z M38 19 C38 26.92 38 34.84 38 43 C49.10600943 43.54608265 49.10600943 43.54608265 58.4375 39.0625 C60.8001468 34.43171227 60.75466007 30.09395545 60 25 C57.93357285 21.46985362 56.24410031 21.08417252 52.375 19.75 C47.09709961 18.71839364 47.09709961 18.71839364 38 19 Z " fill="#FBFBFB" transform="translate(124,501)"/>
<path d="M0 0 C27.23014389 11.77862038 49.97930056 17.19053808 79.046875 7.55078125 C81 7 81 7 84 7 C82.41606831 12.89145324 79.39457836 17.71328966 76.25 22.875 C75.73695313 23.73480469 75.22390625 24.59460938 74.6953125 25.48046875 C73.16364564 28.01657041 71.63397411 30.52807877 70 33 C69.6823575 33.6523292 69.364715 34.30465839 69.03744698 34.97675514 C67.58260082 37.51761069 66.29464157 39.16110568 64 41 C59.09135272 42.18774901 54.19992066 42.01246929 49.18212891 41.90820312 C47.66402303 41.90594504 46.14590842 41.90721613 44.62780762 41.91174316 C40.51595439 41.91403521 36.40597454 41.86706168 32.29455614 41.8111515 C27.99451269 41.76108216 23.69442449 41.75643713 19.39413452 41.74694824 C11.25533156 41.7221001 3.11739003 41.65647486 -5.02103388 41.57615232 C-14.2881057 41.48667936 -23.55521904 41.44273383 -32.82261539 41.40258884 C-51.88233096 41.31900614 -70.94086588 41.17231891 -90 41 C-90 30.44 -90 19.88 -90 9 C-85.2665625 8.6596875 -85.2665625 8.6596875 -80.4375 8.3125 C-69.02487184 7.3229453 -59.14950344 4.87333984 -49 -0.625 C-33.81639636 -8.67383337 -15.14464994 -7.29186849 0 0 Z M-1 4 C-1 5.98 -1 7.96 -1 10 C-0.67 10 -0.34 10 0 10 C0 8.02 0 6.04 0 4 C-0.33 4 -0.66 4 -1 4 Z M-2 10 C-1 14 -1 14 -1 14 Z M-3 15 C-2 19 -2 19 -2 19 Z M-4 20 C-3 23 -3 23 -3 23 Z M-5 24 C-4 27 -4 27 -4 27 Z M-6 27 C-5 30 -5 30 -5 30 Z M-7 31 C-6 33 -6 33 -6 33 Z M-8 34 C-7 37 -7 37 -7 37 Z " fill="#FBFBFB" transform="translate(318,320)"/>
<path d="M0 0 C124.74 0 249.48 0 378 0 C378 3.3 378 6.6 378 10 C253.26 10 128.52 10 0 10 C0 6.7 0 3.4 0 0 Z " fill="#FCFCFC" transform="translate(40,238)"/>
<path d="M0 0 C120.78 0 241.56 0 366 0 C369 6 369 6 369 9 C246.24 9 123.48 9 -3 9 C-2.01 6.03 -1.02 3.06 0 0 Z " fill="#FCFCFC" transform="translate(46,207)"/>
<path d="M0 0 C0 1.32 0 2.64 0 4 C-1.98 4 -3.96 4 -6 4 C-5.87882813 4.62003906 -5.75765625 5.24007813 -5.6328125 5.87890625 C-1.7684556 26.30054617 -1.7684556 26.30054617 -2 35 C-4.31 35 -6.62 35 -9 35 C-12.38297872 15.65957447 -12.38297872 15.65957447 -13 6 C-14.98 6.33 -16.96 6.66 -19 7 C-18.67 8.175625 -18.34 9.35125 -18 10.5625 C-16.8203446 15.35750216 -15.82394918 19.87190805 -18.3125 24.375 C-21.59826676 27.53907169 -25.52970234 27.34656782 -29.84375 27.26953125 C-32 27 -32 27 -34.4375 25.5 C-37.30788597 20.90738245 -38 16.36182811 -38 11 C-40.64 11.33 -43.28 11.66 -46 12 C-45.505 13.546875 -45.505 13.546875 -45 15.125 C-44.0488285 18.54370337 -43.53473462 21.43296543 -44 25 C-46 27.875 -46 27.875 -48 30 C-47.38511719 30.39832031 -46.77023438 30.79664062 -46.13671875 31.20703125 C-44.92435547 32.00173828 -44.92435547 32.00173828 -43.6875 32.8125 C-42.88699219 33.33457031 -42.08648437 33.85664062 -41.26171875 34.39453125 C-39.2762598 35.80389849 -37.6508148 37.22096657 -36 39 C-37.32 40.32 -38.64 41.64 -40 43 C-44.78526672 41.6683856 -48.08386356 39.72148592 -52 36.6875 C-53.55460937 35.48867187 -53.55460937 35.48867187 -55.140625 34.265625 C-58.13860789 31.89017408 -61.10167579 29.49577919 -64 27 C-63.02617818 24.48429364 -62.53848865 23.26055902 -60.0625 22.0625 C-58 22 -58 22 -56.4375 23.4375 C-55.963125 23.953125 -55.48875 24.46875 -55 25 C-54.01 25 -53.02 25 -52 25 C-52.33 21.7 -52.66 18.4 -53 15 C-59.27 17.31 -65.54 19.62 -72 22 C-72 25.28222527 -71.42887268 26.41385437 -69.8828125 29.23828125 C-69.44066406 30.05876953 -68.99851562 30.87925781 -68.54296875 31.72460938 C-68.07503906 32.57861328 -67.60710937 33.43261719 -67.125 34.3125 C-61.56279249 44.49430002 -61.56279249 44.49430002 -60 50 C-62.16590481 51.31501363 -63.50121292 52.03022952 -66.0625 51.875 C-68.55376366 50.74991319 -69.53725191 49.26725953 -71 47 C-71.99 47.7425 -71.99 47.7425 -73 48.5 C-76.82213428 50.41106714 -79.80495027 50.87114944 -84 50 C-87.13836313 47.97314048 -88.65870267 46.54702808 -89.4765625 42.83984375 C-89.74661516 38.58296105 -89.38355679 36.54149194 -86.875 33 C-83.78007546 30.84700902 -81.72790821 30.26008662 -78 30 C-78.99 28.515 -78.99 28.515 -80 27 C-87.21330414 28.94954166 -93.81629324 32.87752882 -100 37 C-98.68972536 40.51301568 -97.1396016 43.58645976 -95.14453125 46.7578125 C-94.33532227 48.06685547 -94.33532227 48.06685547 -93.50976562 49.40234375 C-92.37146425 51.22834158 -91.22816841 53.05123474 -90.08007812 54.87109375 C-89.54447266 55.74121094 -89.00886719 56.61132812 -88.45703125 57.5078125 C-87.96178955 58.29816895 -87.46654785 59.08852539 -86.95629883 59.90283203 C-86 62 -86 62 -87 65 C-89.5625 66.1875 -89.5625 66.1875 -92 67 C-94.31407159 63.37600098 -96.6259902 59.75063345 -98.9375 56.125 C-99.59685547 55.09246094 -100.25621094 54.05992188 -100.93554688 52.99609375 C-101.56396484 52.00996094 -102.19238281 51.02382813 -102.83984375 50.0078125 C-103.42113037 49.09660645 -104.00241699 48.18540039 -104.60131836 47.24658203 C-106 45 -106 45 -107 43 C-109.97 43.99 -112.94 44.98 -116 46 C-114.16831705 49.66336589 -112.564768 51.74574712 -109.8125 54.6875 C-105.60325099 59.27135855 -101.73635236 64.02620619 -98 69 C-99.765625 72.875 -99.765625 72.875 -101.875 74 C-104 74 -104 74 -106.25 72.0625 C-106.8275 71.381875 -107.405 70.70125 -108 70 C-108.72316406 70.63228516 -108.72316406 70.63228516 -109.4609375 71.27734375 C-110.09257813 71.82519531 -110.72421875 72.37304688 -111.375 72.9375 C-112.00148437 73.48277344 -112.62796875 74.02804688 -113.2734375 74.58984375 C-116.64998553 77.34761262 -119.49503729 77.38086278 -123.734375 77.3671875 C-127.28011109 76.79253372 -128.87153111 74.74641147 -131 72 C-129.02 71.01 -129.02 71.01 -127 70 C-127.66 68.02 -128.32 66.04 -129 64 C-131.60134984 62.8655905 -131.60134984 62.8655905 -135 63 C-137.96996983 65.03320516 -140.48166917 67.43692726 -143 70 C-138.52179889 76.02240839 -132.85996771 80.36927839 -127 85 C-125.3328866 86.33277472 -123.66607758 87.66593064 -122 89 C-122.39803561 91.88575819 -122.79009069 92.82189513 -125.0625 94.75 C-125.701875 95.1625 -126.34125 95.575 -127 96 C-128.65 94.35 -130.3 92.7 -132 91 C-134.89638128 92.22539208 -136.48497655 93.46342204 -138.8125 95.6875 C-142 98 -142 98 -145.4375 98.125 C-149.85389203 96.73034988 -152.45121631 94.96939043 -156 92 C-156 91.34 -156 90.68 -156 90 C-156.763125 90.165 -157.52625 90.33 -158.3125 90.5 C-161 91 -161 91 -164 91 C-164 86.76743169 -163.97080163 86.46818183 -161.3671875 83.57421875 C-160.80773437 82.94193359 -160.24828125 82.30964844 -159.671875 81.65820312 C-159.07890625 81.00787109 -158.4859375 80.35753906 -157.875 79.6875 C-156.72640591 78.39987925 -155.57796772 77.11211941 -154.4296875 75.82421875 C-153.86088867 75.19563965 -153.29208984 74.56706055 -152.70605469 73.91943359 C-150.48854842 71.42458038 -148.37116329 68.85112559 -146.26611328 66.26098633 C-145 65 -145 65 -143 65 C-143 64.34 -143 63.68 -143 63 C-141.46804728 61.62787699 -139.87078919 60.3284554 -138.25 59.0625 C-133.9057551 55.60723185 -129.83342815 52.01027681 -125.8125 48.1875 C-121.50054355 44.12241658 -117.45871868 41.32500981 -112 39 C-111.34 38.34 -110.68 37.68 -110 37 C-110.94875 36.401875 -111.8975 35.80375 -112.875 35.1875 C-116 33 -116 33 -118 30 C-118 26.93920285 -117.71667067 24.89130245 -115.765625 22.46484375 C-114.25 21.0625 -114.25 21.0625 -111 19 C-108.125 19.1875 -108.125 19.1875 -106 20 C-106 20.99 -106 21.98 -106 23 C-107.65 23.33 -109.3 23.66 -111 24 C-110.51973152 26.94818931 -110.51973152 26.94818931 -109 30 C-106.71463927 31.44088563 -104.59292376 32.13569208 -102 33 C-101.27917236 32.39945801 -100.55834473 31.79891602 -99.81567383 31.18017578 C-75.01691892 11.97850394 -31.11096095 -0.71110768 0 0 Z M-31 9 C-30.66009167 14.37992836 -30.31442207 18.53273547 -27 23 C-26.01 22.67 -25.02 22.34 -24 22 C-24.7187807 14.95792295 -24.7187807 14.95792295 -26 8 C-28.9254644 7.7763932 -28.9254644 7.7763932 -31 9 Z M-83 36 C-82.54387665 40.20938887 -82.54387665 40.20938887 -80.6875 43.9375 C-79.0414628 45.18315456 -79.0414628 45.18315456 -76.9375 45 C-74.8002094 44.10213197 -74.8002094 44.10213197 -73.5625 41.75 C-72.69850351 38.91714697 -72.69850351 38.91714697 -74.3125 36.1875 C-74.869375 35.465625 -75.42625 34.74375 -76 34 C-78.35287614 34 -80.79373224 35.24893012 -83 36 Z M-127 55 C-127 55.66 -127 56.32 -127 57 C-126.0409375 57.433125 -126.0409375 57.433125 -125.0625 57.875 C-123 59 -123 59 -122 61 C-121.93003986 62.70702735 -121.91559846 64.41668003 -121.9375 66.125 C-121.94652344 67.03507812 -121.95554687 67.94515625 -121.96484375 68.8828125 C-121.98224609 69.93082031 -121.98224609 69.93082031 -122 71 C-118.71303767 71.79953138 -117.28976808 72.09658936 -114 71 C-112.55987047 68.11974094 -112.6644243 66.2014693 -113 63 C-114.8896412 59.92158389 -114.8896412 59.92158389 -117.4375 57.125 C-118.26121094 56.15820312 -119.08492187 55.19140625 -119.93359375 54.1953125 C-120.95646484 53.10863281 -120.95646484 53.10863281 -122 52 C-124.04552042 52 -125.51557906 53.7550018 -127 55 Z M-150 77 C-152.12802546 79.30566683 -152.12802546 79.30566683 -154 82 C-152.8235515 85.52934549 -151.61656901 86.45294802 -148.75 88.75 C-147.98171875 89.38421875 -147.2134375 90.0184375 -146.421875 90.671875 C-144.04676581 92.27398887 -144.04676581 92.27398887 -141.203125 91.703125 C-140.47609375 91.47109375 -139.7490625 91.2390625 -139 91 C-138.41060103 88.29799579 -138.41060103 88.29799579 -139 85 C-141.957419 80.99159739 -144.97387433 77.85622052 -150 77 Z " fill="#FBFBFB" transform="translate(213,12)"/>
<path d="M0 0 C0.95358778 -0.00135383 1.90717556 -0.00270767 2.88965994 -0.00410253 C3.9904359 -0.01775796 5.09121185 -0.0314134 6.22534466 -0.04548264 C7.43952637 -0.03501115 8.65370808 -0.02453966 9.90468317 -0.01375085 C11.83377318 -0.02650913 11.83377318 -0.02650913 13.8018347 -0.03952515 C17.37903836 -0.06240856 20.9555942 -0.05392986 24.5328204 -0.0403859 C28.38774166 -0.03115689 32.24253169 -0.05060371 36.09741694 -0.06636316 C43.65234152 -0.09249571 51.2070285 -0.09134927 58.76198112 -0.08032497 C64.90081937 -0.07177757 71.0395887 -0.07258859 77.17842776 -0.08012086 C78.4874439 -0.08170319 78.4874439 -0.08170319 79.82290481 -0.08331749 C81.59557231 -0.08548835 83.36823978 -0.08767513 85.14090724 -0.08987764 C101.77654847 -0.10932336 118.41205624 -0.09729464 135.04768658 -0.0750917 C149.32946468 -0.05684159 163.61098427 -0.06774027 177.89273554 -0.09939843 C194.46602863 -0.136134 211.03916021 -0.15319221 227.61249411 -0.13998616 C229.37906018 -0.13864502 231.14562628 -0.13733604 232.9121924 -0.13605958 C233.78143933 -0.13542892 234.65068625 -0.13479825 235.54627399 -0.13414847 C241.67899099 -0.13111719 247.81158651 -0.14239932 253.94427782 -0.15931016 C261.41639202 -0.1796034 268.88814132 -0.17881452 276.36023628 -0.15067776 C280.17454982 -0.13687356 283.98822572 -0.13278768 287.80251604 -0.15462762 C291.93313413 -0.17796683 296.06217901 -0.15503885 300.19276911 -0.12727624 C301.4047201 -0.14134269 302.61667109 -0.15540914 303.86534786 -0.16990185 C306.90227294 -0.12853425 309.65128906 -0.04612653 312.61221796 0.62789649 C315.67330265 3.78103013 316.61221796 5.25082866 316.61221796 9.62789649 C210.02221796 9.62789649 103.43221796 9.62789649 -6.38778204 9.62789649 C-4.26092339 1.12046191 -4.26092339 1.12046191 0 0 Z " fill="#FCFCFC" transform="translate(74.38778203725815,150.37210351228714)"/>
<path d="M0 0 C1.14160156 1.49365234 1.14160156 1.49365234 2.390625 3.5859375 C2.85025635 4.34777344 3.3098877 5.10960938 3.78344727 5.89453125 C4.50939087 7.12236328 4.50939087 7.12236328 5.25 8.375 C5.74363037 9.19613281 6.23726074 10.01726562 6.74584961 10.86328125 C8.17151355 13.2377467 9.58773236 15.61754777 11 18 C12.18674575 20.00044765 13.37404623 22.00056661 14.5625 24 C14.99691406 24.7425 15.43132812 25.485 15.87890625 26.25 C17.00935774 28.15200729 17.00935774 28.15200729 19 30 C19.99 29.34 20.98 28.68 22 28 C26.52672093 27.56193023 28.865757 27.3446596 32.8125 29.625 C37.32932428 34.52898065 38.50803406 39.2133321 38.375 45.75 C38.36412354 46.79909546 38.36412354 46.79909546 38.35302734 47.86938477 C38.20469065 53.46683766 37.51186262 58.91866323 35 64 C34.01 64.495 34.01 64.495 33 65 C32.67 64.67 32.34 64.34 32 64 C32.38671875 64.96035156 32.7734375 65.92070312 33.171875 66.91015625 C36.50511753 75.54764871 38.81498681 84.05413305 40.375 93.1875 C40.54225586 94.16662354 40.70951172 95.14574707 40.88183594 96.15454102 C41.63027167 100.81214511 42.20686822 105.26590045 42 110 C41.01 110 40.02 110 39 110 C38.67 108.68 38.34 107.36 38 106 C37.26885986 106.15146484 36.53771973 106.30292969 35.78442383 106.45898438 C32.4614732 107.14440061 29.13702696 107.82227274 25.8125 108.5 C24.08676758 108.85771484 24.08676758 108.85771484 22.32617188 109.22265625 C21.21435547 109.44824219 20.10253906 109.67382812 18.95703125 109.90625 C17.93585205 110.11572266 16.91467285 110.32519531 15.86254883 110.54101562 C13.18075268 110.97101791 10.70948135 111.08705161 8 111 C7.505 107.535 7.505 107.535 7 104 C9.31 103.67 11.62 103.34 14 103 C13.649375 102.154375 13.29875 101.30875 12.9375 100.4375 C11.83526247 96.39596239 11.89895783 94.03715464 13 90 C15.61823738 86.38067185 17.02047301 85.17809582 21.4375 84.375 C25.72193794 85.12665578 28.47856747 86.4716056 31 90 C32.03647873 92.96561855 32.60672587 95.88770986 33 99 C34.32 99 35.64 99 37 99 C35.37327791 92.28544497 33.65809786 85.63990563 31.55078125 79.05859375 C31 77 31 77 31 74 C30.19780029 74.27263672 29.39560059 74.54527344 28.5690918 74.82617188 C25.59032186 75.83614386 22.61021814 76.84204744 19.62915039 77.84521484 C18.33953841 78.28011228 17.05046971 78.71662422 15.76196289 79.15478516 C13.9091547 79.78452574 12.05421111 80.40797257 10.19921875 81.03125 C9.08377686 81.40830078 7.96833496 81.78535156 6.8190918 82.17382812 C4 83 4 83 1 83 C0.67 80.69 0.34 78.38 0 76 C2.79035046 74.99619084 5.58214855 73.9968055 8.375 73 C9.1690625 72.71382813 9.963125 72.42765625 10.78125 72.1328125 C11.54179687 71.86210937 12.30234375 71.59140625 13.0859375 71.3125 C13.7876709 71.06113281 14.4894043 70.80976563 15.21240234 70.55078125 C17 70 17 70 19 70 C18.01 66.37 17.02 62.74 16 59 C10.34934925 60.01711714 7.84837086 61.68723187 4.26171875 66.1484375 C2.97767512 68.03276158 1.96757257 69.93766223 1 72 C-0.32 71.34 -1.64 70.68 -3 70 C-2.72938696 63.50528697 -0.37853791 59.74163618 4 55 C8.22442142 51.44259249 11.69947553 51.73048181 17 52 C19.86034565 57.33931188 21.73130765 62.07943568 23 68 C25.475 67.505 25.475 67.505 28 67 C26.74349703 63.2242376 25.46737487 59.45539782 24.1875 55.6875 C23.83107422 54.61564453 23.47464844 53.54378906 23.10742188 52.43945312 C22.75615234 51.41142578 22.40488281 50.38339844 22.04296875 49.32421875 C21.72352295 48.37635498 21.40407715 47.42849121 21.07495117 46.4519043 C20.00908211 44.02071579 19.00326884 42.70390114 17 41 C16.29391602 41.37398926 15.58783203 41.74797852 14.86035156 42.13330078 C11.66532295 43.81381649 8.45809076 45.46956644 5.25 47.125 C4.13882812 47.71410156 3.02765625 48.30320313 1.8828125 48.91015625 C0.81289063 49.45800781 -0.25703125 50.00585938 -1.359375 50.5703125 C-2.83615723 51.34012451 -2.83615723 51.34012451 -4.34277344 52.12548828 C-7 53 -7 53 -9.29003906 52.40185547 C-11.35667859 50.70758874 -11.65245254 49.60660592 -12 47 C-11.19163696 46.57702637 -11.19163696 46.57702637 -10.36694336 46.14550781 C-7.88975519 44.84835042 -5.41362315 43.54918916 -2.9375 42.25 C-1.66616211 41.58484375 -1.66616211 41.58484375 -0.36914062 40.90625 C4.47740511 38.36134568 9.26617859 35.74908489 14 33 C13.01 31.02 12.02 29.04 11 27 C7.53395957 28.28821551 4.55069292 29.79429773 1.4609375 31.8203125 C0.63335937 32.35527344 -0.19421875 32.89023438 -1.046875 33.44140625 C-2.77467951 34.56971495 -4.50123111 35.69994444 -6.2265625 36.83203125 C-7.0515625 37.36441406 -7.8765625 37.89679688 -8.7265625 38.4453125 C-9.47502441 38.93531738 -10.22348633 39.42532227 -10.99462891 39.93017578 C-13 41 -13 41 -16 41 C-18 38 -18 38 -18 36.0625 C-16.4945809 32.9575731 -13.85476235 31.8183925 -11 30 C-12.07121094 29.65066406 -13.14242188 29.30132812 -14.24609375 28.94140625 C-15.64328104 28.48192855 -17.04041365 28.02228454 -18.4375 27.5625 C-19.14455078 27.33240234 -19.85160156 27.10230469 -20.58007812 26.86523438 C-25.88671875 25.11328125 -25.88671875 25.11328125 -27 24 C-27.04080783 22.00041636 -27.04254356 19.99954746 -27 18 C-25.37433394 18.47690204 -23.74948689 18.95659666 -22.125 19.4375 C-21.22007812 19.70433594 -20.31515625 19.97117187 -19.3828125 20.24609375 C-17 21 -17 21 -15 22 C-14.9071875 20.4221875 -14.9071875 20.4221875 -14.8125 18.8125 C-13.60570975 13.14986885 -10.28895242 10.80601989 -5.6875 7.6875 C-4.800625 7.130625 -3.91375 6.57375 -3 6 C-3.33 4.35 -3.66 2.7 -4 1 C-2 0 -2 0 0 0 Z M-4.125 15.1875 C-5.03507812 15.77917969 -5.94515625 16.37085938 -6.8828125 16.98046875 C-9.27834569 18.83228578 -9.27834569 18.83228578 -9.3046875 21.73828125 C-9.20414062 22.48464844 -9.10359375 23.23101562 -9 24 C-6.4968713 25.59057858 -6.4968713 25.59057858 -3 26 C0.27893064 24.35786888 3.1230389 22.2632094 6 20 C5.31911019 17.08014819 4.41898766 14.64877696 3 12 C-0.00751649 12 -1.64957635 13.53369132 -4.125 15.1875 Z M22 37 C22.59406657 40.80202602 23.78038434 44.21513002 25.16796875 47.796875 C26.56314176 51.49113593 27.77491985 55.24656296 29 59 C33.84812611 54.15187389 33.27961821 46.0735535 33.4609375 39.63671875 C33.24285449 36.87599968 33.24285449 36.87599968 31.1015625 35.14453125 C27.21157264 33.02600517 25.50749102 34.78474251 22 37 Z M18.4375 93.3125 C16.77506213 95.05070854 16.77506213 95.05070854 16 98 C17.485 98.99 17.485 98.99 19 100 C19.99 97.36 20.98 94.72 22 92 C19.91513438 91.78560264 19.91513438 91.78560264 18.4375 93.3125 Z M26 94 C24.5393715 96.64738916 24 97.89448334 24 101 C25.32 101 26.64 101 28 101 C28 99.02 28 97.04 28 95 C27.34 94.67 26.68 94.34 26 94 Z " fill="#FBFBFB" transform="translate(419,106)"/>
<path d="M0 0 C17.19338969 -0.02332856 34.38677447 -0.04097896 51.58017635 -0.05181217 C59.562815 -0.05697522 67.54544383 -0.06401809 75.52807617 -0.07543945 C82.48323799 -0.08538602 89.43839269 -0.09185336 96.39356142 -0.09408849 C100.07851927 -0.09539565 103.76345678 -0.09848179 107.44840813 -0.10573006 C111.55537708 -0.1137434 115.66231037 -0.11399116 119.76928711 -0.11352539 C120.99998932 -0.11712067 122.23069153 -0.12071594 123.49868774 -0.12442017 C124.61073074 -0.1230455 125.72277374 -0.12167084 126.86851501 -0.12025452 C127.84100661 -0.12117631 128.81349821 -0.1220981 129.81545925 -0.12304783 C132 0 132 0 133 1 C133 3.97 133 6.94 133 10 C89.11 10 45.22 10 0 10 C0 6.7 0 3.4 0 0 Z " fill="#FBFBFB" transform="translate(163,84)"/>
<path d="M0 0 C18.39257289 9.07838534 34.62465875 13.19177584 54.97949219 7.43579102 C60.51520386 5.50523899 65.76934338 3.04454204 71.01464844 0.43969727 C85.02048649 -6.46617995 98.26707348 -10.78032116 113.97558594 -7.00170898 C114.70813095 -6.82679932 115.44067596 -6.65188965 116.19541931 -6.47167969 C124.22734346 -4.42698428 131.56835314 -1.08661707 139.04199219 2.43579102 C155.64925892 10.24187792 172.23649389 16.62801408 190.71777344 11.62719727 C195.97455178 9.70705667 200.77273134 7.03060854 205.63183594 4.27563477 C208.38711158 2.76135842 211.03428935 1.51439471 213.97949219 0.43579102 C213.97949219 1.42579102 213.97949219 2.41579102 213.97949219 3.43579102 C204.82200022 12.52724338 189.23344448 17.4686289 176.60449219 17.74829102 C159.2732264 17.55032225 143.34061239 9.4389789 127.97949219 2.12329102 C114.0040209 -4.38680194 99.86174448 -6.53101535 84.97949219 -1.56420898 C80.1017992 0.47166718 75.46220756 2.99172021 70.80175781 5.4753418 C55.0230105 13.79173943 36.8933732 16.94431212 19.47558594 12.53344727 C11.07171144 9.89491237 3.17343214 5.99184346 -4.73535156 2.15454102 C-28.71613156 -9.5855276 -28.71613156 -9.5855276 -54.57495117 -6.81005859 C-59.6074348 -4.99040551 -64.60065351 -3.0735021 -69.59301758 -1.14746094 C-94.49392166 8.45095358 -122.17496724 17.77803323 -148.34472656 7.07641602 C-153.84182386 4.45295507 -158.59032654 1.6198511 -163.02050781 -2.56420898 C-162.69050781 -3.22420898 -162.36050781 -3.88420898 -162.02050781 -4.56420898 C-158.10390281 -3.11973631 -154.67959359 -1.23567795 -151.08300781 0.87329102 C-131.31425381 11.55910399 -109.18827992 7.74120577 -88.609375 1.62451172 C-82.94076107 -0.15162806 -77.4555026 -2.32047255 -71.95800781 -4.56420898 C-43.98501206 -15.96924334 -26.63739309 -13.20604445 0 0 Z " fill="#FBFBFB" transform="translate(203.0205078125,275.564208984375)"/>
<path d="M0 0 C9.63787661 3.89846694 14.02358733 12.43207486 18.01953125 21.484375 C19 24 19 24 19.36376953 26.00976562 C20.48944315 29.53105932 24.03597498 30.93349329 27.0625 32.75 C28.05733398 33.36681641 28.05733398 33.36681641 29.07226562 33.99609375 C30.70818186 35.00824336 32.35324932 36.00557507 34 37 C33.67 37.99 33.34 38.98 33 40 C30.83125748 39.49396008 29.00032373 39.00016187 27 38 C26.76023437 38.68191406 26.52046875 39.36382812 26.2734375 40.06640625 C24.73877774 43.60177276 22.7376905 46.73049105 20.625 49.9375 C20.23828125 50.53240234 19.8515625 51.12730469 19.453125 51.74023438 C16.99638249 55.51191122 14.50208519 59.25829727 12 63 C9.5625 62.25 9.5625 62.25 7 61 C6.16015625 59.2109375 6.16015625 59.2109375 6 57 C7.1796875 54.7109375 7.1796875 54.7109375 8.875 52.375 C9.42929687 51.59898438 9.98359375 50.82296875 10.5546875 50.0234375 C11.03164063 49.35570312 11.50859375 48.68796875 12 48 C12.495 47.01 12.495 47.01 13 46 C10.61435923 46.57584432 8.33317216 47.22227595 6 48 C4.62437146 46.71034824 3.29233607 45.37310707 2 44 C2 43.34 2 42.68 2 42 C3.98 41.505 3.98 41.505 6 41 C5.34 39.35 4.68 37.7 4 36 C1.02934491 36.34227572 1.02934491 36.34227572 -2 37 C-3.41000664 39.82001327 -3.24548451 41.87007255 -3 45 C-2.03567924 46.68756133 -1.03789581 48.35666496 0 50 C0 51.32 0 52.64 0 54 C-1.485 54.495 -1.485 54.495 -3 55 C-6.95007859 52.49507211 -8.57951947 50.3952088 -10 46 C-10.6237356 40.95209329 -10.72075741 36.50157794 -8.5 31.875 C-5.11568618 29.33676463 -2.1501334 28.49059734 2 29 C6.30536432 30.72214573 9.3015263 32.69036181 11.5 36.8125 C11.7475 37.8953125 11.7475 37.8953125 12 39 C13.98 39 15.96 39 18 39 C18.99 37.02 19.98 35.04 21 33 C20.28457031 32.73832031 19.56914062 32.47664063 18.83203125 32.20703125 C15.87869395 30.94829852 13.37420506 29.44105135 10.6875 27.6875 C9.72714844 27.06875 8.76679688 26.45 7.77734375 25.8125 C6.0976288 24.71631471 4.42190454 23.61393277 2.75390625 22.5 C-1.44100503 19.75245577 -5.10122911 18.12263499 -10 17 C-10.25197144 17.80812134 -10.25197144 17.80812134 -10.5090332 18.63256836 C-12.3806597 24.45798234 -14.6542636 29.99670936 -17.1875 35.5625 C-17.55552734 36.38041016 -17.92355469 37.19832031 -18.30273438 38.04101562 C-19.19795013 40.02909218 -20.0984165 42.01480308 -21 44 C-23.31 43.34 -25.62 42.68 -28 42 C-27.37143878 38.08165565 -26.16760882 34.85451551 -24.49609375 31.26171875 C-24.00302734 30.19501953 -23.50996094 29.12832031 -23.00195312 28.02929688 C-22.48568359 26.92650391 -21.96941406 25.82371094 -21.4375 24.6875 C-20.91736328 23.56537109 -20.39722656 22.44324219 -19.86132812 21.28710938 C-18.57900626 18.52247049 -17.29175153 15.76024234 -16 13 C-17.32 12.67 -18.64 12.34 -20 12 C-20 10.68 -20 9.36 -20 8 C-18.35 8.33 -16.7 8.66 -15 9 C-14.38125 7.6078125 -14.38125 7.6078125 -13.75 6.1875 C-10.49065692 0.2508394 -6.71234598 -1.2692436 0 0 Z M-6.3125 7.25 C-8.217116 9.75980683 -8.217116 9.75980683 -7.86328125 12.08203125 C-7.17816266 14.15538004 -7.17816266 14.15538004 -5.1796875 14.87109375 C-4.41914063 15.05800781 -3.65859375 15.24492188 -2.875 15.4375 C1.92696866 16.82046697 5.08779611 18.92017992 9 22 C9.66 21.67 10.32 21.34 11 21 C10.11973944 19.07613155 9.22006309 17.16114042 8.3125 15.25 C7.81363281 14.18265625 7.31476563 13.1153125 6.80078125 12.015625 C4.86159722 8.76822787 3.18643892 7.01660957 0 5 C-4.05992894 4.53509669 -4.05992894 4.53509669 -6.3125 7.25 Z " fill="#FCFCFC" transform="translate(338,21)"/>
<path d="M0 0 C1.04212395 0.32773659 1.04212395 0.32773659 2.1053009 0.66209412 C10.00754852 3.24920661 17.38622648 6.83627447 24.83203125 10.50390625 C43.05708331 19.63606559 43.05708331 19.63606559 63.01953125 22.44140625 C63.83276855 22.4249707 64.64600586 22.40853516 65.48388672 22.39160156 C79.78707415 21.86964887 91.14997176 16.58890527 103.72705078 10.18261719 C112.32913039 5.84563932 119.59161181 3.66659175 129.26953125 3.56640625 C131.11417969 3.52386719 131.11417969 3.52386719 132.99609375 3.48046875 C145.13882128 4.19334354 156.40132102 9.28416859 167.20703125 14.44140625 C184.1525414 22.50505318 199.9424639 28.21399409 218.6796875 23.0078125 C223.04395791 21.43805516 227.08197233 19.36798223 231.1484375 17.1484375 C233.64453125 15.94140625 233.64453125 15.94140625 236.64453125 15.94140625 C236.45703125 17.78125 236.45703125 17.78125 235.64453125 19.94140625 C233.45703125 21.3203125 233.45703125 21.3203125 230.64453125 22.50390625 C229.65066406 22.92285156 228.65679687 23.34179688 227.6328125 23.7734375 C210.12693407 30.61560436 193.58902281 30.45778602 176.22265625 23.140625 C172.42943408 21.4764115 168.67409708 19.73289533 164.91894531 17.98486328 C147.34558042 9.92254452 130.83208134 3.92610343 111.64453125 10.94140625 C108.25486294 12.47444872 104.95220515 14.17038821 101.65063477 15.88330078 C83.61961659 25.22984219 63.86296368 29.82134233 43.90844727 23.77734375 C34.63983088 20.57290911 25.8272115 15.86340448 17.12207031 11.37475586 C1.78562071 3.55700287 -11.43753269 -0.22570722 -28.3949585 5.26953125 C-35.29197393 7.63316706 -42.01478046 10.50435717 -48.74291992 13.30517578 C-69.89721774 22.07604434 -93.32722872 28.41142444 -115.60546875 19.69140625 C-120.76745144 17.37125978 -126.1658522 14.8136276 -130.35546875 10.94140625 C-130.35546875 9.95140625 -130.35546875 8.96140625 -130.35546875 7.94140625 C-125.61874589 9.72884884 -121.17722837 12.02486658 -116.703125 14.375 C-101.76142631 22.02646328 -82.92017995 20.54584961 -67.15234375 15.90625 C-57.93096271 12.9134927 -48.92379818 9.23807759 -39.95166016 5.57543945 C-14.8362934 -4.67533483 -14.8362934 -4.67533483 0 0 Z " fill="#FBFBFB" transform="translate(175.35546875,286.05859375)"/>
<path d="M0 0 C4.13570051 3.81190901 7.01051257 7.80060011 9.875 12.625 C10.29007812 13.29273438 10.70515625 13.96046875 11.1328125 14.6484375 C12.174022 16.38378666 13.09661821 18.18907337 14 20 C13.505 21.485 13.505 21.485 13 23 C10.9375 23.6875 10.9375 23.6875 9 24 C7.8745809 22.39612733 6.74968028 20.79189084 5.625 19.1875 C4.99851562 18.29417969 4.37203125 17.40085937 3.7265625 16.48046875 C2.46449761 14.66732122 1.22541192 12.83811789 0 11 C0.495 20.405 0.495 20.405 1 30 C-0.98 30.66 -2.96 31.32 -5 32 C-5.81984375 31.24074219 -6.6396875 30.48148437 -7.484375 29.69921875 C-8.57282716 28.69521546 -9.66137382 27.6913146 -10.75 26.6875 C-11.28882813 26.18798828 -11.82765625 25.68847656 -12.3828125 25.17382812 C-15.15603952 22.62043007 -17.92190229 20.18903551 -21 18 C-20.48308594 19.19238281 -19.96617187 20.38476562 -19.43359375 21.61328125 C-18.76772728 23.17947422 -18.1023901 24.74589229 -17.4375 26.3125 C-16.92413086 27.49102539 -16.92413086 27.49102539 -16.40039062 28.69335938 C-16.08134766 29.45068359 -15.76230469 30.20800781 -15.43359375 30.98828125 C-14.98584595 32.03302612 -14.98584595 32.03302612 -14.52905273 33.09887695 C-14 35 -14 35 -15 38 C-17.6640625 38.74609375 -17.6640625 38.74609375 -21 39 C-23.7734375 37.34765625 -23.7734375 37.34765625 -26.375 35.0625 C-27.24898438 34.31097656 -28.12296875 33.55945313 -29.0234375 32.78515625 C-29.67570312 32.19605469 -30.32796875 31.60695313 -31 31 C-30.77183594 31.60328125 -30.54367187 32.2065625 -30.30859375 32.828125 C-30.02113281 33.62734375 -29.73367188 34.4265625 -29.4375 35.25 C-29.14746094 36.03890625 -28.85742188 36.8278125 -28.55859375 37.640625 C-27.95477163 40.19103452 -28.1526068 41.55322229 -29 44 C-30.98 44.495 -30.98 44.495 -33 45 C-36.96 35.595 -36.96 35.595 -41 26 C-43.31 26.99 -45.62 27.98 -48 29 C-49.6642135 29.67276716 -51.32986582 30.34206835 -53 31 C-53 31.99 -53 32.98 -53 34 C-52.38511719 33.7834375 -51.77023437 33.566875 -51.13671875 33.34375 C-50.32847656 33.0653125 -49.52023437 32.786875 -48.6875 32.5 C-47.88699219 32.2215625 -47.08648437 31.943125 -46.26171875 31.65625 C-44 31 -44 31 -41 31 C-40.67 32.65 -40.34 34.3 -40 36 C-41.45706726 36.50367757 -42.91570096 37.00282556 -44.375 37.5 C-45.18710937 37.7784375 -45.99921875 38.056875 -46.8359375 38.34375 C-49 39 -49 39 -51 39 C-50.67 40.65 -50.34 42.3 -50 44 C-49.32453125 43.7834375 -48.6490625 43.566875 -47.953125 43.34375 C-47.06109375 43.0653125 -46.1690625 42.786875 -45.25 42.5 C-44.36828125 42.2215625 -43.4865625 41.943125 -42.578125 41.65625 C-40 41 -40 41 -36 41 C-36 42.65 -36 44.3 -36 46 C-38.60101286 46.86500888 -41.20506411 47.71726928 -43.8125 48.5625 C-44.55048828 48.80935547 -45.28847656 49.05621094 -46.04882812 49.31054688 C-51.66015625 51.11328125 -51.66015625 51.11328125 -55 50 C-55.90722656 48.00634766 -55.90722656 48.00634766 -56.640625 45.4140625 C-57.03894531 44.01800781 -57.03894531 44.01800781 -57.4453125 42.59375 C-57.71085937 41.6140625 -57.97640625 40.634375 -58.25 39.625 C-58.53101563 38.65304687 -58.81203125 37.68109375 -59.1015625 36.6796875 C-61.13295348 29.39886043 -61.13295348 29.39886043 -60 26 C-56.91061427 24.71511786 -53.77213829 23.90292451 -50.546875 23.015625 C-47.06228789 22.08914861 -47.06228789 22.08914861 -44.078125 20.796875 C-41.19471307 19.68017789 -39.10091408 18.99555106 -36 19 C-31.82694004 21.13081339 -28.44086912 23.8386599 -25 27 C-25.2165625 26.46890625 -25.433125 25.9378125 -25.65625 25.390625 C-25.9346875 24.68421875 -26.213125 23.9778125 -26.5 23.25 C-26.7784375 22.55390625 -27.056875 21.8578125 -27.34375 21.140625 C-28 19 -28 19 -28 15 C-26.75823305 14.29773859 -25.50614401 13.61370891 -24.25 12.9375 C-23.55390625 12.55464844 -22.8578125 12.17179687 -22.140625 11.77734375 C-19.49136685 10.81529563 -18.56961809 10.853555 -16 12 C-12.78864373 14.81259515 -9.95696261 17.91258315 -7 21 C-7.33 15.72 -7.66 10.44 -8 5 C-4.04 2.525 -4.04 2.525 0 0 Z " fill="#FBFBFB" transform="translate(339,421)"/>
<path d="M0 0 C1.32 0.33 2.64 0.66 4 1 C3.73445312 2.11117187 3.46890625 3.22234375 3.1953125 4.3671875 C2.83844922 5.86976971 2.48168368 7.37237514 2.125 8.875 C1.95097656 9.60203125 1.77695313 10.3290625 1.59765625 11.078125 C0.26747789 16.69443365 -0.89891672 22.33453382 -2 28 C-1.19256348 28.14622803 -0.38512695 28.29245605 0.44677734 28.44311523 C4.09010038 29.10475026 7.73255219 29.77106424 11.375 30.4375 C12.64601563 30.66759766 13.91703125 30.89769531 15.2265625 31.13476562 C17.04414062 31.46831055 17.04414062 31.46831055 18.8984375 31.80859375 C20.01911621 32.01282959 21.13979492 32.21706543 22.29443359 32.42749023 C25 33 25 33 27 34 C26.67 36.31 26.34 38.62 26 41 C23.36 40.67 20.72 40.34 18 40 C18.12375 41.546875 18.12375 41.546875 18.25 43.125 C17.95300706 47.72839055 17.12946069 49.62981157 14 53 C10.25 53.875 10.25 53.875 7 54 C6.94562393 55.58294782 6.90703729 57.16644256 6.875 58.75 C6.85179688 59.63171875 6.82859375 60.5134375 6.8046875 61.421875 C6.86359229 64.35780081 6.86359229 64.35780081 9 68 C12.63 65.36 16.26 62.72 20 60 C23 62 23 62 23.4921875 64.37890625 C23 67 23 67 20.9453125 69.02734375 C20.01460937 69.65769531 19.08390625 70.28804688 18.125 70.9375 C16.63033203 71.95650391 16.63033203 71.95650391 15.10546875 72.99609375 C2.70175439 81 2.70175439 81 0 81 C-0.33 78.69 -0.66 76.38 -1 74 C1.475 73.01 1.475 73.01 4 72 C4 71.34 4 70.68 4 70 C0.37 70 -3.26 70 -7 70 C-7 74.62 -7 79.24 -7 84 C-8.32 84 -9.64 84 -11 84 C-12.06458513 54.78123276 -8.79547794 28.02099165 0 0 Z M-4 36 C-4.70699231 39.18349309 -5.38698412 42.37219234 -6.0625 45.5625 C-6.26166016 46.45775391 -6.46082031 47.35300781 -6.66601562 48.27539062 C-7.77099305 53.56765091 -8.15527596 57.7031687 -7 63 C-3.7 63 -0.4 63 3 63 C3 59.37 3 55.74 3 52 C2.34 52 1.68 52 1 52 C-0.14077657 48.57767028 -0.09815117 45.91326783 -0.0625 42.3125 C-0.05347656 41.13300781 -0.04445313 39.95351562 -0.03515625 38.73828125 C-0.02355469 37.83464844 -0.01195312 36.93101562 0 36 C-1.32 36 -2.64 36 -4 36 Z M5 37 C3.23537317 40.08809695 3 41.23312136 3 45 C5.75924185 46.80411967 6.88972103 47.0127245 10.25 46.625 C11.1575 46.41875 12.065 46.2125 13 46 C13.83927091 43.65004146 14.06091226 42.26649114 13.5 39.8125 C11.99062773 37.60414056 11.99062773 37.60414056 8.375 37.25 C7.26125 37.1675 6.1475 37.085 5 37 Z " fill="#FBFBFB" transform="translate(11,168)"/>
<path d="M0 0 C1.32 0.66 2.64 1.32 4 2 C3.34 4.31 2.68 6.62 2 9 C2.99580078 8.83951172 2.99580078 8.83951172 4.01171875 8.67578125 C11.22447013 7.69653179 11.22447013 7.69653179 14.875 9.125 C18.59189379 12.40461217 21.76637122 15.67372491 22.2734375 20.72265625 C22.50044412 28.18768168 22.06487648 34.17539205 17 40 C13.15481688 42.50402046 10.4277296 41.85148646 6 41 C6.350625 41.639375 6.70125 42.27875 7.0625 42.9375 C8.36382914 47.18850853 8.17361837 50.72246989 7 55 C4.9375 58.125 4.9375 58.125 2 60 C-1.05037388 60.26880689 -2.94501993 59.80130625 -6 59 C-6.66 58.01 -7.32 57.02 -8 56 C-8.99 58.31 -9.98 60.62 -11 63 C-12.32 62.67 -13.64 62.34 -15 62 C-14.1913257 58.70738124 -13.37741268 55.41607984 -12.5625 52.125 C-12.33240234 51.18785156 -12.10230469 50.25070313 -11.86523438 49.28515625 C-11.64287109 48.38925781 -11.42050781 47.49335938 -11.19140625 46.5703125 C-10.98717041 45.74289551 -10.78293457 44.91547852 -10.57250977 44.06298828 C-10 42 -10 42 -9 40 C-7.68 40.33 -6.36 40.66 -5 41 C-4.95101563 41.62648437 -4.90203125 42.25296875 -4.8515625 42.8984375 C-4.77679688 43.71570313 -4.70203125 44.53296875 -4.625 45.375 C-4.55539063 46.18710938 -4.48578125 46.99921875 -4.4140625 47.8359375 C-4.17107412 50.20334191 -4.17107412 50.20334191 -2 52 C-0.68 52 0.64 52 2 52 C2.38760409 49.36429221 2.43980107 47.63115312 0.88671875 45.40234375 C-0.40001085 43.92713545 -1.69948974 42.46307404 -3 41 C-3 40.34 -3 39.68 -3 39 C-4.11375 38.525625 -5.2275 38.05125 -6.375 37.5625 C-8.26710994 36.74693537 -10.15712709 35.92143645 -12 35 C-12.33 36.32 -12.66 37.64 -13 39 C-14.32 38.67 -15.64 38.34 -17 38 C-15.5573122 33.40818629 -13.76675791 29.0438724 -11.77734375 24.66796875 C-11.47180069 23.99075272 -11.16625763 23.31353668 -10.85145569 22.61579895 C-10.20993252 21.19577611 -9.56696094 19.7764068 -8.92260742 18.35766602 C-7.93335655 16.17837209 -6.94977176 13.99658392 -5.96679688 11.81445312 C-5.34147917 10.43214083 -4.71583965 9.04997405 -4.08984375 7.66796875 C-3.79504623 7.0138652 -3.50024872 6.35976166 -3.19651794 5.68583679 C-1.11530988 1.11530988 -1.11530988 1.11530988 0 0 Z M7 15 C7.33 15.99 7.66 16.98 8 18 C10.31 18.33 12.62 18.66 15 19 C13.25065102 16.91666921 13.25065102 16.91666921 11 15 C9.68 15 8.36 15 7 15 Z M-3 16 C-4.65 19.63 -6.3 23.26 -8 27 C-7.01 28.32 -6.02 29.64 -5 31 C-1.84859577 30.65930765 -0.39218439 30.41923159 1.8125 28.0625 C3.16632148 26.1077807 3.16632148 26.1077807 3 24 C3.66 23.67 4.32 23.34 5 23 C4.34 22.34 3.68 21.68 3 21 C2.375 18.875 2.375 18.875 2 17 C0.35 16.67 -1.3 16.34 -3 16 Z M6 26 C5.58297878 28.9157691 5.58297878 28.9157691 6 32 C7.51894806 34.09764165 7.51894806 34.09764165 10 35 C13.19235272 34.77426109 13.19235272 34.77426109 16 34 C17.81301758 29.56906802 17.81301758 29.56906802 17 25 C15.35425434 24.97311849 13.70838587 24.95365877 12.0625 24.9375 C10.68771484 24.92009766 10.68771484 24.92009766 9.28515625 24.90234375 C7.03406673 24.74050951 7.03406673 24.74050951 6 26 Z M0 36 C-0.33 36.66 -0.66 37.32 -1 38 C0.32 37.67 1.64 37.34 3 37 C2.01 36.67 1.02 36.34 0 36 Z " fill="#FCFCFC" transform="translate(29,129)"/>
<path d="M0 0 C2.31 0 4.62 0 7 0 C7.98669759 1.89192475 8.9640602 3.78871978 9.9375 5.6875 C10.48277344 6.74324219 11.02804687 7.79898437 11.58984375 8.88671875 C12.8470576 11.66234047 13.56069569 14.00272126 14 17 C14.99 17 15.98 17 17 17 C16.67 18.32 16.34 19.64 16 21 C3.33029613 20.03644647 3.33029613 20.03644647 -2 19 C-2 20.65 -2 22.3 -2 24 C-0.783125 24.061875 0.43375 24.12375 1.6875 24.1875 C5.02976564 24.62086659 6.11539259 25.08173642 9 27.125 C11.55812966 30.80231139 11.69506579 32.59791667 11 37 C8.98995644 40.73293805 6.89280502 44.11257939 3 46 C0.25 45.1875 0.25 45.1875 -2 44 C-2 40.21313821 -0.52879328 39.28420369 1.88671875 36.5625 C3.45744794 34.3579678 3.38550953 32.62146478 3 30 C1.35 30 -0.3 30 -2 30 C-3.98363508 36.23428168 -5.00318287 42.54189755 -6 49 C-9.465 48.505 -9.465 48.505 -13 48 C-12.67 45.69 -12.34 43.38 -12 41 C-13.216875 40.9175 -14.43375 40.835 -15.6875 40.75 C-19.79506915 40.24747824 -22.03023215 38.96976785 -25 36 C-26.45147903 33.09704195 -26.37239025 31.22738221 -26 28 C-23.65231876 24.34037925 -22.19674979 22.37398431 -18 21.0625 C-15.13781651 21.00287118 -12.76069651 21.2692274 -10 22 C-9.67 20.68 -9.34 19.36 -9 18 C-10.20398438 17.86722656 -11.40796875 17.73445313 -12.6484375 17.59765625 C-14.22398085 17.4194698 -15.79950047 17.2410735 -17.375 17.0625 C-18.1690625 16.97548828 -18.963125 16.88847656 -19.78125 16.79882812 C-25.7734375 16.11328125 -25.7734375 16.11328125 -28 15 C-28 14.01 -28 13.02 -28 12 C-15.87230035 12.54025083 -3.99150344 14.15821873 8 16 C7.13375 14.51886719 7.13375 14.51886719 6.25 13.0078125 C5.499774 11.71367265 4.74978632 10.41939463 4 9.125 C3.6184375 8.47402344 3.236875 7.82304688 2.84375 7.15234375 C0 2.2265625 0 2.2265625 0 0 Z M-16 26 C-17.73666727 28.19832713 -17.73666727 28.19832713 -19 31 C-18.44525427 33.76309357 -18.44525427 33.76309357 -17 36 C-16.34 36.33 -15.68 36.66 -15 37 C-12.91738855 35.96287824 -12.91738855 35.96287824 -11 34 C-10.18685089 30.39534252 -10.18685089 30.39534252 -10 27 C-12.97 26.505 -12.97 26.505 -16 26 Z " fill="#FBFBFB" transform="translate(271,0)"/>
<path d="M0 0 C1.32 0 2.64 0 4 0 C4.67582558 14.67584006 5.15760221 29.30797153 5 44 C3.68 44 2.36 44 1 44 C1 41.69 1 39.38 1 37 C-1.97 37 -4.94 37 -8 37 C-8.33 31.72 -8.66 26.44 -9 21 C-12.96 21.495 -12.96 21.495 -17 22 C-17.66 24.31 -18.32 26.62 -19 29 C-17.7934375 29.309375 -17.7934375 29.309375 -16.5625 29.625 C-14 31 -14 31 -13.0625 34 C-13.041875 34.99 -13.02125 35.98 -13 37 C-15 39 -15 39 -17.375 39.25 C-20 39 -20 39 -21.8125 37.8125 C-25.03720119 36.61475384 -27.04869916 37.92744877 -30.09765625 39.2734375 C-32 40 -32 40 -35 40 C-35 37.69 -35 35.38 -35 33 C-34.01 32.505 -34.01 32.505 -33 32 C-33.05800781 31.03578125 -33.11601562 30.0715625 -33.17578125 29.078125 C-33.22089844 27.81484375 -33.26601563 26.5515625 -33.3125 25.25 C-33.37050781 23.99703125 -33.42851562 22.7440625 -33.48828125 21.453125 C-33 18 -33 18 -30.58203125 15.8359375 C-29.72996094 15.23007813 -28.87789063 14.62421875 -28 14 C-26.89696789 11.75183151 -26.89696789 11.75183151 -26.375 9.375 C-25.30841121 5.20560748 -25.30841121 5.20560748 -22 3 C-17.92509248 2.66042437 -16.46998729 2.68667514 -13 5 C-12.70703125 7.1640625 -12.70703125 7.1640625 -12.8125 9.625 C-12.83957031 10.44226563 -12.86664063 11.25953125 -12.89453125 12.1015625 C-12.92933594 12.72804687 -12.96414063 13.35453125 -13 14 C-10.69 14.33 -8.38 14.66 -6 15 C-5.66048381 16.56116819 -5.32867456 18.12401338 -5 19.6875 C-4.814375 20.55761719 -4.62875 21.42773438 -4.4375 22.32421875 C-4.01027953 24.93712964 -3.92383799 27.35813038 -4 30 C-2.35 30 -0.7 30 1 30 C0.89171875 28.7625 0.89171875 28.7625 0.78125 27.5 C0.04250353 18.3067106 -0.10772973 9.21687657 0 0 Z M-19 9 C-21.2477975 11.05233685 -22.0022242 12.00667261 -23 15 C-21.02 15.99 -21.02 15.99 -19 17 C-18.34 14.69 -17.68 12.38 -17 10 C-17.66 9.67 -18.32 9.34 -19 9 Z M-28 21 C-28.80967438 23.91482778 -29.21845993 25.46113217 -28.0625 28.3125 C-27.711875 28.869375 -27.36125 29.42625 -27 30 C-25.68 30 -24.36 30 -23 30 C-23 27.36 -23 24.72 -23 22 C-24.65 21.67 -26.3 21.34 -28 21 Z " fill="#FBFBFB" transform="translate(458,217)"/>
<path d="M0 0 C1.65 0.33 3.3 0.66 5 1 C4.67 3.64 4.34 6.28 4 9 C5.093125 9.103125 6.18625 9.20625 7.3125 9.3125 C12.68965184 9.9689566 17.81178648 11.483592 23 13 C22.34 14.98 21.68 16.96 21 19 C14.45150687 17.83795007 8.25461856 16.26616615 2 14 C1.67 15.65 1.34 17.3 1 19 C5.9422919 21.51449939 10.8817659 23.86740246 16 26 C15.67 27.98 15.34 29.96 15 32 C9.92523206 33.26305335 5.27203646 34.27036084 0 34 C0 34.66 0 35.32 0 36 C0.71027344 36.18175781 1.42054688 36.36351562 2.15234375 36.55078125 C3.53099609 36.92783203 3.53099609 36.92783203 4.9375 37.3125 C5.85402344 37.55613281 6.77054687 37.79976563 7.71484375 38.05078125 C8.46894531 38.36402344 9.22304688 38.67726563 10 39 C11 42 11 42 10 45 C4.6639238 44.37022386 0.11176207 42.65683533 -4.8125 40.625 C-5.58787109 40.32078125 -6.36324219 40.0165625 -7.16210938 39.703125 C-7.89880859 39.40148437 -8.63550781 39.09984375 -9.39453125 38.7890625 C-10.06331299 38.51787598 -10.73209473 38.24668945 -11.42114258 37.96728516 C-13 37 -13 37 -14 34 C-13.67 33.01 -13.34 32.02 -13 31 C-8.38211328 29.5911532 -3.77577488 28.71636623 1 28 C-1.09782787 25.90217213 -2.3799207 25.3490604 -5.125 24.375 C-5.84945313 24.11460937 -6.57390625 23.85421875 -7.3203125 23.5859375 C-7.87460937 23.39257812 -8.42890625 23.19921875 -9 23 C-8.34 21.02 -7.68 19.04 -7 17 C-6.34 17 -5.68 17 -5 17 C-3.35 11.39 -1.7 5.78 0 0 Z " fill="#FCFCFC" transform="translate(428,300)"/>
<path d="M0 0 C3.34807268 0.45514662 5.06264471 1.66957783 7.4609375 3.984375 C8.09773438 4.59023437 8.73453125 5.19609375 9.390625 5.8203125 C10.04546875 6.45710938 10.7003125 7.09390625 11.375 7.75 C12.67302355 8.99630946 13.97248359 10.24112469 15.2734375 11.484375 C16.20881348 12.37866211 16.20881348 12.37866211 17.16308594 13.29101562 C19.68943513 15.64142024 22.32055591 17.82658095 25 20 C24.505 21.485 24.505 21.485 24 23 C22.88431641 22.61521484 22.88431641 22.61521484 21.74609375 22.22265625 C20.83988281 22.14917969 19.93367188 22.07570313 19 22 C16.69645501 24.1260078 15.02794732 26.48397229 13.16015625 28.99609375 C11 31 11 31 7.93359375 31.41015625 C5 31 5 31 2 29 C2 27.68 2 26.36 2 25 C3.0828125 24.6596875 3.0828125 24.6596875 4.1875 24.3125 C7.61649245 22.71230352 9.62335744 20.93585257 12 18 C12.25695267 15.77713532 12.25695267 15.77713532 11 14 C9.68763053 13.29295785 8.35502419 12.62139493 7 12 C3.20346642 14.46733145 0.97946503 16.90940829 -1 21 C-1.44367693 26.03051344 -1.00039959 30.99907003 -0.49829102 36.01196289 C-0.40217529 36.99543701 -0.30605957 37.97891113 -0.20703125 38.9921875 C-0.0985083 39.88276855 0.01001465 40.77334961 0.12182617 41.69091797 C0 44 0 44 -1.33081055 45.82470703 C-3 47 -3 47 -5.5 46.8125 C-8 46 -8 46 -11 44 C-11.1875 41.375 -11.1875 41.375 -11 39 C-9.68 39.33 -8.36 39.66 -7 40 C-7.11613647 39.03344482 -7.11613647 39.03344482 -7.23461914 38.04736328 C-9.40502908 18.35322927 -9.40502908 18.35322927 -6.0625 13.24609375 C-3.83451743 10.85449371 -1.68946701 8.85064689 1 7 C0.34 5.02 -0.32 3.04 -1 1 C-0.67 0.67 -0.34 0.34 0 0 Z " fill="#FCFCFC" transform="translate(372,60)"/>
<path d="M0 0 C3.27957731 0.62054747 5.41036005 1.78018337 8.109375 3.72265625 C9.24052734 4.52993164 9.24052734 4.52993164 10.39453125 5.35351562 C11.56048828 6.19946289 11.56048828 6.19946289 12.75 7.0625 C13.93916016 7.91424805 13.93916016 7.91424805 15.15234375 8.78320312 C17.10555025 10.18339333 19.05451502 11.58911094 21 13 C20.42655063 15.86724686 20.1385485 16.8614515 18 19 C15.36 17.35 12.72 15.7 10 14 C11.98 16.31 13.96 18.62 16 21 C15.01 23.475 15.01 23.475 14 26 C13.05125 25.835 12.1025 25.67 11.125 25.5 C8.19831099 24.9473365 8.19831099 24.9473365 6 25 C7.32 25.99 8.64 26.98 10 28 C9.625 30.4375 9.625 30.4375 9 33 C8.01 33.495 8.01 33.495 7 34 C-6.6332574 24.58997722 -6.6332574 24.58997722 -13 20 C-11.79618552 17.50638429 -10.54571278 15.31856917 -9 13 C-4.51474352 13.656379 -0.33085971 14.70074209 4 16 C1.36 13.03 -1.28 10.06 -4 7 C-2.68 4.69 -1.36 2.38 0 0 Z " fill="#FCFCFC" transform="translate(404,356)"/>
<path d="M0 0 C1.875 1.125 1.875 1.125 3 3 C4.31506849 8.36986301 4.31506849 8.36986301 3 11 C7.95 12.98 7.95 12.98 13 15 C13 15.99 13 16.98 13 18 C10 20 10 20 7.375 19.75 C6.26125 19.5025 5.1475 19.255 4 19 C3.21109375 18.82855469 2.4221875 18.65710938 1.609375 18.48046875 C-0.59651093 17.99836475 -2.79898176 17.50378862 -5 17 C-4.62746094 17.54269531 -4.25492187 18.08539063 -3.87109375 18.64453125 C-3.39800781 19.35996094 -2.92492187 20.07539063 -2.4375 20.8125 C-1.96183594 21.52019531 -1.48617188 22.22789062 -0.99609375 22.95703125 C0 25 0 25 -1 28 C-3.0625 28.6875 -3.0625 28.6875 -5 29 C-19 11.97969543 -19 11.97969543 -19 8 C-16.62109375 6.0546875 -16.62109375 6.0546875 -13.4375 3.875 C-12.40496094 3.15054687 -11.37242187 2.42609375 -10.30859375 1.6796875 C-6.53254623 -0.23731419 -4.1794389 -0.40626381 0 0 Z M-11 9 C-10.34 10.32 -9.68 11.64 -9 13 C-5.73045798 12.43628586 -4.17424117 11.50037734 -2 9 C-2.33 8.01 -2.66 7.02 -3 6 C-6.57575896 6 -8.05295935 7.08840607 -11 9 Z " fill="#FBFBFB" transform="translate(361,411)"/>
<path d="M0 0 C1.859375 2.51171875 1.859375 2.51171875 3.75 5.6875 C4.38421875 6.72261719 5.0184375 7.75773437 5.671875 8.82421875 C7.20112194 12.48091805 7.06950382 14.23513048 6 18 C4.875 19.875 4.875 19.875 3 21 C-3.13846154 21.43076923 -3.13846154 21.43076923 -6 20 C-6.103125 20.70125 -6.20625 21.4025 -6.3125 22.125 C-7.09359003 25.39137647 -8.42058743 28.0471852 -10 31 C-12.0625 29.375 -12.0625 29.375 -14 27 C-13.86848091 23.84354192 -13.35175149 21.66441947 -11.875 18.875 C-10.77415906 16.51605512 -11.14287304 15.39995548 -12 13 C-13.98 14.32 -15.96 15.64 -18 17 C-19.9375 16.1875 -19.9375 16.1875 -22 15 C-22.33 14.01 -22.66 13.02 -23 12 C-17.9429329 8.36321557 -12.83998809 4.81106028 -7.5625 1.5 C-6.75941406 0.9946875 -5.95632812 0.489375 -5.12890625 -0.03125 C-3 -1 -3 -1 0 0 Z M-5.625 8.5 C-6.07875 8.995 -6.5325 9.49 -7 10 C-5.68 11.65 -4.36 13.3 -3 15 C-1.68 14.67 -0.36 14.34 1 14 C-0.39759905 10.45481116 -0.39759905 10.45481116 -2 7 C-4.12364481 6.77390663 -4.12364481 6.77390663 -5.625 8.5 Z " fill="#FCFCFC" transform="translate(55,356)"/>
<path d="M0 0 C0.99 8.25 1.98 16.5 3 25 C0.69 25.33 -1.62 25.66 -4 26 C-6.43359375 23.91015625 -6.43359375 23.91015625 -8.4375 21.0625 C-9.45650391 19.65677734 -9.45650391 19.65677734 -10.49609375 18.22265625 C-10.99238281 17.48917969 -11.48867188 16.75570313 -12 16 C-12 19.63 -12 23.26 -12 27 C-13.65 27.33 -15.3 27.66 -17 28 C-19.65583872 25.34416128 -19.18251474 18.59724127 -19.625 15 C-19.77195313 13.86820312 -19.91890625 12.73640625 -20.0703125 11.5703125 C-20.204375 10.49523437 -20.3384375 9.42015625 -20.4765625 8.3125 C-20.663396 6.82169922 -20.663396 6.82169922 -20.85400391 5.30078125 C-20.90218262 4.54152344 -20.95036133 3.78226562 -21 3 C-20 2 -20 2 -17.73828125 1.625 C-13.83092704 2.16010129 -12.67959249 4.02436718 -10.1875 7 C-9.39730469 7.928125 -8.60710937 8.85625 -7.79296875 9.8125 C-7.20128906 10.534375 -6.60960937 11.25625 -6 12 C-6 8.37 -6 4.74 -6 1 C-4 0 -4 0 0 0 Z " fill="#FBFBFB" transform="translate(269,450)"/>
<path d="M0 0 C7.15419168 5.09586279 13.78780419 10.78780419 20 17 C18.98046875 19.015625 18.98046875 19.015625 17 21 C14.26114576 21.13170447 11.99866511 21.06601942 9.3125 20.75 C8.61060547 20.68425781 7.90871094 20.61851562 7.18554688 20.55078125 C5.45513836 20.38598044 3.72721476 20.19545358 2 20 C4.64 22.31 7.28 24.62 10 27 C9.34 28.32 8.68 29.64 8 31 C3.69124151 31 3.46033556 30.95956017 0.6171875 28.19140625 C0.00746094 27.60939453 -0.60226562 27.02738281 -1.23046875 26.42773438 C-1.85566406 25.81220703 -2.48085938 25.19667969 -3.125 24.5625 C-4.37586683 23.35366841 -5.62839485 22.14655272 -6.8828125 20.94140625 C-7.43340332 20.40201416 -7.98399414 19.86262207 -8.55126953 19.30688477 C-9.98586974 17.89579821 -9.98586974 17.89579821 -12 17 C-11.75 15.125 -11.75 15.125 -11 13 C-8.38143653 11.08643439 -7.04106515 10.99692507 -3.765625 11.2421875 C-2.60546875 11.45101563 -1.4453125 11.65984375 -0.25 11.875 C1.50570313 12.18050781 1.50570313 12.18050781 3.296875 12.4921875 C4.18890625 12.65976562 5.0809375 12.82734375 6 13 C3.36 10.69 0.72 8.38 -2 6 C-1 2 -1 2 0 0 Z " fill="#FBFBFB" transform="translate(389,376)"/>
<path d="M0 0 C4.05800112 0.24402234 6.82690192 2.91580968 9.9375 5.3125 C10.95714844 6.09238281 11.97679688 6.87226563 13.02734375 7.67578125 C15.70013212 9.76554351 18.35689798 11.87286265 21 14 C20.34 15.65 19.68 17.3 19 19 C16.69 17.68 14.38 16.36 12 15 C11.75507812 15.53109375 11.51015625 16.0621875 11.2578125 16.609375 C9.66419057 19.6382465 7.78740366 22.41223973 5.875 25.25 C5.15054688 26.32765625 4.42609375 27.4053125 3.6796875 28.515625 C3.12539062 29.33546875 2.57109375 30.1553125 2 31 C-0.38548124 30.07658791 -1.71075282 29.49348661 -3.0234375 27.25390625 C-2.98653189 23.70481691 -0.78746489 21.56013227 1.375 18.9375 C4.7569736 14.81251315 4.7569736 14.81251315 7 10 C5.35 9.34 3.7 8.68 2 8 C0.56041153 9.58143471 -0.87658645 11.16522779 -2.3125 12.75 C-3.11300781 13.63171875 -3.91351563 14.5134375 -4.73828125 15.421875 C-6.60916911 17.55449328 -8.34084286 19.70187943 -10 22 C-11.32 21.34 -12.64 20.68 -14 20 C-14 15.80959743 -13.99439043 15.49317775 -11.4453125 12.6171875 C-10.91292969 12.00746094 -10.38054687 11.39773438 -9.83203125 10.76953125 C-9.26871094 10.14433594 -8.70539063 9.51914062 -8.125 8.875 C-7.56941406 8.24207031 -7.01382813 7.60914063 -6.44140625 6.95703125 C-4.34497366 4.57770655 -2.24277851 2.24277851 0 0 Z " fill="#FCFCFC" transform="translate(93,404)"/>
<path d="M0 0 C0.3125 2.16796875 0.3125 2.16796875 0 5 C-2.1875 7.67578125 -2.1875 7.67578125 -5 10.3125 C-6.3921875 11.63701172 -6.3921875 11.63701172 -7.8125 12.98828125 C-8.534375 13.65214844 -9.25625 14.31601562 -10 15 C-9.14535156 14.84402344 -8.29070313 14.68804687 -7.41015625 14.52734375 C-5.75306641 14.23537109 -5.75306641 14.23537109 -4.0625 13.9375 C-2.40927734 13.64166016 -2.40927734 13.64166016 -0.72265625 13.33984375 C0.62505859 13.17162109 0.62505859 13.17162109 2 13 C3 14 3 14 3.0625 16.5625 C3.041875 17.366875 3.02125 18.17125 3 19 C-0.41299009 19.8693381 -3.83083808 20.71779224 -7.25 21.5625 C-8.21808594 21.80935547 -9.18617187 22.05621094 -10.18359375 22.31054688 C-11.58544922 22.65375977 -11.58544922 22.65375977 -13.015625 23.00390625 C-14.30388184 23.32597046 -14.30388184 23.32597046 -15.61816406 23.65454102 C-18.09236484 24.0133965 -19.64810343 23.78317203 -22 23 C-22.3125 20.3046875 -22.3125 20.3046875 -22 17 C-19.01363087 13.51234748 -15.56043284 10.93735709 -12 8 C-16.29 8.66 -20.58 9.32 -25 10 C-25 8.02 -25 6.04 -25 4 C-21.77531199 3.128281 -18.54472911 2.28078746 -15.3125 1.4375 C-14.40048828 1.19064453 -13.48847656 0.94378906 -12.54882812 0.68945312 C-11.66259766 0.46064453 -10.77636719 0.23183594 -9.86328125 -0.00390625 C-9.05157471 -0.21861572 -8.23986816 -0.4333252 -7.40356445 -0.65454102 C-4.68522803 -1.04524148 -2.64496343 -0.67719297 0 0 Z " fill="#FBFBFB" transform="translate(28,289)"/>
<path d="M0 0 C3.6844058 1.79920714 6.20166322 4.07924913 7.7890625 7.8984375 C8.73935538 12.6126355 7.6002184 16.13295597 5.2265625 20.234375 C3.38328618 22.88775366 1.85341187 24.44359352 -1 26 C-5.85234374 26.61617063 -7.95496392 26.53237687 -12.3125 24.3125 C-15.14126219 21.87844881 -16.68136405 20.49050691 -18 17 C-18.26767297 10.9773581 -16.8936838 6.69532459 -13 2 C-8.72373273 -0.85084485 -5.01476425 -0.84970287 0 0 Z M-8.625 7.125 C-11.25320959 10.30651687 -12 11.89889991 -12 16 C-11.09764165 18.48105194 -11.09764165 18.48105194 -9 20 C-6.04308291 20.75015195 -6.04308291 20.75015195 -3 20 C-0.52619771 17.65991675 0.73676373 15.61937946 2.0625 12.5 C2.2453683 9.72535827 2.2453683 9.72535827 -0.25 7.1875 C-3.91883756 4.26910648 -4.97032422 4.16645294 -8.625 7.125 Z " fill="#FBFBFB" transform="translate(130,427)"/>
<path d="M0 0 C3.58210348 2.36950886 7.05546938 5.11093875 9 9 C9.52137294 13.82911 9.73402673 17.74166846 7.25 22 C3.25874503 25.5477822 0.52037032 26.46984275 -4.97265625 26.31640625 C-9.33281289 25.63591938 -12.04956498 23.07715969 -14.875 19.875 C-16.55879272 15.57197417 -16.68204524 11.55696161 -16 7 C-12.43799518 0.89370602 -7.05685913 -1.7165333 0 0 Z M-9.9375 7.6875 C-11.16960944 9.94499845 -11.16960944 9.94499845 -11 12.4375 C-9.61210174 15.99398929 -8.0709736 17.73014995 -5 20 C-0.64143678 20.04705831 -0.64143678 20.04705831 3 18 C3.50243747 13.6455419 3.48168936 11.66586471 0.875 8.0625 C-1.84960966 5.795993 -1.84960966 5.795993 -5.125 5.4375 C-8.05207532 5.76154985 -8.05207532 5.76154985 -9.9375 7.6875 Z " fill="#FBFBFB" transform="translate(380,396)"/>
<path d="M0 0 C2.475 0.99 2.475 0.99 5 2 C3.77472971 6.05281712 2.30119506 9.44360764 0 13 C0.99 13.33 1.98 13.66 3 14 C4.65 11.36 6.3 8.72 8 6 C10.475 6.495 10.475 6.495 13 7 C11.94124926 10.40312738 10.99097846 13.01353231 9 16 C9 16.99 9 17.98 9 19 C9.99 19.33 10.98 19.66 12 20 C13.98 16.7 15.96 13.4 18 10 C19.32 10.33 20.64 10.66 22 11 C22.33 11.66 22.66 12.32 23 13 C22.28735352 14.69580078 22.28735352 14.69580078 21.12890625 16.6953125 C20.71962891 17.41074219 20.31035156 18.12617188 19.88867188 18.86328125 C19.2322168 19.98283203 19.2322168 19.98283203 18.5625 21.125 C18.12873047 21.87910156 17.69496094 22.63320313 17.24804688 23.41015625 C16.17251034 25.27757134 15.08715861 27.13932697 14 29 C9.02642312 27.2657267 4.68501047 24.56672043 0.1875 21.875 C-0.60076172 21.40707031 -1.38902344 20.93914062 -2.20117188 20.45703125 C-4.13602454 19.30784603 -6.06887228 18.15542997 -8 17 C-7.41734728 12.57676318 -5.73233789 9.4844136 -3.4375 5.6875 C-2.79683594 4.61886719 -2.15617187 3.55023438 -1.49609375 2.44921875 C-1.00238281 1.64097656 -0.50867188 0.83273437 0 0 Z " fill="#FBFBFB" transform="translate(414,338)"/>
<path d="M0 0 C6.27 0.33 12.54 0.66 19 1 C19 2.98 19 4.96 19 7 C14.71 6.67 10.42 6.34 6 6 C6 7.32 6 8.64 6 10 C9.96 10.33 13.92 10.66 18 11 C17.67 12.65 17.34 14.3 17 16 C15.56260487 16.02712066 14.12506137 16.04645067 12.6875 16.0625 C11.48673828 16.07990234 11.48673828 16.07990234 10.26171875 16.09765625 C8 16 8 16 5 15 C5 16.98 5 18.96 5 21 C5.85464844 20.98839844 6.70929688 20.97679687 7.58984375 20.96484375 C8.69457031 20.95582031 9.79929688 20.94679688 10.9375 20.9375 C12.03964844 20.92589844 13.14179688 20.91429687 14.27734375 20.90234375 C17 21 17 21 18 22 C18.04063832 23.66617115 18.042721 25.33388095 18 27 C15.02046641 26.85982174 12.04150696 26.71313658 9.0625 26.5625 C8.21236328 26.52318359 7.36222656 26.48386719 6.48632812 26.44335938 C5.67744141 26.40146484 4.86855469 26.35957031 4.03515625 26.31640625 C2.91185913 26.26141968 2.91185913 26.26141968 1.76586914 26.20532227 C0 26 0 26 -1 25 C-1.48917809 16.65519732 -0.72241288 8.30774809 0 0 Z " fill="#FBFBFB" transform="translate(206,452)"/>
<path d="M0 0 C3.37021602 2.0970233 5.89129539 4.11953387 7 8 C6.625 11.75 6.625 11.75 6 15 C4.68 15.33 3.36 15.66 2 16 C1.00214992 13.60515982 0.07237956 11.36189782 -0.4375 8.8125 C-0.91493926 6.60152755 -0.91493926 6.60152755 -4 5 C-3.69964844 5.72445313 -3.39929687 6.44890625 -3.08984375 7.1953125 C0.88235294 17.29411765 0.88235294 17.29411765 -1 22 C-3.2932281 24.54803123 -4.58235957 24.95649579 -8 25.3125 C-12.69161938 24.82378965 -14.23404194 23.93617096 -17.25 20.25 C-19.16571277 16.69224771 -19.68925405 14.96321077 -19 11 C-17 8.625 -17 8.625 -15 7 C-13.5 8.125 -13.5 8.125 -12 10 C-11.875 13.0625 -11.875 13.0625 -12 16 C-11.67 16.66 -11.34 17.32 -11 18 C-8.97536745 18.65213292 -8.97536745 18.65213292 -7 19 C-7.2165625 18.43152344 -7.433125 17.86304688 -7.65625 17.27734375 C-9.41645426 12.39603657 -10.63140947 8.26174562 -10 3 C-7.7736336 -1.05984462 -4.20623109 -0.50764858 0 0 Z " fill="#FCFCFC" transform="translate(67,375)"/>
<path d="M0 0 C0.33 1.65 0.66 3.3 1 5 C-3.95 7.64 -8.9 10.28 -14 13 C-14 14.65 -14 16.3 -14 18 C-10.07871478 19.3058334 -8.02168909 18.38030356 -4.31640625 16.59960938 C-3.29353516 16.08624023 -3.29353516 16.08624023 -2.25 15.5625 C-1.55261719 15.22412109 -0.85523437 14.88574219 -0.13671875 14.53710938 C1.58068121 13.70193542 3.29105738 12.85234576 5 12 C8 15.75 8 15.75 8 18 C5.48743702 19.35129438 2.96682058 20.68074204 0.4375 22 C-0.26697266 22.3815625 -0.97144531 22.763125 -1.69726562 23.15625 C-6.27061678 25.51668931 -9.73130713 26.71816136 -15 26 C-17.78989646 24.01079132 -19.47208557 21.05582887 -21 18 C-21.45272634 14.00091732 -21.55215567 11.80851365 -19.25 8.4375 C-14.06329802 3.95331961 -6.84847911 0 0 0 Z " fill="#FBFBFB" transform="translate(44,336)"/>
<path d="M0 0 C2.0625 0.4375 2.0625 0.4375 4 1 C4.76953125 2.71484375 4.76953125 2.71484375 5 5 C3.19921875 7.25390625 3.19921875 7.25390625 0.6875 9.5625 C-1.93342347 12.00238637 -4.00614453 14.00921679 -6 17 C-5.69159401 19.15274948 -5.69159401 19.15274948 -5 21 C-1.85249399 21.32843541 -0.45973238 21.35271833 2.09765625 19.390625 C2.74605469 18.68421875 3.39445312 17.9778125 4.0625 17.25 C4.71347656 16.55390625 5.36445312 15.8578125 6.03515625 15.140625 C6.68355469 14.43421875 7.33195312 13.7278125 8 13 C9.32754889 11.66090721 10.65922221 10.32584708 12 9 C13.32 10.65 14.64 12.3 16 14 C14.23304141 15.96195402 12.46168211 17.91959627 10.6875 19.875 C10.18798828 20.43058594 9.68847656 20.98617188 9.17382812 21.55859375 C3.44135881 27.86051366 3.44135881 27.86051366 -1.875 28.375 C-5.05440343 28.29317712 -6.03293521 27.97995248 -8.875 26.25 C-12.06013506 22.87750405 -13 21.40054987 -13 16.6875 C-11.70968088 11.92944823 -9.41494184 9.43950976 -6 6 C-5.27103516 5.24976563 -5.27103516 5.24976563 -4.52734375 4.484375 C-3.36718855 3.30730792 -2.18545408 2.15158396 -1 1 C-0.67 0.67 -0.34 0.34 0 0 Z " fill="#FCFCFC" transform="translate(76,388)"/>
<path d="M0 0 C1.98 0 3.96 0 6 0 C14.6309795 16.70842825 14.6309795 16.70842825 17 25 C14.69 25 12.38 25 10 25 C9.505 22.525 9.505 22.525 9 20 C6.03 20.33 3.06 20.66 0 21 C-0.99 23.475 -0.99 23.475 -2 26 C-3.98 26 -5.96 26 -8 26 C-7.32058766 20.23934889 -5.39116805 15.04884675 -3.4375 9.625 C-3.10814453 8.69816406 -2.77878906 7.77132813 -2.43945312 6.81640625 C-1.6307437 4.54264353 -0.81748642 2.2706187 0 0 Z M3 9 C2.67 10.98 2.34 12.96 2 15 C3.32 15 4.64 15 6 15 C5.34 13.02 4.68 11.04 4 9 C3.67 9 3.34 9 3 9 Z " fill="#FBFBFB" transform="translate(233,453)"/>
<path d="M0 0 C3.24888779 1.79298443 3.86174621 4.99534501 5.07421875 8.33203125 C6.01145224 11.89667773 5.84512219 14.46296542 4.76953125 17.9765625 C3.04687027 20.84766414 1.66196073 21.00843525 -1.60546875 21.9765625 C-5.23046875 21.9765625 -5.23046875 21.9765625 -8.10546875 19.8515625 C-10.18985578 17.03150946 -10.93519949 15.42137055 -11.23046875 11.9765625 C-12.13796875 12.3065625 -13.04546875 12.6365625 -13.98046875 12.9765625 C-17.23046875 13.9765625 -17.23046875 13.9765625 -21.23046875 13.9765625 C-21.56046875 11.9965625 -21.89046875 10.0165625 -22.23046875 7.9765625 C-21.28945313 7.65042969 -20.3484375 7.32429688 -19.37890625 6.98828125 C-18.13367188 6.55128906 -16.8884375 6.11429687 -15.60546875 5.6640625 C-14.37570313 5.23480469 -13.1459375 4.80554688 -11.87890625 4.36328125 C-8.23485344 3.06919052 -8.23485344 3.06919052 -5.01953125 1.24609375 C-2.23046875 -0.0234375 -2.23046875 -0.0234375 0 0 Z M-5.23046875 7.9765625 C-5.89046875 8.6365625 -6.55046875 9.2965625 -7.23046875 9.9765625 C-6.24046875 11.6265625 -5.25046875 13.2765625 -4.23046875 14.9765625 C-2.91046875 14.6465625 -1.59046875 14.3165625 -0.23046875 13.9765625 C-0.56046875 11.9965625 -0.89046875 10.0165625 -1.23046875 7.9765625 C-2.55046875 7.9765625 -3.87046875 7.9765625 -5.23046875 7.9765625 Z " fill="#FBFBFB" transform="translate(34.23046875,317.0234375)"/>
<path d="M0 0 C3.2437025 2.43277687 4.68700289 3.91654848 5.8125 7.8125 C5.874375 8.534375 5.93625 9.25625 6 10 C3.69 10 1.38 10 -1 10 C-1.33 8.68 -1.66 7.36 -2 6 C-3.78141747 5.13641377 -3.78141747 5.13641377 -6 5 C-9.22516075 7.2115388 -9.93731064 8.76178042 -10.9375 12.5625 C-11.34873655 15.941838 -11.34873655 15.941838 -9.5625 17.9375 C-8.7890625 18.4634375 -8.7890625 18.4634375 -8 19 C-7.2575 18.67 -6.515 18.34 -5.75 18 C-3 17 -3 17 1 17 C1.66 17.33 2.32 17.66 3 18 C2.64978759 20.53903996 2.15988127 21.82093298 0.4375 23.75 C-3.02521148 25.52574948 -6.22927129 25.54082165 -10 25 C-13.42945937 23.62821625 -14.72964835 22.37849231 -16.875 19.375 C-18.35719446 14.92841661 -18.19352959 11.5079935 -17 7 C-12.93782244 -0.70412986 -8.18585231 -2.26168825 0 0 Z " fill="#FCFCFC" transform="translate(180,447)"/>
<path d="M0 0 C3.98772432 0.57217713 7.56083679 1.40621532 11.3125 2.875 C12.17488281 3.20242188 13.03726563 3.52984375 13.92578125 3.8671875 C16 5 16 5 17 8 C16.67 8.99 16.34 9.98 16 11 C14.37433394 10.52309796 12.74948689 10.04340334 11.125 9.5625 C10.22007812 9.29566406 9.31515625 9.02882813 8.3828125 8.75390625 C6 8 6 8 4 7 C4 8.32 4 9.64 4 11 C6.64 11.99 9.28 12.98 12 14 C11.67 15.65 11.34 17.3 11 19 C7.60694964 18.46019653 4.33796756 17.83449189 1 17 C-0.32 19.64 -1.64 22.28 -3 25 C-4.65 24.67 -6.3 24.34 -8 24 C-7.3661521 18.482845 -5.49435691 13.73252191 -3.4375 8.625 C-2.9434668 7.37783203 -2.9434668 7.37783203 -2.43945312 6.10546875 C-1.63155238 4.06815382 -0.8182989 2.03315558 0 0 Z " fill="#FBFBFB" transform="translate(141,435)"/>
<path d="M0 0 C2.97 0.495 2.97 0.495 6 1 C5.52476432 3.95901459 5.04499898 6.91716903 4.5625 9.875 C4.42779297 10.71675781 4.29308594 11.55851562 4.15429688 12.42578125 C4.02216797 13.23144531 3.89003906 14.03710938 3.75390625 14.8671875 C3.63345947 15.61081543 3.5130127 16.35444336 3.38891602 17.12060547 C3 19 3 19 2 21 C5.63 21.33 9.26 21.66 13 22 C14 26 14 26 13 28 C10.18542106 27.55229391 7.37380871 27.09242783 4.5625 26.625 C3.76005859 26.49867188 2.95761719 26.37234375 2.13085938 26.2421875 C0.07479277 25.89517204 -1.96490131 25.45409572 -4 25 C-5.31209018 22.37581964 -4.81390767 21.14301374 -4.2578125 18.28125 C-4.07863281 17.34925781 -3.89945313 16.41726563 -3.71484375 15.45703125 C-3.52019531 14.48121094 -3.32554687 13.50539063 -3.125 12.5 C-2.93808594 11.52417969 -2.75117188 10.54835938 -2.55859375 9.54296875 C-1.14354804 2.28709609 -1.14354804 2.28709609 0 0 Z " fill="#FCFCFC" transform="translate(189,450)"/>
<path d="M0 0 C0.33 1.65 0.66 3.3 1 5 C-3.66404342 6.67408455 -8.27082636 7.77340237 -13.125 8.6875 C-13.82753906 8.82994141 -14.53007812 8.97238281 -15.25390625 9.11914062 C-18.75953406 9.78514364 -21.61024513 10.30848051 -25 9 C-25 7.35 -25 5.7 -25 4 C-22.95888458 3.51849058 -20.91708068 3.03989917 -18.875 2.5625 C-17.73804688 2.29566406 -16.60109375 2.02882813 -15.4296875 1.75390625 C-10.19584823 0.60341539 -5.36653173 -0.12777456 0 0 Z " fill="#FBFBFB" transform="translate(26,280)"/>
</svg>
