<svg width="361" height="254" viewBox="0 0 361 254" fill="none" xmlns="http://www.w3.org/2000/svg">
<ellipse opacity="0.563953" cx="268.978" cy="18.4121" rx="8.56973" ry="8.66451" fill="#CDE8FA"/>
<ellipse opacity="0.563953" cx="325.081" cy="8.66451" rx="8.56973" ry="8.66451" fill="#CDEEE8"/>
<ellipse opacity="0.563953" cx="299.033" cy="81.2299" rx="8.56973" ry="8.66451" fill="#CDEEE8"/>
<ellipse opacity="0.563953" cx="20.5224" cy="8.66451" rx="8.56973" ry="8.66451" fill="#CDE8FA"/>
<ellipse opacity="0.563953" cx="53.583" cy="81.2299" rx="8.56973" ry="8.66451" fill="#D5E9D6"/>
<ellipse opacity="0.563953" cx="22.526" cy="177.623" rx="8.56973" ry="8.66451" fill="#CDEEE8"/>
<ellipse opacity="0.563953" cx="82.6364" cy="211.197" rx="8.56973" ry="8.66451" fill="#D5E9D6"/>
<ellipse opacity="0.563953" cx="22.526" cy="244.772" rx="8.56973" ry="8.66451" fill="#C9D0D8"/>
<ellipse opacity="0.563953" cx="303.041" cy="141.881" rx="8.56973" ry="8.66451" fill="#C9D0D8"/>
<ellipse opacity="0.563953" cx="352.43" cy="109.389" rx="8.56973" ry="8.66451" fill="#D5E9D6"/>
<ellipse opacity="0.563953" cx="343.114" cy="177.623" rx="8.56973" ry="8.66451" fill="#CDE8FA"/>
<ellipse opacity="0.563953" cx="65.6051" cy="141.881" rx="8.56973" ry="8.66451" fill="#CDE8FA"/>
<ellipse opacity="0.563953" cx="8.56973" cy="109.389" rx="8.56973" ry="8.66451" fill="#EAF4EA"/>
<ellipse opacity="0.563953" cx="287.011" cy="211.197" rx="8.56973" ry="8.66451" fill="#EAF4EA"/>
<ellipse opacity="0.563953" cx="328.086" cy="244.772" rx="8.56973" ry="8.66451" fill="#D5E9D6"/>
<ellipse opacity="0.563953" cx="89.6492" cy="18.4121" rx="8.56973" ry="8.66451" fill="#CDEEE8"/>
</svg>
