<svg width="25" height="25" viewBox="0 0 25 25" fill="none" xmlns="http://www.w3.org/2000/svg">
<mask id="mask0_5985_66513" style="mask-type:alpha" maskUnits="userSpaceOnUse" x="0" y="0" width="25" height="25">
<rect x="0.772598" y="0.309891" width="24" height="24" fill="#D9D9D9"/>
</mask>
<g mask="url(#mask0_5985_66513)">
<path d="M6.6226 17.4099C7.4726 16.7599 8.4226 16.2474 9.4726 15.8724C10.5226 15.4974 11.6226 15.3099 12.7726 15.3099C13.9226 15.3099 15.0226 15.4974 16.0726 15.8724C17.1226 16.2474 18.0726 16.7599 18.9226 17.4099C19.5059 16.7266 19.9601 15.9516 20.2851 15.0849C20.6101 14.2182 20.7726 13.2932 20.7726 12.3099C20.7726 10.0932 19.9934 8.20572 18.4351 6.64739C16.8768 5.08906 14.9893 4.30989 12.7726 4.30989C10.5559 4.30989 8.66843 5.08906 7.1101 6.64739C5.55176 8.20572 4.7726 10.0932 4.7726 12.3099C4.7726 13.2932 4.9351 14.2182 5.2601 15.0849C5.5851 15.9516 6.03927 16.7266 6.6226 17.4099ZM12.7726 13.3099C11.7893 13.3099 10.9601 12.9724 10.2851 12.2974C9.6101 11.6224 9.2726 10.7932 9.2726 9.80989C9.2726 8.82656 9.6101 7.99739 10.2851 7.32239C10.9601 6.64739 11.7893 6.30989 12.7726 6.30989C13.7559 6.30989 14.5851 6.64739 15.2601 7.32239C15.9351 7.99739 16.2726 8.82656 16.2726 9.80989C16.2726 10.7932 15.9351 11.6224 15.2601 12.2974C14.5851 12.9724 13.7559 13.3099 12.7726 13.3099ZM12.7726 22.3099C11.3893 22.3099 10.0893 22.0474 8.8726 21.5224C7.65593 20.9974 6.5976 20.2849 5.6976 19.3849C4.7976 18.4849 4.0851 17.4266 3.5601 16.2099C3.0351 14.9932 2.7726 13.6932 2.7726 12.3099C2.7726 10.9266 3.0351 9.62656 3.5601 8.40989C4.0851 7.19322 4.7976 6.13489 5.6976 5.23489C6.5976 4.33489 7.65593 3.62239 8.8726 3.09739C10.0893 2.57239 11.3893 2.30989 12.7726 2.30989C14.1559 2.30989 15.4559 2.57239 16.6726 3.09739C17.8893 3.62239 18.9476 4.33489 19.8476 5.23489C20.7476 6.13489 21.4601 7.19322 21.9851 8.40989C22.5101 9.62656 22.7726 10.9266 22.7726 12.3099C22.7726 13.6932 22.5101 14.9932 21.9851 16.2099C21.4601 17.4266 20.7476 18.4849 19.8476 19.3849C18.9476 20.2849 17.8893 20.9974 16.6726 21.5224C15.4559 22.0474 14.1559 22.3099 12.7726 22.3099ZM12.7726 20.3099C13.6559 20.3099 14.4893 20.1807 15.2726 19.9224C16.0559 19.6641 16.7726 19.2932 17.4226 18.8099C16.7726 18.3266 16.0559 17.9557 15.2726 17.6974C14.4893 17.4391 13.6559 17.3099 12.7726 17.3099C11.8893 17.3099 11.0559 17.4391 10.2726 17.6974C9.48926 17.9557 8.7726 18.3266 8.1226 18.8099C8.7726 19.2932 9.48926 19.6641 10.2726 19.9224C11.0559 20.1807 11.8893 20.3099 12.7726 20.3099ZM12.7726 11.3099C13.2059 11.3099 13.5643 11.1682 13.8476 10.8849C14.1309 10.6016 14.2726 10.2432 14.2726 9.80989C14.2726 9.37656 14.1309 9.01822 13.8476 8.73489C13.5643 8.45156 13.2059 8.30989 12.7726 8.30989C12.3393 8.30989 11.9809 8.45156 11.6976 8.73489C11.4143 9.01822 11.2726 9.37656 11.2726 9.80989C11.2726 10.2432 11.4143 10.6016 11.6976 10.8849C11.9809 11.1682 12.3393 11.3099 12.7726 11.3099Z" fill="black"/>
</g>
</svg>
