<svg width="21" height="20" viewBox="0 0 21 20" fill="none" xmlns="http://www.w3.org/2000/svg">
<path d="M10.4778 18.0002H3.47784C3.21263 18.0002 2.95827 17.8949 2.77074 17.7074C2.5832 17.5198 2.47784 17.2655 2.47784 17.0002V3.00024C2.47784 2.73503 2.5832 2.48067 2.77074 2.29314C2.95827 2.1056 3.21263 2.00024 3.47784 2.00024H8.47784V5.00024C8.47784 5.79589 8.79391 6.55896 9.35652 7.12156C9.91913 7.68417 10.6822 8.00024 11.4778 8.00024H14.4778V9.00024C14.4778 9.26546 14.5832 9.51981 14.7707 9.70735C14.9583 9.89489 15.2126 10.0002 15.4778 10.0002C15.7431 10.0002 15.9974 9.89489 16.185 9.70735C16.3725 9.51981 16.4778 9.26546 16.4778 9.00024V7.00024C16.4778 7.00024 16.4778 7.00024 16.4778 6.94024C16.4674 6.84838 16.4473 6.75787 16.4178 6.67024V6.58024C16.3698 6.47742 16.3056 6.38291 16.2278 6.30024L10.2278 0.300244C10.1452 0.22246 10.0507 0.158325 9.94784 0.110244C9.91799 0.106004 9.88769 0.106004 9.85784 0.110244C9.75626 0.0519854 9.64407 0.0145883 9.52784 0.000244141H3.47784C2.68219 0.000244141 1.91913 0.316315 1.35652 0.878924C0.793915 1.44153 0.477844 2.20459 0.477844 3.00024V17.0002C0.477844 17.7959 0.793915 18.559 1.35652 19.1216C1.91913 19.6842 2.68219 20.0002 3.47784 20.0002H10.4778C10.7431 20.0002 10.9974 19.8949 11.185 19.7074C11.3725 19.5198 11.4778 19.2655 11.4778 19.0002C11.4778 18.735 11.3725 18.4807 11.185 18.2931C10.9974 18.1056 10.7431 18.0002 10.4778 18.0002ZM10.4778 3.41024L13.0678 6.00024H11.4778C11.2126 6.00024 10.9583 5.89489 10.7707 5.70735C10.5832 5.51981 10.4778 5.26546 10.4778 5.00024V3.41024ZM5.47784 6.00024C5.21263 6.00024 4.95827 6.1056 4.77074 6.29314C4.5832 6.48067 4.47784 6.73503 4.47784 7.00024C4.47784 7.26546 4.5832 7.51981 4.77074 7.70735C4.95827 7.89489 5.21263 8.00024 5.47784 8.00024H6.47784C6.74306 8.00024 6.99741 7.89489 7.18495 7.70735C7.37249 7.51981 7.47784 7.26546 7.47784 7.00024C7.47784 6.73503 7.37249 6.48067 7.18495 6.29314C6.99741 6.1056 6.74306 6.00024 6.47784 6.00024H5.47784ZM20.1878 18.2902L19.0178 17.1302C19.3918 16.4775 19.5415 15.7202 19.444 14.9742C19.3464 14.2283 19.0071 13.5349 18.4778 13.0002C17.9909 12.4959 17.3633 12.1499 16.6769 12.0074C15.9905 11.8648 15.277 11.9323 14.6295 12.201C13.982 12.4698 13.4304 12.9273 13.0466 13.5139C12.6628 14.1006 12.4646 14.7893 12.4778 15.4902C12.4744 16.0934 12.6287 16.687 12.9255 17.2122C13.2222 17.7373 13.6511 18.1758 14.1696 18.484C14.6881 18.7923 15.2781 18.9597 15.8812 18.9695C16.4844 18.9794 17.0796 18.8314 17.6078 18.5402L18.7678 19.7102C18.8608 19.804 18.9714 19.8784 19.0933 19.9291C19.2151 19.9799 19.3458 20.006 19.4778 20.006C19.6099 20.006 19.7406 19.9799 19.8624 19.9291C19.9843 19.8784 20.0949 19.804 20.1878 19.7102C20.2816 19.6173 20.356 19.5067 20.4067 19.3848C20.4575 19.263 20.4836 19.1323 20.4836 19.0002C20.4836 18.8682 20.4575 18.7375 20.4067 18.6157C20.356 18.4938 20.2816 18.3832 20.1878 18.2902ZM17.0178 16.5402C16.7322 16.8088 16.3549 16.9584 15.9628 16.9584C15.5708 16.9584 15.1935 16.8088 14.9078 16.5402C14.6326 16.26 14.4782 15.883 14.4778 15.4902C14.4758 15.293 14.5137 15.0974 14.5893 14.9152C14.6649 14.733 14.7767 14.568 14.9178 14.4302C15.1845 14.1651 15.542 14.0113 15.9178 14.0002C16.12 13.9878 16.3226 14.0173 16.5128 14.0869C16.7031 14.1564 16.8769 14.2645 17.0233 14.4045C17.1698 14.5444 17.2858 14.713 17.364 14.8999C17.4422 15.0867 17.481 15.2877 17.4778 15.4902C17.4696 15.8873 17.3041 16.2649 17.0178 16.5402ZM11.4778 10.0002H5.47784C5.21263 10.0002 4.95827 10.1056 4.77074 10.2931C4.5832 10.4807 4.47784 10.735 4.47784 11.0002C4.47784 11.2655 4.5832 11.5198 4.77074 11.7074C4.95827 11.8949 5.21263 12.0002 5.47784 12.0002H11.4778C11.7431 12.0002 11.9974 11.8949 12.185 11.7074C12.3725 11.5198 12.4778 11.2655 12.4778 11.0002C12.4778 10.735 12.3725 10.4807 12.185 10.2931C11.9974 10.1056 11.7431 10.0002 11.4778 10.0002ZM9.47784 16.0002C9.74306 16.0002 9.99741 15.8949 10.185 15.7074C10.3725 15.5198 10.4778 15.2655 10.4778 15.0002C10.4778 14.735 10.3725 14.4807 10.185 14.2931C9.99741 14.1056 9.74306 14.0002 9.47784 14.0002H5.47784C5.21263 14.0002 4.95827 14.1056 4.77074 14.2931C4.5832 14.4807 4.47784 14.735 4.47784 15.0002C4.47784 15.2655 4.5832 15.5198 4.77074 15.7074C4.95827 15.8949 5.21263 16.0002 5.47784 16.0002H9.47784Z" fill="#18632E"/>
</svg>
