<svg width="17" height="16" viewBox="0 0 17 16" fill="none" xmlns="http://www.w3.org/2000/svg">
<path d="M3.32254 1.7H3.42254V1.6V0.1H5.0244V1.6V1.7H5.1244H12.3318H12.4318V1.6V0.1H14.0337V1.6V1.7H14.1337H15.0346C15.507 1.7 15.9072 1.84856 16.2408 2.14477C16.574 2.44068 16.7365 2.79084 16.7365 3.2V14.4C16.7365 14.8092 16.574 15.1593 16.2408 15.4552C15.9072 15.7514 15.507 15.9 15.0346 15.9H2.42161C1.94923 15.9 1.54903 15.7514 1.21545 15.4552C0.882205 15.1593 0.719751 14.8092 0.719751 14.4V3.2C0.719751 2.79084 0.882205 2.44068 1.21545 2.14477C1.54903 1.84856 1.94923 1.7 2.42161 1.7H3.32254ZM2.32161 14.4V14.5H2.42161H15.0346H15.1346V14.4V6.4V6.3H15.0346H2.42161H2.32161V6.4V14.4ZM2.32161 4.8V4.9H2.42161H15.0346H15.1346V4.8V3.2V3.1H15.0346H2.42161H2.32161V3.2V4.8Z" fill="#1A1A1A" stroke="white" stroke-width="0.2"/>
</svg>
