<svg width="14" height="10" viewBox="0 0 14 10" fill="none" xmlns="http://www.w3.org/2000/svg">
<path d="M13.669 3.967L9.803 2.5775L8.187 0.548503C8.04649 0.376704 7.86948 0.238347 7.66884 0.143473C7.46819 0.0485998 7.24894 -0.000409525 7.027 2.5775e-06H3.029C2.7845 6.78393e-06 2.54371 0.059778 2.32759 0.174113C2.11147 0.288447 1.92657 0.453878 1.789 0.656003L0.433 2.6475C0.150915 3.06213 4.81507e-05 3.55201 0 4.0535V8C0 8.13261 0.0526784 8.25979 0.146447 8.35356C0.240215 8.44732 0.367392 8.5 0.5 8.5H1.571C1.67977 8.92912 1.92851 9.30972 2.27789 9.58159C2.62726 9.85346 3.05731 10.0011 3.5 10.0011C3.94269 10.0011 4.37274 9.85346 4.72211 9.58159C5.07149 9.30972 5.32023 8.92912 5.429 8.5H8.571C8.67977 8.92912 8.92852 9.30972 9.27789 9.58159C9.62726 9.85346 10.0573 10.0011 10.5 10.0011C10.9427 10.0011 11.3727 9.85346 11.7221 9.58159C12.0715 9.30972 12.3202 8.92912 12.429 8.5H13.5C13.6326 8.5 13.7598 8.44732 13.8536 8.35356C13.9473 8.25979 14 8.13261 14 8V4.4375C14 4.33454 13.9682 4.23409 13.9089 4.14988C13.8497 4.06567 13.7659 4.0018 13.669 3.967ZM3.5 9C3.30222 9 3.10888 8.94135 2.94443 8.83147C2.77998 8.72159 2.65181 8.56541 2.57612 8.38269C2.50043 8.19996 2.48063 7.99889 2.51921 7.80491C2.5578 7.61093 2.65304 7.43275 2.79289 7.2929C2.93275 7.15304 3.11093 7.0578 3.30491 7.01922C3.49889 6.98063 3.69996 7.00044 3.88268 7.07612C4.06541 7.15181 4.22159 7.27998 4.33147 7.44443C4.44135 7.60888 4.5 7.80222 4.5 8C4.4996 8.2651 4.39412 8.51922 4.20667 8.70667C4.01922 8.89412 3.76509 8.99961 3.5 9ZM10.5 9C10.3022 9 10.1089 8.94135 9.94443 8.83147C9.77998 8.72159 9.65181 8.56541 9.57612 8.38269C9.50043 8.19996 9.48063 7.99889 9.51921 7.80491C9.5578 7.61093 9.65304 7.43275 9.79289 7.2929C9.93275 7.15304 10.1109 7.0578 10.3049 7.01922C10.4989 6.98063 10.7 7.00044 10.8827 7.07612C11.0654 7.15181 11.2216 7.27998 11.3315 7.44443C11.4414 7.60888 11.5 7.80222 11.5 8C11.4996 8.2651 11.3941 8.51922 11.2067 8.70667C11.0192 8.89412 10.7651 8.99961 10.5 9ZM13 7.5H12.429C12.3202 7.07088 12.0715 6.69028 11.7221 6.41842C11.3727 6.14655 10.9427 5.99894 10.5 5.99894C10.0573 5.99894 9.62726 6.14655 9.27789 6.41842C8.92852 6.69028 8.67977 7.07088 8.571 7.5H5.429C5.32023 7.07088 5.07149 6.69028 4.72211 6.41842C4.37274 6.14655 3.94269 5.99894 3.5 5.99894C3.05731 5.99894 2.62726 6.14655 2.27789 6.41842C1.92851 6.69028 1.67977 7.07088 1.571 7.5H1V4.0535C1.00001 3.75245 1.0906 3.45837 1.26 3.2095L2.6155 1.219C2.66134 1.15154 2.72298 1.09632 2.79505 1.05815C2.86712 1.01998 2.94744 1.00001 3.029 1H7.027C7.09975 1.00002 7.17163 1.01591 7.2376 1.04656C7.30358 1.07722 7.36207 1.12191 7.409 1.1775L9.109 3.3115C9.16681 3.38407 9.24368 3.43913 9.331 3.4705L13 4.789V7.5Z" fill="#999999"/>
</svg>
