<svg width="14" height="14" viewBox="0 0 14 14" fill="none" xmlns="http://www.w3.org/2000/svg">
<path d="M3.00004 8.33337H11V7.00004H3.00004V8.33337ZM3.00004 6.33337H11V5.00004H3.00004V6.33337ZM3.00004 4.33337H11V3.00004H3.00004V4.33337ZM13.6667 13.6667L11 11H1.66671C1.30004 11 0.986263 10.8696 0.725374 10.6087C0.464485 10.3478 0.333818 10.0338 0.333374 9.66671V1.66671C0.333374 1.30004 0.464041 0.986263 0.725374 0.725374C0.986707 0.464485 1.30049 0.333818 1.66671 0.333374H12.3334C12.7 0.333374 13.014 0.464041 13.2754 0.725374C13.5367 0.986707 13.6672 1.30049 13.6667 1.66671V13.6667ZM1.66671 9.66671H11.5667L12.3334 10.4167V1.66671H1.66671V9.66671Z" fill="#999999"/>
</svg>
