<svg width="18" height="18" viewBox="0 0 18 18" fill="none" xmlns="http://www.w3.org/2000/svg">
<path d="M16.5 4.83333C16.5 6.675 13.1417 8.16667 9 8.16667C4.85833 8.16667 1.5 6.675 1.5 4.83333M16.5 4.83333C16.5 2.99167 13.1417 1.5 9 1.5C4.85833 1.5 1.5 2.99167 1.5 4.83333M16.5 4.83333V9M1.5 4.83333V9M1.5 9C1.5 10.8417 4.85833 12.3333 9 12.3333M1.5 9V13.1667C1.5 15.0083 4.85833 16.5 9 16.5M14 11.5V14M14 14V16.5M14 14H16.5M14 14H11.5" stroke="#18632E" stroke-width="1.5" stroke-linecap="round" stroke-linejoin="round"/>
</svg>
