<svg width="105" height="102" viewBox="0 0 105 102" fill="none" xmlns="http://www.w3.org/2000/svg">
<path d="M44.3036 1.07901C42.6743 0.358248 33.0849 9.8869 31.8095 13.9029C29.6275 30.0128 24.9647 54.8307 16.0738 65.9324C10.1279 73.3569 3.87572 71.9185 4.03063 67.2096C4.04777 66.6872 3.45009 66.4777 3.20926 66.9199C0.590123 71.7287 -3.40009 82.6869 9.09622 90.1592C25.5142 99.9765 48.3152 106.268 62.2722 94.804C81.2935 79.1806 92.5636 2.11975 92.5636 2.11975C73.323 3.12807 57.0356 2.86749 44.3036 1.07901Z" fill="white"/>
<g opacity="0.2">
<path d="M42.2828 15.5021C41.37 14.9799 40.3222 14.9527 39.3384 14.7436C37.5576 14.3651 34.9859 13.4303 33.3566 14.6356C32.4618 15.2973 31.8737 16.0372 31.3672 17.0114C30.9901 19.5945 30.5533 22.3447 30.052 25.1837C30.4051 24.4563 30.7781 23.7418 31.1742 23.0448C31.8724 21.8164 32.6478 20.6236 33.6424 19.7089C35.6826 17.8328 38.47 17.321 41.053 17.7192C41.6526 17.8117 42.3008 17.9398 42.8323 17.6056C44.0242 16.8563 42.9717 15.8964 42.2828 15.5021Z" fill="black"/>
</g>
<g opacity="0.2">
<path d="M92.5652 2.12012C90.846 2.21024 89.1515 2.28972 87.4799 2.3594C87.5168 2.50022 87.5102 2.77592 87.6409 2.76128C93.3767 2.12012 79.8775 68.9458 67.1992 82.4577C54.5209 95.9697 13.2936 76.0184 11.5606 73.0627C11.0927 72.2645 10.9776 71.2753 11.0584 70.2567C7.61953 71.9935 4.79532 70.9642 4.16272 68.4823C4.23965 69.5105 11.3675 84.5789 40.2882 88.0343C40.9297 88.111 41.4846 88.5896 41.7234 89.2829C42.8203 92.4684 46.846 101.003 57.3649 95.9492C58.7508 95.2833 64.6226 91.9963 66.3334 90.426C82.8878 68.2863 92.5652 2.12012 92.5652 2.12012Z" fill="black"/>
</g>
<path d="M43.3083 101.5C41.1396 101.5 38.8826 101.332 36.5499 100.996C27.7651 99.7318 17.9393 96.0531 8.88266 90.6376C4.23027 87.8557 1.37051 84.3153 0.38273 80.1147C-0.905984 74.6349 1.35358 69.3148 2.81528 66.6314C3.03803 66.2224 3.45677 66.0439 3.85742 66.1876C4.25577 66.3303 4.5128 66.7488 4.49702 67.2291C4.45092 68.6314 5.03889 69.6978 6.15262 70.2319C8.25372 71.2395 12.0308 70.187 15.7325 65.565C19.6315 60.6964 23.0901 52.6457 26.0125 41.6365C28.1387 33.6263 29.9343 24.267 31.3496 13.8186L31.3567 13.766L31.3726 13.716C32.5571 9.9858 39.9174 2.46785 42.9799 0.856114C43.6039 0.527669 44.0604 0.429196 44.4069 0.549202C56.6573 2.2651 72.8526 2.61193 92.5431 1.58002L93.1203 1.54978L93.0239 2.20909C92.9957 2.40204 90.1426 21.7462 85 42.7495C81.9771 55.0954 78.7655 65.5945 75.4542 73.955C71.293 84.4616 66.9489 91.624 62.5426 95.2431C59.1562 98.0244 55.0924 99.9028 50.4638 100.826C48.2106 101.275 45.8188 101.5 43.3084 101.5L43.3083 101.5ZM3.56286 67.2828C2.1808 69.8425 0.0995665 74.8014 1.28239 79.8312C2.19889 83.7282 4.89987 87.0414 9.3107 89.6789C18.272 95.0374 27.9867 98.6765 36.6651 99.9255C46.9997 101.413 55.7614 99.4897 62.0029 94.3629C66.274 90.8549 70.5144 83.8373 74.6066 73.5052C77.898 65.1948 81.093 54.7481 84.1029 42.4552C88.6987 23.6849 91.4603 6.2483 92.0051 2.68791C72.5005 3.68679 56.4342 3.32556 44.248 1.61378L44.1912 1.60579L44.1396 1.58293C44.1213 1.57833 43.6729 1.4801 42.0232 2.72142C40.9145 3.55565 39.5468 4.78378 38.1722 6.17995C35.1404 9.25874 32.8299 12.3338 32.2634 14.0402C30.8423 24.5176 29.0393 33.9081 26.9038 41.9535C23.94 53.1191 20.4115 61.3101 16.4163 66.2986C14.5922 68.5761 12.5807 70.219 10.5993 71.049C8.81691 71.7955 7.11114 71.8595 5.79577 71.229C4.34232 70.5321 3.53213 69.0974 3.56297 67.2831L3.56286 67.2828Z" fill="black"/>
<path d="M15.9391 80.0959C16.3979 80.2777 16.838 80.4973 17.2856 80.6984L17.9516 81.0115C18.1704 81.1234 18.3941 81.2229 18.6161 81.3259C18.8374 81.4313 19.0583 81.5373 19.278 81.6465L19.9433 81.9577L20.6094 82.2668L21.2819 82.5573C23.0761 83.33 24.9055 83.9958 26.7561 84.5727C27.2192 84.7155 27.6809 84.8633 28.148 84.9889L28.8467 85.1855C29.0793 85.2524 29.3121 85.3183 29.5466 85.3759L30.9512 85.7348L32.3627 86.0582C34.2484 86.4689 36.1458 86.8104 38.0508 87.0921C38.5263 87.168 39.0046 87.2223 39.4813 87.2885L40.1969 87.3836L40.3856 87.4096C40.4643 87.4203 40.5422 87.4362 40.6195 87.4569C40.7734 87.4991 40.925 87.556 41.0685 87.634C41.3565 87.7875 41.6157 88.0117 41.8264 88.2874C41.9309 88.4262 42.0226 88.5775 42.1012 88.7375C42.139 88.8186 42.1756 88.9003 42.2059 88.9854L42.246 89.095L42.2789 89.1881C42.4544 89.6842 42.6529 90.1711 42.8727 90.6437C43.0925 91.1165 43.3333 91.5755 43.5933 92.0181C43.8565 92.458 44.1381 92.8812 44.4382 93.2851C45.0483 94.0805 45.7352 94.7963 46.5089 95.3562C46.8899 95.6474 47.3 95.8795 47.7135 96.0998L48.0316 96.2442C48.1381 96.2909 48.2424 96.3451 48.3523 96.3807C48.5708 96.4563 48.7848 96.5499 49.0089 96.6037C49.8948 96.8634 50.8178 96.9637 51.7425 96.93C52.6678 96.8983 53.5957 96.7555 54.5199 96.5441C55.4437 96.3232 56.3567 96.0204 57.2845 95.7207L57.2898 95.719C57.4031 95.6823 57.5205 95.759 57.5522 95.89C57.5795 96.0036 57.5334 96.1208 57.447 96.174C56.5824 96.7059 55.672 97.1511 54.7221 97.4789C53.7707 97.7975 52.7826 98.0111 51.7775 98.0613C50.7736 98.1112 49.7546 98.0134 48.7653 97.7357C48.5157 97.6775 48.2751 97.578 48.0306 97.4952C47.9075 97.4562 47.79 97.3979 47.6705 97.347L47.3132 97.1889C46.8475 96.9492 46.386 96.6922 45.957 96.3727C45.0863 95.7557 44.3166 94.9698 43.6386 94.1024C43.3054 93.6625 42.9917 93.2044 42.7035 92.7264C42.4193 92.2457 42.1572 91.749 41.9183 91.2384C41.6793 90.7278 41.4639 90.2034 41.2722 89.6658L41.2362 89.565L41.2182 89.5146L41.2054 89.4818C41.19 89.4374 41.1702 89.3956 41.151 89.3534C41.1096 89.2712 41.0624 89.1928 41.0081 89.1207C40.898 88.9783 40.7627 88.8613 40.6116 88.7815C40.5366 88.7404 40.4568 88.7123 40.3762 88.6898C40.3358 88.679 40.2949 88.6706 40.2535 88.6654C40.2371 88.6622 40.2025 88.6579 40.173 88.6541L40.0826 88.6423L39.3589 88.5486C38.8767 88.4833 38.3935 88.4298 37.9121 88.3545C34.0606 87.7782 30.2282 86.9534 26.4794 85.7374C24.6052 85.1317 22.7513 84.4352 20.9316 83.6293L20.2495 83.3261L19.5736 83.0042C19.3489 82.8952 19.1221 82.7921 18.8992 82.6782C18.6764 82.5636 18.4549 82.4457 18.2337 82.3272C17.3501 81.8511 16.4928 81.3055 15.6792 80.6774C15.5484 80.5765 15.5131 80.3719 15.6004 80.2206C15.6736 80.0936 15.8099 80.0443 15.9291 80.0916L15.9387 80.0955L15.9391 80.0959Z" fill="black"/>
<path d="M11.6494 77.1873C11.9394 77.2288 12.1875 77.3359 12.4265 77.458C12.6639 77.5831 12.8853 77.735 13.098 77.9037C13.3108 78.0722 13.5177 78.2522 13.714 78.4549C13.9104 78.6574 14.0999 78.875 14.2675 79.1413L14.2682 79.1422C14.3436 79.262 14.3209 79.4299 14.2172 79.5171C14.1691 79.5577 14.1116 79.5736 14.0568 79.5672C13.771 79.533 13.5095 79.4453 13.2575 79.3374C13.0054 79.2295 12.7665 79.094 12.5363 78.9418C12.3061 78.7898 12.0874 78.6156 11.8876 78.4095C11.6897 78.2003 11.5037 77.9709 11.3629 77.6702C11.2881 77.5105 11.3393 77.3111 11.4774 77.2246C11.5316 77.1907 11.591 77.1792 11.6476 77.1873L11.6494 77.1875V77.1873Z" fill="black"/>
<path d="M4.62645 68.4361C4.63084 68.4368 4.63355 68.4372 4.63481 68.4378C4.63544 68.4381 4.63554 68.4391 4.63554 68.4391L4.64537 68.4634L4.68677 68.5692C4.7264 68.6509 4.75839 68.731 4.80001 68.8153C4.84277 68.8995 4.88271 68.9836 4.92704 69.0677L5.06338 69.3209C5.25315 69.6561 5.45149 69.9904 5.66405 70.3158C6.08708 70.9681 6.54074 71.6016 7.01772 72.2145C7.4993 72.8229 7.99176 73.4235 8.50931 73.9997C8.75815 74.2998 9.01964 74.5858 9.26461 74.8961C9.51209 75.2034 9.76627 75.5041 9.9966 75.8441L10.0022 75.8523C10.076 75.961 10.0595 76.1184 9.96545 76.2037C9.89769 76.2652 9.80809 76.2723 9.73584 76.2309C9.3997 76.0381 9.07798 75.8189 8.76672 75.5828C8.46184 75.3373 8.15518 75.0917 7.87288 74.8118C7.72995 74.6742 7.58807 74.535 7.4486 74.3929L7.03989 73.9525L6.83569 73.7319L6.63725 73.5037C6.50488 73.3514 6.37272 73.1992 6.24517 73.0411C5.73034 72.4142 5.24729 71.7481 4.80733 71.0378C4.69524 70.8627 4.59299 70.6765 4.48697 70.4948C4.38304 70.3108 4.28675 70.1193 4.18982 69.9278L4.05076 69.6335C4.00612 69.5332 3.96419 69.4284 3.92122 69.3262C3.87825 69.2234 3.84009 69.1081 3.80161 68.9991L3.74724 68.8081C3.74275 68.7911 3.73867 68.7787 3.73386 68.758L3.71943 68.6822C3.71054 68.6313 3.70322 68.5802 3.69737 68.5294C3.68534 68.4235 3.74965 68.3264 3.84113 68.3125C3.8564 68.3102 3.87145 68.3103 3.88609 68.3126L4.62655 68.4363L4.62645 68.4361Z" fill="black"/>
<path d="M33.2627 14.4558C33.6651 14.0392 34.1891 13.791 34.7112 13.6581C35.2374 13.5251 35.7701 13.504 36.2879 13.5332C37.3262 13.5879 38.3168 13.8672 39.2648 14.0733L39.9935 14.2253L40.7278 14.3835C41.2169 14.4913 41.7048 14.604 42.1919 14.7207C42.6791 14.8369 43.1641 14.9635 43.649 15.0898L44.3753 15.2827L44.7381 15.3808C44.7436 15.3821 44.7576 15.3865 44.7563 15.3854L44.759 15.3852C44.7607 15.3852 44.7623 15.3859 44.764 15.387C44.767 15.3848 44.7698 15.3877 44.7724 15.3865C44.7774 15.3858 44.7822 15.3854 44.787 15.3831C44.7974 15.3807 44.8067 15.3688 44.8151 15.3606C44.8204 15.3488 44.8245 15.3414 44.826 15.3278L44.834 14.5489C44.8396 13.9811 44.8374 13.4132 44.8336 12.8453C44.8276 12.2776 44.8168 11.7101 44.8026 11.143C44.7894 10.5758 44.7699 10.0094 44.746 9.44365C44.6935 8.31278 44.6234 7.18445 44.5072 6.06798C44.3912 4.9532 44.2398 3.84339 43.9884 2.78837L43.9862 2.7793C43.9177 2.49198 44.0634 2.19487 44.3117 2.11563C44.5507 2.0393 44.7983 2.19451 44.8773 2.46271C45.2095 3.59757 45.4087 4.74973 45.5636 5.90164C45.7132 7.05453 45.8181 8.20874 45.885 9.36344C45.9184 9.94061 45.9473 10.5178 45.9696 11.0949C45.9898 11.6721 46.0024 12.2493 46.0122 12.8263C46.0192 13.4034 46.0246 13.9803 46.0223 14.5575L46.0203 14.9904L46.0175 15.207L46.0161 15.3153L46.0156 15.3434L46.0131 15.3941L46.006 15.4954C45.9777 15.7664 45.8771 16.0303 45.7267 16.2403C45.5739 16.4479 45.3735 16.6083 45.1469 16.6898C45.034 16.7316 44.9156 16.7536 44.797 16.7565C44.7379 16.759 44.6789 16.7524 44.6203 16.7466L44.5339 16.7297L44.491 16.72L44.4639 16.7129L44.1046 16.6133L43.3855 16.4176L41.9457 16.0398C41.4658 15.9148 40.9853 15.7937 40.5042 15.6777L39.782 15.507L39.0525 15.3398C38.0608 15.1031 37.1245 14.8306 36.1915 14.6568C35.7261 14.5722 35.2629 14.5163 34.8065 14.5287C34.3496 14.539 33.901 14.6232 33.4664 14.8254L33.4619 14.8275C33.3636 14.8732 33.2518 14.818 33.2123 14.7043C33.1814 14.6153 33.2042 14.5166 33.2624 14.456L33.2627 14.4558Z" fill="black"/>
<path d="M68.1219 28.5818C68.1078 28.5818 68.0938 28.5818 68.0796 28.5815C67.135 28.5686 66.2503 28.1596 65.3945 27.7641C64.6552 27.4225 63.9569 27.0997 63.2876 27.061C62.5431 27.0178 61.7476 27.2824 60.9777 27.538C60.1299 27.8194 59.2532 28.1106 58.3892 28.0224C57.429 27.9246 56.5648 27.4337 55.7289 26.959C55.0238 26.5585 54.3577 26.1802 53.711 26.0853C52.9441 25.9727 52.1182 26.1687 51.3194 26.3583C50.4694 26.5599 49.5906 26.7686 48.7622 26.6084C47.7568 26.4141 46.9048 25.8279 46.0809 25.2609C45.4319 24.8143 44.819 24.3925 44.2296 24.2492C43.3619 24.0381 42.4694 24.1598 41.6062 24.277C40.7634 24.3917 39.9673 24.5001 39.2563 24.286C37.489 23.7537 36.992 23.1536 36.5114 22.5735C36.1621 22.1516 35.8604 21.7875 34.9463 21.4076C34.7039 21.307 34.578 20.9979 34.665 20.7175C34.7521 20.4369 35.019 20.2914 35.2613 20.3919C36.3818 20.8576 36.8083 21.3724 37.1845 21.8267C37.5932 22.3203 37.9793 22.7864 39.4911 23.2416C40.0325 23.4048 40.744 23.3079 41.4973 23.2053C42.3913 23.0837 43.4045 22.9458 44.4213 23.1931C45.1625 23.3733 45.84 23.8396 46.5574 24.3333C47.3074 24.8493 48.0829 25.3831 48.9158 25.544C49.5729 25.6711 50.3304 25.4912 51.1323 25.3011C52.0054 25.094 52.9082 24.8796 53.8283 25.0147C54.6291 25.1322 55.3971 25.5684 56.1397 25.9903C56.8989 26.4214 57.6839 26.8673 58.471 26.9475C59.1625 27.0176 59.9195 26.7668 60.7207 26.5008C61.5638 26.221 62.4358 25.9311 63.3342 25.9834C64.1585 26.0309 64.9626 26.4025 65.7403 26.7619C66.5526 27.1373 67.3197 27.4918 68.0908 27.5024C68.7957 27.5119 69.5423 27.1925 70.3305 26.854C71.1466 26.5035 71.9904 26.1411 72.8771 26.1141C73.7111 26.0887 74.5415 26.39 75.3449 26.6811C76.1753 26.982 76.9592 27.2665 77.7202 27.2092C77.977 27.1902 78.1988 27.4153 78.2155 27.7127C78.2322 28.01 78.0374 28.2667 77.7805 28.286C76.8464 28.356 75.9416 28.0281 75.0663 27.7107C74.3019 27.4337 73.5788 27.1723 72.9015 27.1927C72.1696 27.2149 71.4338 27.531 70.6549 27.8655C69.8349 28.2176 68.9875 28.5815 68.1219 28.5815V28.5818Z" fill="black"/>
<path d="M67.0331 35.5921C67.019 35.5921 67.005 35.5921 66.9909 35.5919C66.0462 35.5789 65.1614 35.1699 64.3056 34.7745C63.5664 34.4328 62.8681 34.1101 62.1989 34.0715C61.456 34.0294 60.6588 34.2929 59.8889 34.5485C59.041 34.8299 58.1642 35.1213 57.3004 35.0329C56.3402 34.9351 55.4759 34.4442 54.6401 33.9695C53.9349 33.569 53.2689 33.1907 52.6221 33.0958C51.8554 32.9833 51.0293 33.1793 50.2306 33.3687C49.3804 33.5704 48.5013 33.7786 47.6734 33.6189C46.668 33.4246 45.8159 32.8384 44.992 32.2714C44.3431 31.8249 43.7302 31.403 43.1408 31.2597C42.2732 31.0485 41.3806 31.1702 40.5175 31.2875C39.6746 31.4022 38.8786 31.5106 38.1675 31.2965C36.4002 30.7642 35.9033 30.1641 35.4227 29.5839C35.0733 29.1621 34.7717 28.798 33.8575 28.4181C33.6151 28.3175 33.4893 28.0084 33.5762 27.728C33.6633 27.4475 33.9304 27.3019 34.1726 27.4024C35.2931 27.868 35.7195 28.3829 36.0957 28.8372C36.5045 29.3307 36.8906 29.7969 38.4023 30.2521C38.9437 30.4153 39.6552 30.3183 40.4086 30.2158C41.3024 30.0941 42.3156 29.9563 43.3325 30.2036C44.0736 30.3838 44.7512 30.8501 45.4686 31.3438C46.2185 31.8598 46.994 32.3936 47.827 32.5545C48.4841 32.6812 49.2414 32.5017 50.0435 32.3115C50.9166 32.1044 51.8195 31.8903 52.7394 32.0252C53.5402 32.1427 54.3082 32.5789 55.0509 33.0007C55.8101 33.4319 56.595 33.8778 57.3821 33.958C58.0735 34.0281 58.8306 33.7773 59.6318 33.5113C60.475 33.2314 61.3464 32.9413 62.2454 32.9938C63.0696 33.0414 63.8738 33.413 64.6514 33.7724C65.4637 34.1478 66.2308 34.5024 67.002 34.513C67.7118 34.5203 68.4536 34.2031 69.2416 33.8646C70.0577 33.5142 70.9016 33.1517 71.7882 33.1249C72.6229 33.1001 73.4528 33.4007 74.2562 33.6919C75.0865 33.9927 75.8712 34.2773 76.6313 34.2199C76.8887 34.2006 77.1101 34.4261 77.1267 34.7234C77.1433 35.0208 76.9486 35.2775 76.6916 35.2967C75.7577 35.3666 74.8527 35.0387 73.9775 34.7215C73.2132 34.4444 72.4899 34.1829 71.8127 34.2035C71.0807 34.2256 70.345 34.5416 69.566 34.8762C68.7461 35.2282 67.8987 35.5922 67.0331 35.5922V35.5921Z" fill="black"/>
<path d="M65.9404 42.6028C65.9262 42.6028 65.9122 42.6028 65.8981 42.6025C64.9535 42.5896 64.0687 42.1806 63.2129 41.7851C62.4737 41.4435 61.7753 41.1207 61.1061 41.082C60.3624 41.0396 59.566 41.3034 58.7961 41.559C57.9483 41.8404 57.0716 42.1317 56.2077 42.0434C55.2475 41.9456 54.3833 41.4547 53.5474 40.98C52.8423 40.5795 52.1762 40.2012 51.5294 40.1063C50.7625 39.9936 49.9366 40.1898 49.1378 40.3793C48.2878 40.581 47.4089 40.7895 46.5807 40.6294C45.5753 40.4351 44.7233 39.8489 43.8994 39.2819C43.2504 38.8353 42.6375 38.4135 42.0481 38.2702C41.1805 38.0591 40.2879 38.1805 39.4248 38.298C38.5819 38.4127 37.7859 38.5211 37.0749 38.307C35.3076 37.7747 34.8105 37.1746 34.33 36.5945C33.9807 36.1727 33.679 35.8085 32.7649 35.4286C32.5225 35.328 32.3966 35.0189 32.4836 34.7385C32.5707 34.4579 32.8377 34.3124 33.0799 34.4129C34.2004 34.8786 34.6269 35.3934 35.0031 35.8478C35.4118 36.3414 35.7979 36.8075 37.3097 37.2627C37.8511 37.4259 38.5627 37.3289 39.3159 37.2264C40.2098 37.1047 41.223 36.9669 42.2398 37.2142C42.981 37.3945 43.6585 37.8607 44.3759 38.3544C45.1259 38.8705 45.9014 39.4042 46.7343 39.5651C47.3913 39.692 48.1487 39.5124 48.9507 39.3222C49.8238 39.115 50.7265 38.9008 51.6466 39.0358C52.4475 39.1533 53.2154 39.5895 53.9581 40.0114C54.7172 40.4425 55.5021 40.8884 56.2894 40.9686C56.9815 41.0388 57.7377 40.7878 58.539 40.5219C59.3821 40.2419 60.2542 39.952 61.1525 40.0045C61.9769 40.052 62.781 40.4238 63.5587 40.7831C64.3709 41.1584 65.1381 41.513 65.9092 41.5237C66.6137 41.5327 67.3607 41.2137 68.1489 40.8752C68.9649 40.5248 69.8088 40.1623 70.6954 40.1354C71.5304 40.1096 72.36 40.4112 73.1635 40.7024C73.9938 41.0032 74.7783 41.2873 75.5387 41.2304C75.7954 41.2107 76.0174 41.4366 76.034 41.7339C76.0507 42.0313 75.8559 42.288 75.599 42.3072C74.665 42.377 73.7602 42.0492 72.8848 41.732C72.1206 41.455 71.3972 41.1927 70.72 41.214C69.9881 41.2361 69.2523 41.5522 68.4733 41.8867C67.6534 42.2389 66.8061 42.6028 65.9404 42.6028Z" fill="black"/>
<path d="M64.8465 49.6193C64.8324 49.6193 64.8184 49.6193 64.8043 49.6191C63.8596 49.6062 62.9749 49.1971 62.1191 48.8017C61.3798 48.4601 60.6815 48.1373 60.0123 48.0986C59.2681 48.0565 58.4722 48.32 57.7022 48.5756C56.8545 48.857 55.9779 49.1484 55.1139 49.06C54.1536 48.9622 53.2894 48.4713 52.4535 47.9966C51.7483 47.5961 51.0823 47.2178 50.4356 47.1229C49.6689 47.0103 48.8428 47.2064 48.044 47.3958C47.1939 47.5975 46.3148 47.8059 45.4869 47.646C44.4814 47.4517 43.6294 46.8655 42.8056 46.2985C42.1567 45.8518 41.5437 45.4301 40.9543 45.2868C40.0866 45.0757 39.1942 45.1973 38.331 45.3146C37.4881 45.4293 36.692 45.5376 35.981 45.3236C34.2137 44.7913 33.7167 44.1912 33.2361 43.611C32.8868 43.1893 32.5851 42.8251 31.671 42.4452C31.4286 42.3446 31.3028 42.0355 31.3897 41.7551C31.4768 41.4746 31.7438 41.329 31.9861 41.4295C33.1065 41.8951 33.533 42.41 33.9092 42.8644C34.3179 43.358 34.7041 43.8241 36.2158 44.2793C36.7573 44.4425 37.4688 44.3455 38.222 44.243C39.1159 44.1213 40.1291 43.9835 41.146 44.2308C41.8871 44.411 42.5647 44.8774 43.2822 45.3711C44.0321 45.8872 44.8076 46.4209 45.6405 46.5818C46.2973 46.7088 47.055 46.5291 47.8568 46.3389C48.73 46.1318 49.6326 45.9177 50.5529 46.0525C51.3537 46.17 52.1217 46.6062 52.8643 47.0281C53.6235 47.4592 54.4084 47.9051 55.1955 47.9853C55.887 48.0559 56.6439 47.8046 57.4452 47.5386C58.2883 47.2587 59.1602 46.9688 60.0588 47.0212C60.8831 47.0687 61.6873 47.4405 62.465 47.7998C63.2772 48.1752 64.0443 48.5297 64.8154 48.5404C65.5215 48.5513 66.267 48.2304 67.0551 47.892C67.8712 47.5415 68.7151 47.1791 69.6017 47.1521C70.4355 47.1272 71.2661 47.4279 72.0697 47.7191C72.8999 48.0201 73.6848 48.3041 74.4448 48.2471C74.702 48.2271 74.9234 48.4534 74.9402 48.7506C74.9568 49.048 74.762 49.3047 74.5051 49.3239C73.5712 49.3939 72.6662 49.066 71.791 48.7487C71.0268 48.4717 70.3033 48.2102 69.6263 48.2307C68.8943 48.2529 68.1585 48.5689 67.3796 48.9034C66.5596 49.2556 65.7122 49.6195 64.8466 49.6195L64.8465 49.6193Z" fill="black"/>
<path d="M63.3225 56.4419C63.3084 56.4419 63.2944 56.4419 63.2803 56.4416C62.3356 56.4287 61.4509 56.0197 60.5951 55.6242C59.8558 55.2826 59.1575 54.9598 58.4883 54.9211C57.744 54.8779 56.9481 55.1425 56.1782 55.3981C55.3304 55.6796 54.4533 55.9707 53.5898 55.8825C52.6295 55.7847 51.7653 55.2938 50.9295 54.8191C50.2243 54.4186 49.5582 54.0403 48.9115 53.9454C48.1448 53.8328 47.3188 54.0289 46.52 54.2184C45.6699 54.42 44.7911 54.6285 43.9628 54.4685C42.9573 54.2743 42.1053 53.688 41.2814 53.121C40.6325 52.6744 40.0196 52.2527 39.4302 52.1093C38.5626 51.8983 37.67 52.0198 36.8069 52.1372C35.9639 52.252 35.1679 52.3602 34.4569 52.1462C32.6895 51.6139 32.1926 51.0139 31.712 50.4336C31.3627 50.0119 31.061 49.6476 30.1469 49.2677C29.9046 49.1671 29.7786 48.858 29.8657 48.5776C29.9527 48.297 30.2198 48.1515 30.4621 48.252C31.5825 48.7177 32.009 49.2325 32.3852 49.6869C32.7939 50.1805 33.1801 50.6466 34.6918 51.1018C35.2332 51.2649 35.9447 51.1681 36.698 51.0655C37.592 50.9438 38.6052 50.806 39.6221 51.0533C40.3632 51.2336 41.0408 51.6999 41.7582 52.1935C42.5082 52.7096 43.2837 53.2433 44.1166 53.4042C44.7735 53.5314 45.5312 53.3516 46.333 53.1613C47.2061 52.9542 48.1088 52.7401 49.0289 52.8749C49.8297 52.9924 50.5977 53.4286 51.3403 53.8505C52.0995 54.2816 52.8844 54.7275 53.6716 54.8078C54.3628 54.8778 55.12 54.6269 55.9213 54.361C56.7645 54.0812 57.6362 53.7911 58.5349 53.8436C59.3592 53.8911 60.1634 54.2629 60.9411 54.6222C61.7533 54.9976 62.5204 55.3521 63.2916 55.3628C63.9978 55.3731 64.7431 55.0528 65.5312 54.7144C66.3473 54.3639 67.1912 54.0015 68.0778 53.9745C68.9109 53.949 69.7422 54.2502 70.5458 54.5415C71.376 54.8423 72.1608 55.1269 72.9209 55.0695C73.1777 55.0493 73.3997 55.2757 73.4163 55.573C73.4329 55.8704 73.2382 56.1271 72.9812 56.1463C72.0472 56.2164 71.1423 55.8884 70.2671 55.5711C69.5028 55.2941 68.7797 55.033 68.1023 55.0531C67.3703 55.0753 66.6345 55.3913 65.8556 55.7258C65.0356 56.078 64.1883 56.4419 63.3226 56.4419H63.3225Z" fill="black"/>
<path d="M61.2913 64.2293C61.2772 64.2293 61.2632 64.2293 61.2491 64.229C60.3044 64.2159 59.4197 63.8071 58.5639 63.4115C57.8247 63.0698 57.1263 62.7471 56.4571 62.7085C55.7129 62.6669 54.917 62.9299 54.1471 63.1854C53.2993 63.4669 52.4225 63.7579 51.5586 63.6697C50.5984 63.572 49.734 63.0811 48.8981 62.6064C48.193 62.206 47.5271 61.8277 46.8803 61.7327C46.1133 61.6204 45.2876 61.8161 44.4889 62.0056C43.6387 62.2073 42.7599 62.416 41.9315 62.2558C40.9261 62.0615 40.074 61.4752 39.2501 60.9083C38.6012 60.4616 37.9883 60.0399 37.3989 59.8964C36.5312 59.6856 35.6387 59.8069 34.7756 59.9244C33.9328 60.0392 33.1366 60.1476 32.4256 59.9335C30.6582 59.401 30.1613 58.8011 29.6807 58.2208C29.3313 57.7991 29.0297 57.4349 28.1155 57.055C27.8732 56.9543 27.7473 56.6453 27.8343 56.3648C27.9214 56.0843 28.1885 55.939 28.4307 56.0393C29.5512 56.5049 29.9776 57.0198 30.3538 57.4742C30.7626 57.9677 31.1487 58.4339 32.6604 58.8892C33.2019 59.0522 33.9134 58.9554 34.6667 58.8528C35.5605 58.7312 36.5737 58.5934 37.5906 58.8405C38.3316 59.0208 39.0093 59.4871 39.7266 59.9808C40.4766 60.4968 41.2521 61.0306 42.0851 61.1915C42.7421 61.3186 43.4997 61.1387 44.3017 60.9486C45.1748 60.7416 46.0775 60.5272 46.9975 60.6623C47.7982 60.7798 48.5662 61.2159 49.3088 61.6379C50.068 62.069 50.853 62.5149 51.6401 62.5951C52.3317 62.6647 53.0885 62.4144 53.8898 62.1484C54.733 61.8686 55.6045 61.5796 56.5034 61.631C57.3277 61.6785 58.1319 62.0501 58.9096 62.4096C59.7218 62.7849 60.4889 63.1395 61.2601 63.15C61.2705 63.1503 61.2811 63.1503 61.2916 63.1503C61.9894 63.1503 62.7233 62.835 63.4997 62.5017C64.3158 62.1513 65.1597 61.7888 66.0463 61.762C66.8798 61.735 67.7107 62.0376 68.5143 62.329C69.3446 62.6298 70.1292 62.9134 70.8894 62.857C71.1466 62.8359 71.3682 63.0632 71.3848 63.3605C71.4014 63.6578 71.2067 63.9146 70.9497 63.9338C70.0158 64.0051 69.1109 63.6759 68.2356 63.3587C67.4713 63.0818 66.75 62.8214 66.0708 62.8407C65.3388 62.863 64.6031 63.179 63.8241 63.5136C63.0042 63.8656 62.1567 64.2296 61.2911 64.2296L61.2913 64.2293Z" fill="black"/>
<path d="M67.6054 73.9561C66.6739 73.9561 65.7918 73.5659 64.9388 73.1886C64.1906 72.8576 63.484 72.5449 62.8056 72.517C62.0742 72.489 61.3226 72.7499 60.5274 73.0283C59.6767 73.326 58.7973 73.6347 57.919 73.5589C56.9769 73.4785 56.1154 73.0072 55.2824 72.5514C54.5627 72.1576 53.883 71.7856 53.217 71.6994C52.4773 71.6037 51.6683 71.8105 50.8861 72.0106C50.0249 72.2311 49.1343 72.4588 48.2767 72.3096C47.3235 72.1435 46.4869 71.5918 45.678 71.0583C44.9956 70.6083 44.351 70.1832 43.7105 70.0425C42.9512 69.8756 42.1163 70.0123 41.309 70.1442C40.4499 70.2848 39.5614 70.4302 38.7434 70.2116C37.7502 69.946 36.9311 69.3 36.1389 68.6753C35.515 68.1833 34.9257 67.7185 34.3451 67.5335C33.4903 67.2608 32.593 67.3182 31.7252 67.3742C30.8779 67.4285 30.0775 67.4797 29.3793 67.2153C27.6436 66.5581 27.1795 65.9237 26.7308 65.3102C26.4046 64.8643 26.1228 64.4793 25.2308 64.0351C24.9943 63.9172 24.8851 63.5998 24.9868 63.326C25.0886 63.0525 25.3626 62.9262 25.5993 63.0437C26.6928 63.5884 27.0911 64.1326 27.4424 64.6129C27.8242 65.1347 28.1846 65.6276 29.6693 66.1898C30.201 66.3913 30.9165 66.3452 31.6737 66.2968C32.5725 66.2393 33.591 66.1739 34.5927 66.4932C35.3228 66.7259 35.9743 67.2397 36.6641 67.7836C37.3851 68.3523 38.1308 68.9402 38.9534 69.1602C39.6025 69.3342 40.368 69.2086 41.1786 69.0759C42.061 68.9316 42.9737 68.7821 43.8846 68.9825C44.6776 69.1569 45.4209 69.647 46.1397 70.121C46.8744 70.6055 47.6341 71.1066 48.4156 71.2426C49.1021 71.3622 49.871 71.1655 50.6849 70.9572C51.5413 70.738 52.4267 70.5114 53.3208 70.6272C54.1411 70.7335 54.9239 71.1618 55.6809 71.576C56.4716 72.0086 57.2184 72.4172 57.9875 72.4829C58.6931 72.5426 59.4527 72.277 60.2574 71.9955C61.0907 71.7038 61.9517 71.4025 62.8386 71.4388C63.6721 71.473 64.4852 71.8328 65.2717 72.1807C66.0813 72.5389 66.846 72.8773 67.6053 72.8773C67.6087 72.8773 67.6121 72.8773 67.6157 72.8773C67.8725 72.8773 68.081 73.1178 68.0819 73.4152C68.0826 73.7131 67.8746 73.9554 67.6171 73.9564H67.6055L67.6054 73.9561Z" fill="black"/>
<path d="M86.5376 53.5192C96.215 53.5192 104.06 44.44 104.06 33.2402C104.06 22.0404 96.215 12.9612 86.5376 12.9612C76.8601 12.9612 69.015 22.0404 69.015 33.2402C69.015 44.44 76.8601 53.5192 86.5376 53.5192Z" fill="#FFB318"/>
<g opacity="0.8">
<path d="M71.3543 26.49C71.5617 25.5341 71.883 24.6115 72.2786 23.7338C72.6718 22.8538 73.1481 22.0223 73.6864 21.2496C74.225 20.4773 74.8283 19.7646 75.4905 19.1368C76.1495 18.5061 76.8639 17.953 77.631 17.5247C77.7083 17.4816 77.801 17.519 77.8382 17.6084C77.8693 17.6829 77.8515 17.7704 77.8001 17.8222C77.1702 18.4567 76.5595 19.0924 75.9806 19.7616C75.4047 20.4339 74.8573 21.1322 74.3462 21.8654C73.8346 22.5981 73.3622 23.3664 72.9199 24.1617C72.4798 24.9593 72.0786 25.7876 71.686 26.6372L71.6857 26.6378C71.6391 26.7386 71.5308 26.7767 71.4436 26.7227C71.3696 26.677 71.3348 26.5798 71.3544 26.4897L71.3543 26.49Z" fill="white"/>
</g>
<g opacity="0.8">
<path d="M70.5338 30.2845C70.4972 30.0498 70.4969 29.8193 70.5093 29.591C70.5237 29.3631 70.5544 29.1379 70.5992 28.9165C70.6437 28.695 70.7032 28.4775 70.7806 28.2667C70.8584 28.0562 70.9505 27.8508 71.0792 27.6616C71.1164 27.6069 71.1849 27.5975 71.2321 27.6404C71.2572 27.6633 71.2714 27.6974 71.2736 27.7315C71.2874 27.969 71.2713 28.1928 71.2477 28.4136C71.2237 28.6341 71.1886 28.8501 71.1452 29.0638C71.1022 29.2777 71.0519 29.4895 70.9921 29.7002C70.9305 29.9105 70.8628 30.1202 70.7659 30.3269L70.7655 30.3275C70.7328 30.3973 70.6573 30.4232 70.5969 30.3853C70.5626 30.3638 70.5404 30.3256 70.5338 30.2845Z" fill="white"/>
</g>
<path d="M86.5431 54.058C76.6241 54.058 68.5543 44.7188 68.5543 33.2395C68.5543 21.7601 76.6241 12.4209 86.5431 12.4209C96.4621 12.4209 104.532 21.7601 104.532 33.2395C104.532 44.7188 96.4621 54.058 86.5431 54.058ZM86.5431 13.5001C77.1382 13.5001 69.4867 22.3552 69.4867 33.2396C69.4867 44.124 77.1382 52.9791 86.5431 52.9791C95.948 52.9791 103.599 44.124 103.599 33.2396C103.599 22.3552 95.948 13.5001 86.5431 13.5001Z" fill="black"/>
<g opacity="0.55">
<path d="M86.5378 49.1819C94.1489 49.1819 100.319 42.0414 100.319 33.2331C100.319 24.4247 94.1489 17.2842 86.5378 17.2842C78.9268 17.2842 72.7568 24.4247 72.7568 33.2331C72.7568 42.0414 78.9268 49.1819 86.5378 49.1819Z" fill="#DD7700"/>
</g>
<path d="M74.354 34.0361C74.354 25.2279 80.5239 18.0872 88.135 18.0872C89.7688 18.0872 91.3359 18.4171 92.7902 19.021C90.9137 17.9137 88.789 17.2888 86.5382 17.2888C78.9271 17.2888 72.7572 24.4293 72.7572 33.2377C72.7572 40.1551 76.5628 46.0432 81.883 48.2527C77.4143 45.6153 74.354 40.2394 74.354 34.036V34.0361Z" fill="#DD7700"/>
<path d="M75.4976 43.0311C74.8773 42.3488 74.3728 41.5345 73.9622 40.6642C73.7541 40.23 73.5816 39.7745 73.4174 39.3158C73.3345 39.0868 73.2648 38.8517 73.188 38.6198C73.1192 38.3846 73.0521 38.1486 72.9875 37.9117C72.493 36.0084 72.2992 34.0001 72.421 32.0159C72.4801 31.0235 72.6152 30.036 72.8293 29.071C73.0429 28.1058 73.3402 27.1658 73.7052 26.2636C74.4361 24.4589 75.4537 22.8112 76.6909 21.4242C77.9313 20.0414 79.3894 18.9189 80.9757 18.1411C82.5614 17.3625 84.2712 16.9265 85.9897 16.8621C87.7075 16.7912 89.4359 17.0886 91.0597 17.7343C91.8713 18.0574 92.6584 18.4635 93.4038 18.9539C94.1442 19.452 94.8315 20.0678 95.3754 20.8397C95.4128 20.8929 95.406 20.9712 95.36 21.0145C95.3256 21.047 95.279 21.0507 95.242 21.028L95.2414 21.0276C94.493 20.5692 93.7921 20.0898 93.0704 19.6468C92.3538 19.1959 91.6047 18.8148 90.831 18.5193C89.2845 17.9261 87.645 17.6651 86.0191 17.7527C84.3944 17.8396 82.7845 18.255 81.291 18.9957C79.7972 19.7352 78.4276 20.8021 77.2612 22.1081C76.0905 23.4099 75.1253 24.9592 74.4299 26.6582C73.7312 28.3559 73.3143 30.2054 73.1863 32.0815C73.055 33.9586 73.2223 35.8641 73.676 37.6748C73.9007 38.5819 74.2128 39.4564 74.5678 40.306C74.9187 41.1597 75.3101 41.9897 75.705 42.8468L75.7055 42.8479C75.7399 42.9226 75.7156 43.0154 75.651 43.0552C75.5994 43.087 75.5377 43.0751 75.4975 43.031L75.4976 43.0311Z" fill="black"/>
<path d="M98.7376 25.5618C99.0422 25.9169 99.2788 26.3271 99.4801 26.7573C99.6793 27.1893 99.8284 27.6483 99.9632 28.1114C100.23 29.0388 100.429 29.9937 100.549 30.9625C100.791 32.8995 100.729 34.8858 100.374 36.803C100.195 37.7611 99.9451 38.7031 99.6157 39.6076C99.2864 40.5118 98.8871 41.3818 98.4245 42.2038C97.4995 43.8483 96.3196 45.3 94.9564 46.4691C92.2259 48.8039 88.7481 49.9378 85.3736 49.5782C84.5304 49.4936 83.6936 49.3235 82.8765 49.0683C82.0589 48.8148 81.2649 48.4649 80.5024 48.0432C79.7403 47.62 79.0114 47.1182 78.3268 46.5463C77.6393 45.9822 77.0078 45.3089 76.5581 44.4694C76.5168 44.3923 76.5373 44.2911 76.6039 44.2433C76.652 44.2088 76.7111 44.2116 76.7556 44.2449L76.7568 44.2458C77.4581 44.7706 78.0815 45.3435 78.7342 45.8874C79.3896 46.4237 80.0859 46.8921 80.812 47.2853C81.5386 47.677 82.2937 48.0001 83.0698 48.2312C83.8454 48.4637 84.6383 48.6155 85.4365 48.6865C87.0332 48.8328 88.6509 48.6464 90.1876 48.1378C91.724 47.6296 93.1845 46.8058 94.4653 45.6986C95.7517 44.6015 96.8687 43.238 97.7452 41.6906C98.1839 40.9172 98.5628 40.0985 98.8759 39.2469C99.1865 38.3943 99.4327 37.5101 99.6092 36.607C99.9612 34.8016 100.039 32.9188 99.825 31.0791C99.7202 30.159 99.5398 29.2508 99.2941 28.3669C99.1713 27.9243 99.0219 27.4942 98.8985 27.0491C98.77 26.6057 98.6433 26.1598 98.558 25.6752L98.5577 25.6733C98.546 25.6066 98.5832 25.5415 98.6408 25.5279C98.677 25.5193 98.7131 25.5338 98.7376 25.5618Z" fill="black"/>
<path d="M96.4034 21.9082C96.5924 22.0041 96.7547 22.1353 96.9059 22.279C97.0566 22.4235 97.1941 22.5837 97.3187 22.7562C97.4437 22.9284 97.5567 23.1122 97.6552 23.3076C97.7523 23.5042 97.8377 23.71 97.8904 23.9391C97.9092 24.0212 97.8668 24.1056 97.7957 24.1273C97.7574 24.1391 97.7186 24.1302 97.6879 24.1068L97.6867 24.1059C97.519 23.9762 97.3777 23.8284 97.2418 23.6769C97.1074 23.5243 96.9813 23.3656 96.8611 23.201C96.7406 23.0369 96.6269 22.8662 96.5206 22.6859C96.4148 22.5051 96.3143 22.3174 96.2352 22.1011L96.2349 22.1003C96.2074 22.0254 96.2377 21.939 96.3025 21.9073C96.336 21.891 96.3725 21.8927 96.4034 21.9082Z" fill="black"/>
<g opacity="0.8">
<path d="M101.361 37.3803C101.241 38.4542 100.985 39.5094 100.631 40.519C100.28 41.5307 99.8236 42.4954 99.2855 43.3927C98.7469 44.2895 98.124 45.1191 97.4281 45.8521C96.7349 46.5874 95.9712 47.2328 95.145 47.7372C95.1053 47.7614 95.0562 47.7439 95.0353 47.6979C95.0174 47.6587 95.0259 47.6114 95.0535 47.5834C95.7471 46.8775 96.4073 46.1519 97.0191 45.3783C97.6283 44.6026 98.1917 43.7859 98.7004 42.9256C99.2099 42.0659 99.6624 41.1627 100.065 40.2261C100.465 39.2874 100.806 38.3138 101.119 37.3128C101.142 37.2373 101.214 37.1981 101.279 37.2251C101.336 37.2484 101.369 37.3142 101.361 37.3803Z" fill="white"/>
</g>
<path d="M92.2804 27.7469C92.2804 28.0322 92.2144 28.2712 92.0825 28.4644C91.9506 28.6581 91.7832 28.8208 91.5812 28.9529C91.3789 29.0855 91.1632 29.1819 90.9349 29.2429C90.706 29.304 90.495 29.3345 90.3017 29.3345C90.0024 29.3345 89.7122 29.2787 89.431 29.1665C89.1495 29.0549 88.8638 28.9375 88.5734 28.8154C88.2832 28.6932 87.9708 28.5763 87.6369 28.4643C87.3026 28.3526 86.9331 28.2964 86.5288 28.2964C86.3705 28.2964 86.1812 28.3169 85.9615 28.3575C85.7414 28.3985 85.5349 28.4696 85.3415 28.5712C85.1478 28.6733 84.9853 28.8054 84.8534 28.9682C84.7215 29.1313 84.6555 29.3346 84.6555 29.5788C84.6555 29.9453 84.8402 30.2762 85.2096 30.5712C85.5789 30.8665 86.0448 31.1718 86.6079 31.4872C87.1706 31.8029 87.7729 32.1488 88.4152 32.5253C89.057 32.9021 89.6594 33.3344 90.2224 33.8228C90.7852 34.3113 91.2514 34.8762 91.6208 35.5173C91.9901 36.1585 92.1748 36.917 92.1748 37.792C92.1748 38.5453 92.0603 39.1458 91.8318 39.5933C91.603 40.0413 91.3041 40.4024 90.9348 40.6771C90.5654 40.952 90.1432 41.1656 89.6684 41.3183C89.1935 41.471 88.7185 41.6189 88.2436 41.7611C88.1554 41.7816 88.1072 41.8984 88.0985 42.1121C88.0894 42.3258 88.0854 42.5807 88.0854 42.8753C88.0854 43.17 88.0807 43.486 88.0722 43.8218C88.0631 44.1577 88.0149 44.4683 87.9271 44.753C87.8388 45.0378 87.6982 45.2768 87.5049 45.4706C87.3112 45.6638 87.03 45.7606 86.6607 45.7606C86.3264 45.7606 86.0142 45.6332 85.724 45.3789C85.4338 45.1243 85.2887 44.7935 85.2887 44.3867C85.2887 44.224 85.2928 44.0661 85.3019 43.9134C85.3106 43.7608 85.3151 43.6034 85.3151 43.4402V43.1044C85.3151 42.9416 85.306 42.7684 85.2887 42.5852C85.2709 42.4021 85.2446 42.2394 85.2096 42.0968C85.1741 41.9546 85.1304 41.873 85.0776 41.8525C84.7433 41.7509 84.3298 41.6389 83.8376 41.5167C83.345 41.3945 82.8746 41.2266 82.426 41.0128C81.9774 40.7991 81.5949 40.5295 81.2783 40.2038C80.9616 39.8785 80.8033 39.461 80.8033 38.952C80.8033 38.484 80.9571 38.0971 81.2651 37.7918C81.5726 37.4864 81.9201 37.3338 82.3072 37.3338C82.6411 37.3338 82.971 37.3949 83.2966 37.5169C83.6218 37.6391 83.9562 37.7717 84.2992 37.9138C84.6422 38.0565 84.9939 38.1886 85.3546 38.3107C85.7149 38.4329 86.0889 38.4939 86.4759 38.4939C86.6165 38.4939 86.7925 38.4787 87.0036 38.4482C87.2146 38.4176 87.4166 38.3566 87.6104 38.265C87.8038 38.1734 87.9708 38.0513 88.1117 37.8986C88.2523 37.7459 88.3228 37.5475 88.3228 37.3033C88.3228 37.0795 88.2345 36.8759 88.0589 36.6926C87.8829 36.5094 87.6763 36.3467 87.4389 36.2041C87.2015 36.062 86.9595 35.9345 86.7134 35.8224C86.4669 35.7108 86.2735 35.6239 86.133 35.5629C85.5698 35.2986 84.9807 34.9881 84.3652 34.6317C83.7493 34.2758 83.182 33.8584 82.6634 33.38C82.1444 32.9019 81.7136 32.3471 81.3706 31.716C81.0276 31.0853 80.8561 30.3525 80.8561 29.5176C80.8561 28.7849 80.9835 28.1184 81.2386 27.5178C81.4934 26.9176 81.8364 26.4034 82.2676 25.9759C82.6984 25.5485 83.191 25.2078 83.7452 24.953C84.1644 24.7607 84.6012 24.6294 85.0557 24.5591C85.3212 24.5181 85.5342 24.2845 85.5756 23.9782C85.6153 23.6844 85.6517 23.3885 85.6845 23.0906C85.7373 22.6127 85.8164 22.1394 85.9219 21.6709C86.0802 21.0402 86.4669 20.7244 87.0828 20.7244C87.3289 20.7244 87.5664 20.8007 87.7951 20.9534C88.0236 21.106 88.1381 21.335 88.1381 21.6403C88.1381 22.0477 88.1118 22.4851 88.059 22.9532C88.0312 23.1997 88.0059 23.4377 87.9829 23.6672C87.949 24.0063 88.1342 24.3218 88.4184 24.4134C88.6359 24.4834 88.859 24.5614 89.088 24.6478C89.4925 24.8005 89.8836 24.9836 90.2621 25.1974C90.6401 25.4111 90.9918 25.6706 91.3174 25.976C91.6426 26.2813 91.902 26.6377 92.0958 27.0445C92.1486 27.1667 92.1923 27.2841 92.2277 27.3957C92.2627 27.5079 92.2805 27.6247 92.2805 27.7468L92.2804 27.7469Z" fill="#FFB318"/>
<g opacity="0.8">
<path d="M81.7526 28.9325C81.7692 28.5179 81.8677 28.1021 82.0233 27.7234C82.1764 27.3439 82.3794 26.9868 82.6282 26.678C82.8772 26.368 83.1621 26.1032 83.4699 25.8903C83.7773 25.6752 84.1082 25.5085 84.4524 25.4082C84.4895 25.3973 84.5273 25.4235 84.5366 25.4664C84.544 25.5005 84.5308 25.5354 84.5068 25.5535C84.2165 25.7727 83.9365 25.9912 83.6751 26.2333C83.4142 26.4766 83.1672 26.7325 82.9512 27.0166C82.7355 27.3017 82.54 27.6069 82.3697 27.9357C82.1975 28.2627 82.0575 28.6073 81.9305 28.9762L81.9303 28.9768C81.9115 29.0315 81.8578 29.0583 81.8106 29.0365C81.7731 29.0192 81.751 28.9766 81.7526 28.9325Z" fill="white"/>
</g>
<g opacity="0.8">
<path d="M81.7324 30.74C81.6704 30.6334 81.6354 30.5181 81.6111 30.4014C81.5871 30.2844 81.5774 30.1651 81.5784 30.0463C81.5793 29.9274 81.5906 29.8089 81.6134 29.6917C81.6383 29.575 81.6707 29.4595 81.729 29.3507C81.7466 29.3179 81.7837 29.3078 81.8121 29.3281C81.8244 29.3369 81.8331 29.3501 81.8375 29.365L81.8378 29.3658C81.8726 29.4843 81.8883 29.5968 81.9034 29.7086C81.9164 29.82 81.9242 29.9303 81.9281 30.0403C81.9322 30.1501 81.9318 30.2596 81.9248 30.3705C81.9174 30.4817 81.9064 30.5937 81.8762 30.713L81.8757 30.7145C81.8633 30.7636 81.8188 30.7916 81.7763 30.7773C81.7577 30.771 81.7425 30.7574 81.7323 30.7401L81.7324 30.74Z" fill="white"/>
</g>
<g opacity="0.8">
<path d="M84.4881 38.8145C84.5591 38.8008 84.6239 38.8085 84.6878 38.8191C84.7503 38.8318 84.8114 38.8483 84.8696 38.8751C84.9287 38.8985 84.9862 38.9274 85.0423 38.9616C85.0983 38.996 85.1533 39.034 85.2048 39.0858L85.2067 39.0876C85.2404 39.1215 85.2439 39.1806 85.2146 39.2196C85.1999 39.2393 85.1793 39.2501 85.1584 39.2517C85.0906 39.2564 85.0264 39.2472 84.9632 39.2347C84.9 39.2218 84.8383 39.2036 84.7783 39.18C84.7172 39.1598 84.6591 39.1294 84.6024 39.095C84.5474 39.057 84.4936 39.0156 84.4459 38.9532C84.4192 38.9186 84.4218 38.8655 84.4519 38.8347C84.4623 38.8239 84.4754 38.8171 84.4883 38.8146L84.4881 38.8145Z" fill="white"/>
</g>
<g opacity="0.8">
<path d="M81.9635 38.4408C82.1181 38.2937 82.3148 38.2068 82.5156 38.1691C82.6181 38.1514 82.7163 38.1471 82.8123 38.1488C82.9095 38.1501 83.0064 38.1604 83.1024 38.1768C83.2949 38.2068 83.4837 38.265 83.6628 38.3468C83.8361 38.4298 84.0017 38.518 84.1644 38.6253C84.2172 38.6601 84.2356 38.7378 84.2054 38.7988C84.1828 38.8445 84.1394 38.868 84.0968 38.862L84.0944 38.8617C83.9105 38.836 83.7301 38.7887 83.5563 38.7409C83.387 38.6968 83.2184 38.6613 83.0489 38.6353C82.964 38.6236 82.8789 38.6148 82.7936 38.6061C82.7073 38.5984 82.6225 38.5897 82.543 38.588C82.3796 38.5813 82.217 38.6015 82.0403 38.6321L82.0374 38.6326C81.9859 38.6415 81.938 38.6005 81.9303 38.541C81.9251 38.5018 81.9389 38.4643 81.9635 38.4408Z" fill="white"/>
</g>
<g opacity="0.8">
<path d="M86.0712 44.0429C86.0295 43.9429 86.0038 43.8254 85.9932 43.722C85.9794 43.619 85.9723 43.5155 85.9635 43.4113C85.9565 43.3047 85.9509 43.207 85.9479 43.1106C85.9443 43.0133 85.943 42.9168 85.9435 42.8197C85.9408 42.7193 85.9399 42.6189 85.9414 42.5185C85.9405 42.4204 85.9389 42.3281 85.9441 42.2316C85.9466 42.1365 85.9617 42.0376 85.9671 41.9418C85.9739 41.8455 85.9832 41.7472 86.006 41.6419L86.0087 41.6292C86.0211 41.5719 86.0714 41.5369 86.1211 41.5513C86.1452 41.5584 86.1649 41.5758 86.1771 41.5983C86.2277 41.6913 86.2648 41.7912 86.2994 41.8932C86.3334 41.9955 86.3455 42.0989 86.3623 42.2039C86.3764 42.3079 86.3894 42.4159 86.3925 42.5186C86.394 42.6191 86.3931 42.7195 86.3904 42.8199C86.3857 42.9235 86.3784 43.0278 86.3694 43.1313C86.3608 43.2357 86.3495 43.3386 86.337 43.4328C86.3224 43.5295 86.3097 43.6266 86.2904 43.7244C86.2715 43.8217 86.2593 43.9057 86.2501 44.003L86.2496 44.0076C86.244 44.0674 86.1974 44.1104 86.1458 44.1039C86.1124 44.0997 86.0849 44.0755 86.0712 44.0429Z" fill="white"/>
</g>
<g opacity="0.8">
<path d="M86.316 23.9277C86.2968 23.7346 86.2957 23.5477 86.303 23.358C86.3105 23.1662 86.329 22.975 86.3608 22.7868C86.3917 22.5984 86.4338 22.4125 86.4871 22.2305C86.5133 22.1386 86.543 22.0522 86.5776 21.9569C86.6164 21.8623 86.6608 21.7729 86.72 21.6939C86.7527 21.6504 86.8094 21.6458 86.847 21.6835C86.8716 21.7083 86.8819 21.7453 86.8766 21.7802L86.876 21.7845C86.8626 21.8737 86.849 21.9607 86.8416 22.0463C86.8341 22.1326 86.8254 22.229 86.814 22.3199C86.7931 22.5041 86.7685 22.6863 86.7409 22.8678C86.7143 23.0495 86.6819 23.23 86.6472 23.4109C86.6119 23.594 86.5689 23.78 86.5034 23.9591C86.4823 24.0169 86.4248 24.0438 86.375 24.0194C86.3414 24.0029 86.3199 23.967 86.3159 23.9278L86.316 23.9277Z" fill="white"/>
</g>
<g opacity="0.55">
<path d="M91.4365 26.3043C91.4893 26.4265 91.533 26.5439 91.5685 26.6555C91.6035 26.7677 91.6213 26.8845 91.6213 27.0066C91.6213 27.2918 91.5553 27.5309 91.4234 27.7241C91.2914 27.9178 91.124 28.0805 90.922 28.2126C90.7196 28.3452 90.5039 28.4416 90.2756 28.5026C90.0467 28.5636 89.8356 28.5941 89.6423 28.5941C89.3429 28.5941 89.0527 28.5384 88.7714 28.4262C88.4899 28.3146 88.2041 28.1972 87.9138 28.075C87.6234 27.9528 87.311 27.836 86.9771 27.724C86.6427 27.6123 86.2732 27.556 85.8688 27.556C85.7105 27.556 85.5211 27.5766 85.3015 27.6171C85.0813 27.6582 84.8748 27.7293 84.6813 27.8309C84.4876 27.933 84.3251 28.0651 84.1932 28.2278C84.0612 28.391 83.9952 28.5943 83.9952 28.8385C83.9952 29.2049 84.18 29.5359 84.5494 29.8308C84.6085 29.878 84.6709 29.9256 84.7348 29.9732C84.6807 29.8434 84.6534 29.7085 84.6534 29.5685C84.6534 29.3242 84.7194 29.121 84.8513 28.9578C84.9833 28.7951 85.1458 28.663 85.3395 28.5609C85.5329 28.4592 85.7394 28.3881 85.9596 28.3471C86.1794 28.3066 86.3686 28.286 86.5269 28.286C86.9315 28.286 87.3009 28.3423 87.6352 28.4539C87.9692 28.5661 88.2817 28.6829 88.5719 28.805C88.8622 28.9272 89.1479 29.0445 89.4296 29.1562C89.7107 29.2683 90.0011 29.3241 90.3004 29.3241C90.4939 29.3241 90.705 29.2936 90.9337 29.2325C91.1622 29.1714 91.3778 29.0751 91.5802 28.9425C91.7822 28.8104 91.9496 28.6477 92.0815 28.454C92.2135 28.2608 92.2795 28.0218 92.2795 27.7365C92.2795 27.6144 92.2617 27.4975 92.2267 27.3855C92.1912 27.2738 92.1475 27.1565 92.0947 27.0343C91.901 26.6273 91.6416 26.2709 91.3162 25.9657C91.2675 25.92 91.2169 25.8774 91.1669 25.8337C91.2674 25.9824 91.3576 26.1391 91.4363 26.3045L91.4365 26.3043Z" fill="#DD7700"/>
<path d="M90.459 34.0339C90.6421 34.2702 90.8099 34.5186 90.9608 34.7803C91.3302 35.4215 91.515 36.18 91.515 37.055C91.515 37.8083 91.4004 38.4088 91.1719 38.8563C90.943 39.3043 90.6441 39.6654 90.2747 39.9401C89.9053 40.215 89.483 40.4286 89.0081 40.5813C88.5331 40.734 88.0582 40.8819 87.5832 41.0241C87.4949 41.0446 87.4467 41.1614 87.438 41.3751C87.4289 41.5888 87.4249 41.8437 87.4249 42.1384C87.4249 42.4331 87.4203 42.749 87.4117 43.0849C87.4026 43.4207 87.3544 43.7313 87.2666 44.016C87.1783 44.3008 87.0377 44.5398 86.8444 44.7336C86.6506 44.9268 86.3694 45.0236 86 45.0236C85.7463 45.0236 85.529 44.9648 85.3616 44.8433C85.4319 45.0455 85.5509 45.2221 85.7214 45.3719C86.0117 45.6262 86.3239 45.7536 86.6583 45.7536C87.0277 45.7536 87.3089 45.6567 87.5026 45.4636C87.6961 45.2699 87.8366 45.0309 87.9248 44.746C88.0127 44.4612 88.0609 44.1506 88.07 43.8148C88.0786 43.4789 88.0831 43.1636 88.0831 42.8683C88.0831 42.573 88.0872 42.3187 88.0963 42.1051C88.105 41.8913 88.1532 41.7745 88.2414 41.754C88.7164 41.6119 89.1914 41.4639 89.6664 41.3113C90.1414 41.1586 90.5636 40.9448 90.933 40.6701C91.3024 40.3954 91.6013 40.0341 91.8302 39.5863C92.0586 39.1388 92.1732 38.5382 92.1732 37.785C92.1732 36.9101 91.9885 36.1515 91.6191 35.5103C91.3033 34.9623 90.9162 34.4705 90.459 34.0341V34.0339Z" fill="#DD7700"/>
<path d="M87.4773 20.9024C87.4773 21.3098 87.451 21.7473 87.3981 22.2152C87.347 22.6674 87.2004 23.1501 87.3017 23.6065C87.4012 24.0543 87.8604 24.3236 88.2254 24.4123C88.3462 24.4417 88.4693 24.4538 88.5927 24.4642C88.5342 24.4445 88.475 24.4239 88.4173 24.4053C88.1327 24.3138 87.9472 23.9982 87.9811 23.6591C88.004 23.4296 88.0295 23.1917 88.0573 22.9451C88.1102 22.4771 88.1366 22.0396 88.1366 21.6322C88.1366 21.3269 88.0218 21.0979 87.793 20.9453C87.6875 20.875 87.5801 20.8217 87.4707 20.7837C87.4749 20.8219 87.4773 20.8614 87.4773 20.9024Z" fill="#DD7700"/>
<path d="M84.994 41.65C84.9766 41.4198 84.9426 41.1778 84.8148 41.0002C84.6645 40.7914 84.4195 40.7175 84.1909 40.6549C83.7902 40.5453 83.3895 40.4356 82.9888 40.326C82.4707 40.1842 81.948 40.0406 81.4673 39.7759C81.2397 39.6507 81.0212 39.4949 80.8271 39.3085C80.8861 39.6572 81.0346 39.9542 81.273 40.199C81.5897 40.5247 81.9724 40.7943 82.4211 41.008C82.8699 41.2217 83.3404 41.3897 83.8332 41.5119C84.2922 41.6257 84.6819 41.7307 85.0037 41.8268C85.0008 41.7679 84.9984 41.7088 84.994 41.65Z" fill="#DD7700"/>
</g>
<path d="M86.6575 46.1474C86.2499 46.1474 85.8661 45.9925 85.5172 45.6865C85.1448 45.3598 84.9481 44.9089 84.9481 44.3828C84.9481 44.2076 84.9528 44.0393 84.9621 43.8827C84.9704 43.7379 84.9746 43.5872 84.9746 43.4362V43.1003C84.9746 42.955 84.9663 42.7947 84.9501 42.6238C84.9347 42.4639 84.9117 42.3209 84.8819 42.1997C84.8814 42.1977 84.8809 42.1958 84.8804 42.1939C84.5707 42.1023 84.1958 42.0019 83.7639 41.8947C83.2545 41.7684 82.7603 41.5919 82.2947 41.3702C81.813 41.1405 81.3946 40.845 81.0513 40.4918C80.6611 40.0907 80.4633 39.5713 80.4633 38.948C80.4633 38.3626 80.6583 37.8724 81.0429 37.4911C81.4118 37.1249 81.8364 36.9391 82.3047 36.9391C82.6724 36.9391 83.0402 37.0071 83.3981 37.1414C83.7179 37.2615 84.0585 37.3963 84.4103 37.5422C84.7436 37.6808 85.0921 37.8119 85.4466 37.9319C85.7745 38.0431 86.1198 38.0995 86.4731 38.0995C86.5991 38.0995 86.7626 38.0851 86.9589 38.0567C87.1391 38.0305 87.3144 37.9777 87.4799 37.8995C87.6337 37.8266 87.7677 37.729 87.878 37.6095C87.9499 37.5314 87.9822 37.4357 87.9822 37.2995C87.9822 37.2302 87.9665 37.1214 87.8299 36.979C87.6766 36.8193 87.4916 36.6739 87.2804 36.547C87.0536 36.4112 86.8201 36.2884 86.587 36.1822C86.3429 36.0716 86.1511 35.9855 86.0115 35.9249C85.4366 35.6551 84.8338 35.3377 84.2115 34.9771C83.5785 34.6113 82.9859 34.1753 82.4505 33.6815C81.9047 33.1787 81.4444 32.5861 81.0824 31.92C80.7067 31.229 80.5162 30.4194 80.5162 29.5137C80.5162 28.724 80.6564 27.9931 80.9333 27.3415C81.2075 26.6957 81.5816 26.1351 82.0456 25.6753C82.5017 25.2226 83.0307 24.8562 83.618 24.5861C84.0608 24.3828 84.5286 24.2423 85.0084 24.1681C85.1285 24.1496 85.2213 24.0475 85.2393 23.9142C85.2787 23.6225 85.3148 23.3276 85.3468 23.0374C85.4012 22.5452 85.4839 22.0511 85.5925 21.5685C85.7356 20.9977 86.1074 20.3298 87.0799 20.3298C87.3849 20.3298 87.6813 20.4244 87.9609 20.6111C88.2959 20.835 88.4728 21.1896 88.4728 21.6365C88.4728 22.0586 88.4452 22.5172 88.3909 22.9999C88.3634 23.2443 88.3382 23.4805 88.3154 23.7082C88.3006 23.856 88.3808 23.9927 88.506 24.033C88.7279 24.1045 88.9578 24.1849 89.1896 24.2724C89.6066 24.4298 90.0162 24.6215 90.407 24.8423C90.8059 25.0679 91.1827 25.3458 91.5268 25.6684C91.8843 26.004 92.174 26.4021 92.3882 26.852L92.3945 26.866C92.4511 26.9971 92.5005 27.1286 92.5412 27.2568C92.5903 27.4137 92.6147 27.5766 92.6147 27.7428C92.6147 28.1166 92.5237 28.4395 92.3441 28.7025C92.1863 28.9342 91.9843 29.1317 91.7441 29.2889C91.5154 29.4387 91.2675 29.55 91.0076 29.6196C90.755 29.6871 90.5165 29.7212 90.2984 29.7212C89.9626 29.7212 89.6327 29.6575 89.3178 29.532C89.0475 29.4248 88.7651 29.3091 88.455 29.1786C88.1762 29.0613 87.8682 28.9459 87.5398 28.8355C87.2369 28.7344 86.8955 28.6831 86.5258 28.6831C86.3866 28.6831 86.2137 28.702 86.0118 28.7394C85.8227 28.7746 85.6431 28.8364 85.4782 28.923C85.324 29.0043 85.1991 29.1053 85.0967 29.2316C85.0242 29.3212 84.9903 29.4305 84.9903 29.5748C84.9903 29.6601 84.9903 29.9197 85.3985 30.2456C85.7526 30.5287 86.208 30.8268 86.752 31.1315C87.3171 31.4487 87.9269 31.7989 88.5646 32.1727C89.2215 32.5583 89.8461 33.0068 90.4218 33.5062C91.013 34.0196 91.5098 34.622 91.8985 35.2966C92.3036 36.0001 92.5091 36.8383 92.5091 37.788C92.5091 38.6082 92.3781 39.281 92.1194 39.7881C91.8645 40.2871 91.5264 40.6954 91.1142 41.0019C90.7182 41.2965 90.2612 41.5284 89.7558 41.691C89.3028 41.8365 88.8587 41.9749 88.4341 42.1029C88.4336 42.1101 88.4332 42.1181 88.4329 42.1266C88.4243 42.3298 88.4201 42.5734 88.4201 42.8716C88.4201 43.1634 88.4156 43.4856 88.4067 43.8298C88.3966 44.2058 88.3413 44.5592 88.2422 44.8806C88.1344 45.2285 87.9599 45.5249 87.7231 45.7622C87.4664 46.0181 87.1083 46.1475 86.6578 46.1475L86.6575 46.1474ZM82.3045 37.7206C81.9978 37.7206 81.7288 37.8396 81.4821 38.0845C81.2507 38.314 81.1382 38.5965 81.1382 38.9482C81.1382 39.344 81.2564 39.6579 81.4997 39.9078C81.7864 40.2028 82.1402 40.4517 82.5517 40.6478C82.9799 40.8519 83.4354 41.0144 83.9052 41.131C84.3988 41.2534 84.821 41.3679 85.1602 41.4709L85.1819 41.4783C85.4284 41.574 85.5054 41.8831 85.5308 41.9847C85.5711 42.1487 85.6014 42.3344 85.621 42.538C85.6399 42.738 85.6494 42.927 85.6494 43.1006V43.4364C85.6494 43.6043 85.6447 43.7722 85.6355 43.9352C85.6273 44.0753 85.623 44.2255 85.623 44.3829C85.623 44.6668 85.7189 44.8831 85.9248 45.0639C86.1567 45.2672 86.3965 45.3662 86.6573 45.3662C86.9413 45.3662 87.1512 45.3005 87.2813 45.1708C87.4306 45.0212 87.537 44.8399 87.6059 44.6175C87.6812 44.3733 87.7234 44.1001 87.7314 43.806C87.74 43.4701 87.7444 43.1556 87.7444 42.8716C87.7444 42.5604 87.7488 42.3044 87.758 42.0892C87.7795 41.5604 88.0151 41.4156 88.1621 41.3772C88.6138 41.2418 89.0889 41.0942 89.5747 40.9382C90.0146 40.7966 90.4096 40.597 90.7486 40.3448C91.0714 40.1046 91.3368 39.7837 91.5376 39.3908C91.7341 39.006 91.8337 38.4668 91.8337 37.7882C91.8337 36.9955 91.6663 36.3031 91.3363 35.7303C90.9902 35.1295 90.5462 34.5916 90.0163 34.1315C89.4721 33.6594 88.8808 33.2349 88.259 32.8699C87.625 32.4981 87.0187 32.1499 86.4574 31.8348C85.8825 31.5128 85.397 31.1945 85.0145 30.8888C84.5503 30.5182 84.3148 30.076 84.3148 29.575C84.3148 29.2299 84.412 28.9347 84.6036 28.6975C84.7655 28.4979 84.9655 28.3347 85.1984 28.2119C85.4183 28.0964 85.6558 28.0144 85.9046 27.968C86.1453 27.9236 86.3482 27.9021 86.5254 27.9021C86.9586 27.9021 87.3628 27.9637 87.727 28.0852C88.0703 28.2004 88.3925 28.3213 88.6853 28.4445C88.9914 28.5734 89.27 28.6875 89.5368 28.7933C89.7813 28.8908 90.0372 28.9402 90.298 28.9402C90.4651 28.9402 90.6525 28.9127 90.8553 28.8585C91.0518 28.806 91.2389 28.7221 91.4112 28.6092C91.5747 28.5021 91.7101 28.3707 91.8136 28.2188C91.8981 28.095 91.939 27.9396 91.939 27.7431C91.939 27.6666 91.9283 27.5953 91.9063 27.5248C91.8755 27.4279 91.8371 27.3255 91.7929 27.2226C91.6213 26.8643 91.3885 26.5457 91.1009 26.2757C90.7965 25.9903 90.4632 25.7444 90.1101 25.5447C89.7472 25.3399 89.3669 25.1618 88.9796 25.0155C88.7572 24.9317 88.5367 24.8545 88.3243 24.786C87.877 24.642 87.5909 24.151 87.644 23.6188C87.6671 23.3875 87.6926 23.1477 87.7206 22.8991C87.7712 22.4498 87.7969 22.025 87.7969 21.6367C87.7969 21.4718 87.7464 21.3708 87.6227 21.2881C87.4446 21.1693 87.2668 21.1113 87.0792 21.1113C86.616 21.1113 86.358 21.3164 86.2426 21.7762C86.1437 22.2162 86.0665 22.6773 86.0158 23.1364C85.983 23.4338 85.9459 23.7362 85.9055 24.0349C85.841 24.5131 85.5161 24.878 85.0969 24.9428C84.6718 25.0085 84.2577 25.1329 83.8664 25.3125C83.3488 25.5506 82.8838 25.8723 82.4842 26.2688C82.0903 26.6594 81.7721 27.1363 81.5387 27.6864C81.3078 28.2299 81.1907 28.8447 81.1907 29.514C81.1907 30.2702 81.3463 30.9398 81.6532 31.5042C81.9747 32.0957 82.3842 32.6226 82.8705 33.0706C83.3691 33.5305 83.9215 33.9369 84.5127 34.2784C85.1194 34.6298 85.706 34.9389 86.2563 35.1972C86.3897 35.255 86.5845 35.3425 86.8329 35.455C87.0881 35.5711 87.3428 35.705 87.5906 35.8535C87.8528 36.0111 88.0851 36.1944 88.2812 36.3986C88.5918 36.7224 88.6569 37.0673 88.6569 37.2996C88.6569 37.6497 88.547 37.9542 88.3392 38.1798C88.1684 38.3648 87.9653 38.5137 87.7349 38.6228C87.5143 38.7271 87.2812 38.7975 87.0421 38.8322C86.8148 38.865 86.6286 38.881 86.4725 38.881C86.055 38.881 85.6458 38.8141 85.2563 38.6821C84.8889 38.5577 84.5273 38.4216 84.1817 38.2779C83.8366 38.1348 83.5026 38.0026 83.1892 37.885C82.8989 37.7761 82.601 37.7208 82.304 37.7208L82.3045 37.7206Z" fill="black"/>
<path d="M89.9011 84.788C96.3252 84.788 101.533 78.7611 101.533 71.3264C101.533 63.8917 96.3252 57.8647 89.9011 57.8647C83.477 57.8647 78.2693 63.8917 78.2693 71.3264C78.2693 78.7611 83.477 84.788 89.9011 84.788Z" fill="#FFB318"/>
<g opacity="0.8">
<path d="M79.8183 66.8434C79.9561 66.2088 80.1694 65.5964 80.4321 65.0137C80.6933 64.4296 81.0112 63.8791 81.3671 63.365C81.723 62.8504 82.127 62.3812 82.5647 61.9622C83.0022 61.5435 83.4766 61.1763 83.9859 60.892C84.0371 60.8634 84.0987 60.8883 84.1235 60.9476C84.1441 60.997 84.1323 61.0551 84.0982 61.0895C83.68 61.5107 83.2745 61.9326 82.8901 62.377C82.5057 62.821 82.1457 63.2884 81.8046 63.7733C81.4635 64.2585 81.1514 64.77 80.8578 65.2979C80.5657 65.8274 80.2993 66.3772 80.0386 66.9412C80.0078 67.0082 79.9359 67.0338 79.8779 66.9982C79.8288 66.9681 79.8055 66.9031 79.8183 66.8434Z" fill="white"/>
</g>
<g opacity="0.8">
<path d="M79.2749 69.356C79.2501 69.2002 79.251 69.0474 79.2587 68.8957C79.2682 68.7444 79.2886 68.5949 79.3184 68.4479C79.348 68.3009 79.3875 68.1565 79.4389 68.0166C79.4909 67.8769 79.5516 67.7406 79.6373 67.6149C79.662 67.5786 79.7075 67.5724 79.7389 67.6009C79.7556 67.6161 79.7649 67.6387 79.7664 67.6613C79.7757 67.8191 79.7646 67.9675 79.7492 68.1141C79.7333 68.2605 79.71 68.4039 79.6812 68.5458C79.6526 68.6878 79.6192 68.8284 79.5795 68.9682C79.5379 69.1077 79.4941 69.2472 79.4292 69.3842C79.4075 69.4307 79.3573 69.448 79.3171 69.4229C79.2944 69.4088 79.2796 69.3833 79.275 69.3562L79.2749 69.356Z" fill="white"/>
</g>
<path d="M89.9014 85.2587C83.2627 85.2587 77.8617 79.0081 77.8617 71.325C77.8617 63.642 83.2627 57.3914 89.9014 57.3914C96.5401 57.3914 101.941 63.642 101.941 71.325C101.941 79.0081 96.5401 85.2587 89.9014 85.2587ZM89.9014 58.3356C83.7126 58.3356 78.6776 64.1626 78.6776 71.325C78.6776 78.4874 83.7126 84.3145 89.9014 84.3145C96.0902 84.3145 101.125 78.4874 101.125 71.325C101.125 64.1626 96.0902 58.3356 89.9014 58.3356Z" fill="black"/>
<g opacity="0.55">
<path d="M89.8976 81.9117C94.95 81.9117 99.0457 77.1716 99.0457 71.3245C99.0457 65.4773 94.95 60.7373 89.8976 60.7373C84.8453 60.7373 80.7495 65.4773 80.7495 71.3245C80.7495 77.1716 84.8453 81.9117 89.8976 81.9117Z" fill="#DD7700"/>
</g>
<path d="M81.8103 71.853C81.8103 66.0058 85.906 61.2658 90.9584 61.2658C92.043 61.2658 93.0832 61.4848 94.0486 61.8857C92.803 61.1505 91.3926 60.7358 89.8985 60.7358C84.8461 60.7358 80.7504 65.4758 80.7504 71.323C80.7504 75.915 83.2767 79.8236 86.8083 81.2903C83.842 79.5396 81.8104 75.971 81.8104 71.853H81.8103Z" fill="#DD7700"/>
<path d="M82.5664 77.8185C82.154 77.3661 81.8197 76.8249 81.547 76.2473C81.2769 75.6671 81.0659 75.0507 80.8994 74.4202C80.5711 73.1566 80.4424 71.8234 80.5232 70.506C80.5994 69.1881 80.887 67.8835 81.3758 66.6869C81.861 65.4888 82.5366 64.395 83.358 63.474C84.1815 62.5559 85.1495 61.8107 86.2026 61.2944C87.2553 60.7775 88.3905 60.488 89.5313 60.4453C90.6718 60.3982 91.8193 60.5958 92.8973 61.0244C93.4362 61.2389 93.9587 61.5085 94.4536 61.8342C94.9436 62.1676 95.4016 62.5731 95.7621 63.0866C95.7871 63.1222 95.7824 63.1743 95.7516 63.2032C95.7287 63.2248 95.6973 63.227 95.6727 63.212C95.1754 62.9088 94.7119 62.5874 94.2313 62.2961C93.7557 61.9969 93.2586 61.7439 92.745 61.5478C91.7185 61.1542 90.6304 60.981 89.5512 61.0391C88.4727 61.097 87.4042 61.3725 86.413 61.8642C85.4215 62.3551 84.5125 63.0632 83.7383 63.9299C82.9613 64.7941 82.3206 65.8223 81.859 66.9499C81.3952 68.0768 81.1185 69.3043 81.0335 70.5495C80.9462 71.7956 81.0574 73.0602 81.3584 74.2621C81.5074 74.8643 81.7153 75.4444 81.9498 76.0088C82.1826 76.5756 82.4432 77.126 82.7047 77.6955L82.705 77.6962C82.7279 77.746 82.7114 77.8079 82.6685 77.8344C82.6342 77.8555 82.5931 77.8475 82.5664 77.8183V77.8185Z" fill="black"/>
<path d="M97.9963 66.2229C98.0971 66.3407 98.1888 66.4669 98.2678 66.6013C98.3521 66.7329 98.4216 66.874 98.4898 67.0161C98.6221 67.3028 98.7211 67.6076 98.8106 67.915C98.9881 68.5307 99.1201 69.1646 99.1993 69.8077C99.3605 71.0937 99.319 72.4124 99.0832 73.6852C98.6189 76.2389 97.2964 78.5532 95.4867 80.1025C93.6719 81.6512 91.3636 82.3944 89.1253 82.1593C88.0063 82.0499 86.903 81.7093 85.8918 81.1451C85.3857 80.8649 84.9015 80.5324 84.4467 80.1534C83.99 79.7794 83.5709 79.332 83.2727 78.7744C83.2452 78.723 83.2589 78.6555 83.3034 78.6237C83.3354 78.6007 83.3746 78.6027 83.4044 78.6248L83.4053 78.6254C83.871 78.9736 84.2851 79.3533 84.7181 79.7148C85.1527 80.0713 85.6145 80.383 86.0965 80.6447C87.0593 81.1719 88.1063 81.4851 89.1664 81.5796C91.2892 81.7837 93.4598 81.0618 95.1596 79.589C96.8708 78.1363 98.1147 75.9579 98.5738 73.5546C98.8074 72.3563 98.8587 71.1066 98.7171 69.8856C98.6476 69.2749 98.5278 68.6721 98.3647 68.0854C98.1947 67.499 97.9969 66.9358 97.8768 66.2984C97.8683 66.2541 97.8925 66.2102 97.9307 66.2004C97.9552 66.1941 97.98 66.2039 97.9965 66.2228L97.9963 66.2229Z" fill="black"/>
<path d="M96.4476 63.8034C96.5731 63.867 96.6806 63.9541 96.781 64.0495C96.8809 64.1455 96.9721 64.2518 97.0547 64.3663C97.1376 64.4806 97.2126 64.6026 97.278 64.7322C97.3423 64.8626 97.399 64.9993 97.434 65.1514C97.4465 65.2059 97.4184 65.2619 97.3712 65.2763C97.3458 65.2841 97.3201 65.2783 97.2996 65.2627L97.2989 65.2621C97.1877 65.1759 97.094 65.0778 97.0038 64.9773C96.9147 64.8759 96.831 64.7705 96.7513 64.6614C96.6713 64.5524 96.5959 64.4392 96.5254 64.3196C96.4553 64.1994 96.3885 64.0749 96.336 63.9313L96.3358 63.9307C96.3176 63.881 96.3377 63.8237 96.3807 63.8026C96.4029 63.7917 96.4271 63.7928 96.4476 63.8031V63.8034Z" fill="black"/>
<g opacity="0.8">
<path d="M99.7355 74.0754C99.6557 74.7883 99.4853 75.4887 99.2503 76.1589C99.1908 76.3261 99.127 76.4915 99.062 76.6561C98.9934 76.8187 98.9206 76.9791 98.8499 77.141C98.7752 77.3003 98.692 77.454 98.6133 77.6108C98.5298 77.764 98.4424 77.9145 98.3571 78.0666C98.2659 78.2139 98.1703 78.3578 98.0772 78.5033C97.9792 78.6446 97.8798 78.7847 97.7794 78.9236L97.4606 79.3219C97.3508 79.4508 97.2373 79.5753 97.1239 79.6992C96.6637 80.1873 96.1567 80.6157 95.6081 80.9506C95.5817 80.9667 95.5491 80.955 95.5352 80.9245C95.5233 80.8985 95.529 80.867 95.5473 80.8484C96.0078 80.3799 96.4462 79.8981 96.8523 79.3846C96.9504 79.2525 97.0505 79.123 97.1506 78.994L97.4358 78.5919L97.71 78.1805L97.9687 77.7565L98.2167 77.3242L98.4487 76.8799L98.6686 76.427L98.8747 75.9645C99.1401 75.3414 99.367 74.6952 99.5746 74.0306C99.5901 73.9806 99.6378 73.9545 99.6811 73.9725C99.7185 73.9879 99.7404 74.0315 99.7355 74.0754Z" fill="white"/>
</g>
<path d="M93.7113 67.6736C93.7113 67.8629 93.6675 68.0216 93.5798 68.1499C93.4922 68.2785 93.3811 68.3864 93.247 68.4742C93.1127 68.5623 92.9696 68.6261 92.8178 68.6668C92.6659 68.7073 92.5258 68.7276 92.3974 68.7276C92.1987 68.7276 92.0061 68.6906 91.8193 68.6162C91.6324 68.5421 91.4427 68.4642 91.25 68.3831C91.0573 68.302 90.8499 68.2245 90.6282 68.15C90.4063 68.0758 90.161 68.0384 89.8925 68.0384C89.7874 68.0384 89.6617 68.0521 89.5159 68.079C89.3697 68.1062 89.2326 68.1534 89.1043 68.2209C88.9757 68.2886 88.8678 68.3763 88.7801 68.4844C88.6925 68.5926 88.6488 68.7275 88.6488 68.8897C88.6488 69.1329 88.7715 69.3527 89.0166 69.5484C89.2619 69.7444 89.5712 69.9472 89.9451 70.1565C90.3187 70.3661 90.7186 70.5957 91.145 70.8455C91.5711 71.0957 91.9711 71.3827 92.3448 71.7069C92.7184 72.0312 93.028 72.4061 93.2733 72.8317C93.5186 73.2573 93.6411 73.7609 93.6411 74.3417C93.6411 74.8417 93.565 75.2404 93.4134 75.5375C93.2615 75.8349 93.063 76.0746 92.8178 76.2569C92.5726 76.4394 92.2923 76.5813 91.977 76.6827C91.6617 76.7839 91.3464 76.8821 91.0311 76.9765C90.9726 76.9902 90.9405 77.0677 90.9347 77.2096C90.9286 77.3515 90.9259 77.5206 90.9259 77.7163C90.9259 77.9119 90.9229 78.1216 90.9171 78.3446C90.9111 78.5676 90.8791 78.7737 90.8208 78.9628C90.7623 79.1519 90.6689 79.3105 90.5405 79.4391C90.4119 79.5673 90.2252 79.6316 89.98 79.6316C89.758 79.6316 89.5508 79.5471 89.3581 79.3783C89.1654 79.2092 89.0691 78.9898 89.0691 78.7196C89.0691 78.6116 89.0718 78.5068 89.0779 78.4054C89.0837 78.3042 89.0867 78.1997 89.0867 78.0913V77.8683C89.0867 77.7603 89.0806 77.6454 89.0691 77.5238C89.0573 77.4022 89.0398 77.2942 89.0165 77.1995C88.993 77.1051 88.9639 77.0509 88.9289 77.0373C88.7069 76.9698 88.4324 76.8955 88.1057 76.8144C87.7786 76.7333 87.4663 76.6218 87.1685 76.48C86.8708 76.3381 86.6168 76.1592 86.4065 75.9429C86.1964 75.727 86.0912 75.4498 86.0912 75.1119C86.0912 74.8013 86.1932 74.5444 86.3977 74.3418C86.6019 74.1392 86.8327 74.0378 87.0897 74.0378C87.3113 74.0378 87.5304 74.0783 87.7466 74.1594C87.9625 74.2404 88.1845 74.3285 88.4122 74.4229C88.6399 74.5176 88.8734 74.6053 89.1129 74.6863C89.3522 74.7674 89.6004 74.8079 89.8574 74.8079C89.9507 74.8079 90.0675 74.7978 90.2077 74.7776C90.3478 74.7572 90.482 74.7167 90.6106 74.656C90.739 74.5951 90.8498 74.5141 90.9434 74.4128C91.0367 74.3114 91.0835 74.1797 91.0835 74.0176C91.0835 73.869 91.0249 73.7338 90.9084 73.6122C90.7915 73.4906 90.6544 73.3826 90.4967 73.2879C90.339 73.1935 90.1785 73.109 90.015 73.0346C89.8514 72.9604 89.723 72.9028 89.6296 72.8623C89.2558 72.6869 88.8646 72.4807 88.456 72.2441C88.0471 72.0078 87.6705 71.7308 87.3262 71.4131C86.9816 71.0958 86.6956 70.7275 86.4679 70.3085C86.2402 69.8898 86.1263 69.4034 86.1263 68.8492C86.1263 68.3628 86.2109 67.9204 86.3803 67.5216C86.5495 67.1233 86.7772 66.7819 87.0634 66.4981C87.3495 66.2143 87.6766 65.9882 88.0444 65.8192C88.3227 65.6914 88.6126 65.6043 88.9144 65.5577C89.0907 65.5305 89.232 65.3754 89.2595 65.1721C89.2859 64.9771 89.31 64.7806 89.3319 64.5828C89.3669 64.2655 89.4195 63.9513 89.4895 63.6403C89.5946 63.2217 89.8514 63.012 90.2603 63.012C90.4237 63.012 90.5814 63.0627 90.7333 63.164C90.8849 63.2654 90.9611 63.4173 90.9611 63.62C90.9611 63.8905 90.9435 64.1808 90.9085 64.4915C90.8901 64.6552 90.8732 64.8131 90.858 64.9655C90.8355 65.1906 90.9584 65.4 91.1471 65.4607C91.2914 65.5072 91.4396 65.5591 91.5916 65.6164C91.8601 65.7178 92.1198 65.8394 92.3711 65.9813C92.6221 66.1232 92.8555 66.2954 93.0718 66.4981C93.2877 66.7007 93.4599 66.9373 93.5885 67.2075C93.6235 67.2885 93.6526 67.3664 93.6761 67.4406C93.6994 67.515 93.7112 67.5925 93.7112 67.6737L93.7113 67.6736Z" fill="#FFB318"/>
<g opacity="0.8">
<path d="M86.7188 68.4593C86.7298 68.1841 86.7952 67.9081 86.8986 67.6568C86.9485 67.5301 87.0096 67.4094 87.0754 67.292C87.1445 67.1773 87.218 67.0654 87.3004 66.9627C87.4659 66.7571 87.6551 66.5812 87.8596 66.4399C88.0637 66.2971 88.2835 66.1864 88.5123 66.1198C88.537 66.1126 88.562 66.1299 88.5683 66.1584C88.5732 66.181 88.5645 66.2041 88.5485 66.2162C88.3556 66.3617 88.1696 66.5068 87.9959 66.6674C87.8226 66.8289 87.6585 66.9989 87.5151 67.1874C87.3703 67.3754 87.2427 67.5801 87.1288 67.7976C87.0144 68.0146 86.9214 68.2434 86.837 68.4883C86.8247 68.5247 86.7892 68.5428 86.7577 68.5285C86.7328 68.5172 86.7179 68.4886 86.7188 68.4593Z" fill="white"/>
</g>
<g opacity="0.8">
<path d="M86.7121 69.6621C86.671 69.5913 86.6473 69.5149 86.6319 69.4373C86.6165 69.3596 86.6085 69.2807 86.6099 69.2017C86.6094 69.1228 86.624 69.044 86.6388 68.9664C86.6548 68.8888 86.6754 68.8122 86.7098 68.7398C86.7201 68.7179 86.7439 68.7099 86.7627 68.7219C86.7711 68.7272 86.7771 68.7354 86.7803 68.745L86.782 68.7498C86.8088 68.8288 86.8217 68.9038 86.83 68.978C86.8398 69.052 86.838 69.1246 86.842 69.1977C86.8453 69.2705 86.8435 69.3433 86.8395 69.4169C86.8353 69.4907 86.8274 69.5649 86.8075 69.6441L86.8073 69.645C86.7992 69.6776 86.7696 69.6963 86.7415 69.6868C86.729 69.6825 86.7189 69.6736 86.7122 69.662L86.7121 69.6621Z" fill="white"/>
</g>
<g opacity="0.8">
<path d="M88.5438 75.0166C88.591 75.0075 88.634 75.0126 88.6764 75.0196C88.7178 75.0283 88.7584 75.0393 88.7972 75.0569C88.8364 75.0725 88.8746 75.0916 88.9119 75.1143C88.9491 75.1372 88.9857 75.1625 89.0198 75.1969L89.0211 75.1981C89.0435 75.2206 89.0459 75.2598 89.0264 75.2856C89.0166 75.2987 89.0029 75.3059 88.9891 75.3069C88.944 75.3101 88.9014 75.304 88.8594 75.2957C88.8174 75.2871 88.7765 75.275 88.7365 75.2594C88.6559 75.2292 88.5794 75.189 88.5157 75.1088C88.4978 75.0863 88.499 75.0513 88.5185 75.0306C88.5256 75.0231 88.5342 75.0185 88.5431 75.0168H88.5439L88.5438 75.0166Z" fill="white"/>
</g>
<g opacity="0.8">
<path d="M86.8611 74.7692C86.9639 74.6716 87.0944 74.6139 87.2278 74.5888C87.3641 74.5684 87.4882 74.5716 87.6176 74.5941C87.7454 74.6139 87.8707 74.6526 87.9898 74.7069C88.105 74.762 88.2148 74.8205 88.3229 74.8918C88.3579 74.9149 88.3701 74.9664 88.3501 75.0069C88.3351 75.0373 88.3062 75.0528 88.2779 75.0489L88.2764 75.0487C88.1542 75.0317 88.0345 75.0002 87.919 74.9686C87.8066 74.9393 87.6945 74.9157 87.582 74.8984C87.4711 74.885 87.3518 74.8699 87.2459 74.8671C87.1375 74.8626 87.0294 74.876 86.912 74.8964L86.91 74.8967C86.8759 74.9027 86.844 74.8754 86.8389 74.836C86.8356 74.81 86.8447 74.7851 86.861 74.7695L86.8611 74.7692Z" fill="white"/>
</g>
<g opacity="0.8">
<path d="M89.5892 78.4943C89.5688 78.4278 89.5456 78.35 89.5374 78.281C89.5283 78.2127 89.5234 78.144 89.5178 78.0749C89.509 77.9343 89.5034 77.8131 89.5043 77.6822C89.5027 77.6156 89.5019 77.5489 89.503 77.4822C89.5023 77.4172 89.5013 77.3558 89.5048 77.2918C89.5065 77.2287 89.5162 77.1632 89.5206 77.0995C89.5241 77.0357 89.531 76.9703 89.5459 76.9005L89.5478 76.8915C89.5558 76.8535 89.5891 76.8303 89.6219 76.8397C89.6381 76.8443 89.6513 76.8562 89.6594 76.8714C89.7254 76.9956 89.7666 77.1352 89.7823 77.2733C89.7916 77.3424 89.8002 77.4141 89.8024 77.4822C89.8033 77.5489 89.8027 77.6156 89.8009 77.6822C89.7947 77.8178 89.7814 77.9631 89.7653 78.0891C89.756 78.1532 89.7474 78.2176 89.7345 78.2826C89.7233 78.347 89.7206 78.4015 89.7077 78.4678L89.7042 78.4863C89.6969 78.5237 89.6648 78.5472 89.6325 78.5388C89.6117 78.5335 89.5957 78.5158 89.589 78.4943H89.5892Z" fill="white"/>
</g>
<g opacity="0.8">
<path d="M89.7563 65.1398C89.7435 65.0117 89.7428 64.8875 89.7476 64.7616C89.7518 64.6341 89.7662 64.5077 89.7862 64.3825C89.8078 64.2576 89.8341 64.1339 89.8702 64.0133C89.8878 63.9527 89.9071 63.894 89.9308 63.8327C89.9607 63.7711 89.9909 63.7112 90.0254 63.6569C90.0445 63.6269 90.0809 63.6205 90.1068 63.6425C90.1236 63.6568 90.1319 63.6796 90.1303 63.7021L90.1293 63.717C90.1248 63.7792 90.116 63.8356 90.107 63.8905L90.0879 64.0725C90.0746 64.195 90.0565 64.3155 90.0392 64.4362C90.0202 64.5566 90.0008 64.6767 89.9769 64.7967C89.9534 64.9183 89.9247 65.0417 89.8811 65.1606C89.8671 65.1989 89.8287 65.2168 89.7957 65.2006C89.7733 65.1897 89.759 65.1658 89.7563 65.1398Z" fill="white"/>
</g>
<g opacity="0.55">
<path d="M93.1459 66.7231C93.1809 66.8042 93.21 66.8821 93.2335 66.9562C93.2568 67.0306 93.2685 67.1082 93.2685 67.1894C93.2685 67.3787 93.2247 67.5374 93.1371 67.6656C93.0495 67.7942 92.9383 67.9021 92.8043 67.99C92.6699 68.078 92.5268 68.1419 92.3751 68.1826C92.2232 68.2231 92.0831 68.2434 91.9547 68.2434C91.7559 68.2434 91.5633 68.2064 91.3766 68.132C91.1896 68.0578 91 67.9799 90.8073 67.8989C90.6146 67.8178 90.4071 67.7403 90.1855 67.6658C89.9635 67.5916 89.7182 67.5542 89.4497 67.5542C89.3447 67.5542 89.219 67.5679 89.0731 67.5947C88.927 67.622 88.7899 67.6691 88.6615 67.7366C88.5329 67.8044 88.425 67.8921 88.3374 68.0001C88.2498 68.1084 88.2061 68.2433 88.2061 68.4055C88.2061 68.6487 88.3287 68.8685 88.5739 69.0642C88.6131 69.0955 88.6545 69.1271 88.6969 69.1588C88.6611 69.0727 88.643 68.9832 88.643 68.8901C88.643 68.728 88.6868 68.5931 88.7743 68.4847C88.8619 68.3767 88.9697 68.289 89.0984 68.2213C89.2268 68.1538 89.3639 68.1066 89.5101 68.0794C89.6559 68.0524 89.7816 68.0388 89.8867 68.0388C90.1552 68.0388 90.4005 68.0762 90.6224 68.1504C90.8441 68.2248 91.0516 68.3023 91.2442 68.3835C91.4368 68.4647 91.6266 68.5425 91.8135 68.6166C92.0001 68.691 92.1928 68.728 92.3916 68.728C92.52 68.728 92.6601 68.7077 92.812 68.6672C92.9636 68.6267 93.1068 68.5627 93.2412 68.4746C93.3754 68.3869 93.4865 68.2788 93.574 68.1503C93.6616 68.022 93.7054 67.8633 93.7054 67.674C93.7054 67.5929 93.6936 67.5154 93.6704 67.4409C93.6469 67.3667 93.6178 67.2888 93.5828 67.2077C93.4542 66.9376 93.282 66.7011 93.0661 66.4983C93.0337 66.468 93.0002 66.4397 92.967 66.4106C93.0337 66.5094 93.0936 66.6133 93.1459 66.7231Z" fill="#DD7700"/>
<path d="M92.5012 71.8491C92.6227 72.006 92.7342 72.1708 92.8344 72.3446C93.0798 72.7702 93.2023 73.2738 93.2023 73.8546C93.2023 74.3546 93.1262 74.7534 92.9745 75.0505C92.8226 75.3478 92.6241 75.5876 92.3789 75.7699C92.1335 75.9523 91.8533 76.0942 91.5379 76.1956C91.2224 76.2969 90.9071 76.3951 90.5917 76.4894C90.5332 76.5031 90.5011 76.5807 90.4953 76.7226C90.4892 76.8645 90.4865 77.0336 90.4865 77.2292C90.4865 77.4248 90.4835 77.6346 90.4777 77.8575C90.4717 78.0805 90.4397 78.2866 90.3814 78.4757C90.3229 78.6648 90.2295 78.8234 90.1011 78.952C89.9724 79.0802 89.7856 79.1446 89.5404 79.1446C89.372 79.1446 89.2277 79.1056 89.1165 79.0249C89.1632 79.1591 89.2422 79.2765 89.3554 79.3758C89.5482 79.5445 89.7554 79.6291 89.9774 79.6291C90.2228 79.6291 90.4095 79.5647 90.5381 79.4365C90.6665 79.3079 90.7598 79.1492 90.8185 78.9602C90.8768 78.7713 90.9088 78.565 90.9148 78.342C90.9205 78.1191 90.9236 77.9098 90.9236 77.7137C90.9236 77.5176 90.9263 77.3488 90.9323 77.2071C90.9381 77.0652 90.9701 76.9876 91.0288 76.9739C91.3442 76.8796 91.6595 76.7814 91.9749 76.6801C92.2903 76.5787 92.5706 76.4369 92.8159 76.2544C93.0612 76.072 93.2596 75.8323 93.4116 75.535C93.5632 75.238 93.6393 74.8392 93.6393 74.3391C93.6393 73.7583 93.5167 73.2547 93.2714 72.8291C93.0618 72.4654 92.8047 72.1389 92.5012 71.8491Z" fill="#DD7700"/>
<path d="M90.5175 63.133C90.5175 63.4033 90.4999 63.6938 90.4648 64.0044C90.431 64.3047 90.3338 64.625 90.4009 64.928C90.4669 65.2253 90.7715 65.404 91.0136 65.4629C91.0937 65.4824 91.1754 65.4905 91.2571 65.4973C91.2183 65.4842 91.1791 65.4705 91.1408 65.4582C90.9521 65.3975 90.829 65.1879 90.8515 64.9629C90.8667 64.8106 90.8836 64.6526 90.902 64.489C90.9371 64.1783 90.9547 63.8878 90.9547 63.6174C90.9547 63.4148 90.8785 63.2628 90.7268 63.1615C90.6568 63.1148 90.5855 63.0794 90.5131 63.0542C90.5158 63.0796 90.5175 63.1057 90.5175 63.133Z" fill="#DD7700"/>
<path d="M88.8724 76.9058C88.8609 76.753 88.8384 76.5923 88.7535 76.4744C88.6538 76.3359 88.4912 76.2868 88.3394 76.2452C88.0735 76.1724 87.8074 76.0997 87.5415 76.0268C87.1975 75.9327 86.8506 75.8374 86.5315 75.6617C86.3805 75.5786 86.2353 75.4752 86.1066 75.3514C86.1458 75.583 86.2443 75.7801 86.4025 75.9426C86.6127 76.1589 86.8668 76.3379 87.1647 76.4798C87.4625 76.6217 87.7749 76.7331 88.102 76.8141C88.4068 76.8897 88.6654 76.9594 88.8789 77.0232C88.8769 76.9841 88.8755 76.9449 88.8724 76.9058Z" fill="#DD7700"/>
</g>
<path d="M89.9836 79.8896C89.7128 79.8896 89.4581 79.7867 89.2264 79.5837C88.9791 79.3667 88.8485 79.0676 88.8485 78.7182C88.8485 78.6016 88.8517 78.49 88.8578 78.3863C88.8633 78.2897 88.866 78.1898 88.866 78.0899V77.8669C88.866 77.7707 88.8605 77.6643 88.8498 77.5506C88.8395 77.4444 88.8243 77.3494 88.8044 77.2691C88.8041 77.2678 88.8038 77.2666 88.8035 77.2652C88.5967 77.2041 88.3477 77.1373 88.0622 77.0666C87.7242 76.9829 87.396 76.8656 87.0867 76.7183C86.7667 76.5659 86.4889 76.3698 86.261 76.1352C86.0019 75.8689 85.8705 75.5242 85.8705 75.1104C85.8705 74.7219 85.9999 74.3964 86.2552 74.1432C86.5002 73.9002 86.7821 73.7768 87.093 73.7768C87.3372 73.7768 87.5814 73.822 87.819 73.911C88.0323 73.991 88.2584 74.0806 88.4912 74.1771C88.7127 74.2692 88.9442 74.3562 89.1792 74.4358C89.3968 74.5095 89.6261 74.5469 89.8607 74.5469C89.9448 74.5469 90.0532 74.5375 90.1833 74.5186C90.303 74.5013 90.4195 74.466 90.5292 74.4142C90.6312 74.366 90.7203 74.3011 90.7937 74.2218C90.8413 74.17 90.8628 74.1065 90.8628 74.016C90.8628 73.97 90.8523 73.8977 90.7618 73.8033C90.6598 73.6972 90.5371 73.6007 90.3969 73.5165C90.2467 73.4266 90.0917 73.345 89.9363 73.2742C89.7744 73.2007 89.647 73.1436 89.5544 73.1035C89.1732 72.9247 88.7729 72.7139 88.3592 72.4744C87.9387 72.2315 87.5452 71.942 87.1899 71.6143C86.8276 71.2806 86.522 70.8872 86.2815 70.4449C86.032 69.9862 85.9055 69.4487 85.9055 68.8476C85.9055 68.3234 85.9987 67.8383 86.1825 67.4056C86.3646 66.9768 86.613 66.6047 86.9211 66.2995C87.2238 65.999 87.5751 65.7557 87.9649 65.5765C88.259 65.4416 88.5696 65.3483 88.888 65.2989C88.9679 65.2866 89.0295 65.2189 89.0414 65.1303C89.0675 64.937 89.0915 64.7411 89.1128 64.5483C89.1489 64.2219 89.2037 63.8938 89.2758 63.5734C89.3709 63.1945 89.6177 62.751 90.2636 62.751C90.4662 62.751 90.663 62.8138 90.8486 62.9376C91.0708 63.0862 91.1884 63.3216 91.1884 63.6182C91.1884 63.8984 91.1701 64.203 91.134 64.5234C91.1157 64.6856 91.099 64.8424 91.0839 64.9935C91.0741 65.0917 91.1273 65.1823 91.2104 65.2092C91.357 65.2564 91.5098 65.3098 91.6642 65.368C91.9408 65.4724 92.2128 65.5997 92.4726 65.7463C92.7377 65.8962 92.9878 66.0807 93.2161 66.2948C93.4535 66.5176 93.6459 66.7818 93.7881 67.0805C93.8302 67.1773 93.8629 67.2646 93.8898 67.3493C93.9223 67.4532 93.9386 67.5614 93.9386 67.672C93.9386 67.9202 93.8781 68.1344 93.759 68.3089C93.6542 68.4629 93.52 68.594 93.3605 68.6982C93.2088 68.7976 93.0442 68.8714 92.8716 68.9176C92.7035 68.9625 92.5452 68.9851 92.4007 68.9851C92.178 68.9851 91.9589 68.9429 91.7497 68.8594C91.5618 68.7849 91.3708 68.7064 91.1768 68.6249C90.9912 68.5467 90.7868 68.4702 90.569 68.397C90.3677 68.3298 90.141 68.2958 89.8957 68.2958C89.8038 68.2958 89.6889 68.3084 89.5543 68.3332C89.4288 68.3567 89.3095 68.3976 89.2001 68.4551C89.0977 68.5091 89.0148 68.5761 88.9468 68.66C88.8987 68.7195 88.8761 68.7919 88.8761 68.8879C88.8761 68.9445 88.8761 69.1168 89.1471 69.3332C89.3824 69.5212 89.6847 69.719 90.0459 69.9212C90.4202 70.1312 90.825 70.3638 91.2494 70.6124C91.6859 70.8687 92.1008 71.1665 92.4824 71.4977C92.8749 71.8383 93.2048 72.2381 93.463 72.6862C93.7321 73.1531 93.8684 73.7094 93.8684 74.3399C93.8684 74.8844 93.7813 75.3311 93.6095 75.6676C93.4404 75.9989 93.2158 76.27 92.9422 76.4733C92.6794 76.6688 92.376 76.8228 92.0402 76.9308C91.7384 77.0277 91.4436 77.1196 91.1626 77.2042C91.1623 77.2091 91.1621 77.2143 91.1618 77.22C91.1561 77.3552 91.1533 77.5168 91.1533 77.7145C91.1533 77.9101 91.1504 78.1182 91.1445 78.3507C91.1378 78.6004 91.101 78.8349 91.0352 79.0483C90.9636 79.2793 90.8477 79.476 90.6906 79.6335C90.5201 79.8034 90.2823 79.8894 89.9833 79.8894L89.9836 79.8896ZM87.0933 74.2958C86.8896 74.2958 86.711 74.3748 86.5473 74.5372C86.3936 74.6896 86.3189 74.8772 86.3189 75.1107C86.3189 75.3734 86.3974 75.5817 86.559 75.7477C86.7493 75.9435 86.9842 76.1087 87.2574 76.2389C87.542 76.3744 87.8444 76.4823 88.1561 76.5595C88.4823 76.6404 88.7627 76.7162 88.9894 76.7852L89.0036 76.7902C89.1674 76.8535 89.2185 77.0588 89.2354 77.1263C89.2621 77.235 89.2822 77.3582 89.2953 77.4935C89.3079 77.6266 89.3142 77.752 89.3142 77.8671V78.09C89.3142 78.2011 89.3111 78.3125 89.305 78.421C89.2995 78.5138 89.2968 78.6135 89.2968 78.7182C89.2968 78.9066 89.3604 79.0503 89.4971 79.1702C89.6512 79.3052 89.8103 79.3709 89.9835 79.3709C90.172 79.3709 90.3114 79.3272 90.3977 79.2413C90.4968 79.1419 90.5675 79.0216 90.6133 78.8739C90.6633 78.7118 90.6913 78.5305 90.6966 78.3354C90.7025 78.1085 90.7053 77.9055 90.7053 77.715C90.7053 77.5086 90.7082 77.3388 90.7143 77.1955C90.7285 76.8446 90.8851 76.7485 90.9827 76.723C91.2814 76.6336 91.5969 76.5355 91.9205 76.4316C92.2128 76.3376 92.4751 76.205 92.7 76.0376C92.9144 75.8783 93.0906 75.6652 93.2239 75.4044C93.3543 75.1489 93.4205 74.7909 93.4205 74.3405C93.4205 73.8143 93.3094 73.3547 93.0903 72.9746C92.8604 72.5755 92.5656 72.2185 92.2139 71.9133C91.853 71.6002 91.4604 71.3184 91.0471 71.0757C90.6252 70.8285 90.2227 70.5974 89.8509 70.3887C89.4693 70.175 89.1469 69.9637 88.8929 69.7606C88.5846 69.5145 88.4282 69.2212 88.4282 68.8885C88.4282 68.6594 88.4928 68.4634 88.6201 68.306C88.7276 68.1735 88.8603 68.0651 89.015 67.9836C89.1608 67.907 89.3185 67.8526 89.4838 67.8216C89.6444 67.7921 89.7792 67.7778 89.8962 67.7778C90.1835 67.7778 90.4519 67.8187 90.6939 67.8995C90.9215 67.976 91.1355 68.0562 91.3302 68.1381C91.5216 68.2186 91.71 68.2961 91.8957 68.3696C92.0582 68.4342 92.2281 68.467 92.4011 68.467C92.5116 68.467 92.6361 68.4487 92.7712 68.4128C92.9018 68.378 93.0259 68.3222 93.1402 68.2473C93.2488 68.1762 93.3387 68.0891 93.4074 67.9882C93.4636 67.906 93.4908 67.8029 93.4908 67.6724C93.4908 67.6215 93.4837 67.5741 93.4691 67.5275C93.4483 67.4621 93.4222 67.3925 93.3919 67.322C93.2819 67.0916 93.1266 66.8787 92.9344 66.6982C92.7324 66.5089 92.5111 66.3456 92.2766 66.213C92.0355 66.0769 91.7829 65.9587 91.526 65.8617C91.3778 65.8058 91.2313 65.7545 91.0909 65.7094C90.7939 65.6137 90.6039 65.2878 90.6392 64.9344C90.6546 64.781 90.6715 64.6218 90.6902 64.4568C90.7237 64.1588 90.7408 63.8766 90.7408 63.6188C90.7408 63.5094 90.7073 63.4423 90.6251 63.3874C90.507 63.3087 90.3889 63.2702 90.2642 63.2702C89.9566 63.2702 89.7852 63.4063 89.7087 63.7115C89.6429 64.0037 89.5918 64.3098 89.5581 64.6145C89.5363 64.8121 89.5117 65.0127 89.485 65.2107C89.4421 65.5283 89.2262 65.7705 88.9479 65.8134C88.6658 65.8571 88.3908 65.9396 88.1308 66.0589C87.7872 66.2169 87.4784 66.4305 87.2132 66.6938C86.9516 66.9529 86.7404 67.2695 86.5853 67.6347C86.432 67.9954 86.3544 68.4036 86.3544 68.8478C86.3544 69.3498 86.4577 69.7942 86.6615 70.169C86.875 70.5618 87.1469 70.9117 87.4698 71.2089C87.8007 71.5141 88.1676 71.7839 88.5602 72.0107C88.9636 72.2443 89.353 72.4495 89.7179 72.6205C89.8064 72.6589 89.9358 72.7171 90.1007 72.7916C90.2707 72.8691 90.4398 72.9581 90.6037 73.0562C90.7779 73.1607 90.9321 73.2825 91.0623 73.418C91.2685 73.633 91.3116 73.862 91.3116 74.0162C91.3116 74.2486 91.2388 74.4506 91.1007 74.6005C90.9871 74.7234 90.8522 74.8223 90.6995 74.8946C90.553 74.9638 90.3983 75.0105 90.2395 75.0336C90.0911 75.055 89.9638 75.0659 89.8612 75.0659C89.5841 75.0659 89.3124 75.0215 89.0538 74.9339C88.8102 74.8514 88.5701 74.7611 88.3403 74.6657C88.1118 74.571 87.8901 74.4832 87.6812 74.4048C87.4885 74.3326 87.2907 74.2959 87.0935 74.2959L87.0933 74.2958Z" fill="black"/>
<path d="M98.6221 24.1187C98.2476 21.5369 97.2332 19.4572 95.9213 18.5308C97.2332 17.6042 98.2476 15.5247 98.6221 12.9429C98.9966 15.5247 100.011 17.6044 101.323 18.5308C100.011 19.4572 98.9965 21.5369 98.6221 24.1187Z" fill="white"/>
<path d="M101.322 26.29C101.165 25.2061 100.739 24.3331 100.187 23.9442C100.739 23.5553 101.165 22.6822 101.322 21.5984C101.48 22.6823 101.906 23.5553 102.457 23.9442C101.906 24.3331 101.48 25.2062 101.322 26.29Z" fill="white"/>
<path d="M80.4995 67.5171C80.874 64.9353 81.8884 62.8556 83.2003 61.9292C81.8884 61.0027 80.874 58.9231 80.4995 56.3413C80.125 58.9231 79.1107 61.0028 77.7987 61.9292C79.1107 62.8556 80.1251 64.9353 80.4995 67.5171Z" fill="white"/>
<path d="M77.7968 69.6823C77.9542 68.5984 78.3804 67.7255 78.9316 67.3365C78.3803 66.9476 77.9541 66.0745 77.7968 64.9907C77.6394 66.0747 77.2133 66.9476 76.662 67.3365C77.2133 67.7255 77.6394 68.5985 77.7968 69.6823Z" fill="white"/>
</svg>
