<svg width="17" height="16" viewBox="0 0 17 16" fill="none" xmlns="http://www.w3.org/2000/svg">
<path d="M11.7654 8C11.3539 7.63419 10.8307 7.44002 10.2939 7.45384H6.84344C6.68611 7.45805 6.5296 7.42855 6.38328 7.36711C6.23696 7.30568 6.10383 7.21356 5.99186 7.09627C5.8799 6.97899 5.7914 6.83896 5.73167 6.68455C5.67193 6.53014 5.64219 6.36454 5.64422 6.19766C5.64038 6.1327 5.64038 6.06756 5.64422 6.0026C5.69061 5.7044 5.83805 5.43441 6.05886 5.24334C6.27967 5.05227 6.55866 4.95326 6.84344 4.96489H10.2424C10.5197 4.96463 10.7881 5.06882 10.9996 5.25888C11.2112 5.44894 11.3522 5.71252 11.3975 6.0026H12.5011C12.4549 5.40099 12.1969 4.83985 11.7784 4.43074C11.3599 4.02162 10.8116 3.79451 10.2424 3.79454H9.08002V2H8.16037V3.79454H6.84344C6.27427 3.79451 5.72594 4.02162 5.30745 4.43074C4.88897 4.83985 4.63098 5.40099 4.58478 6.0026C4.58111 6.06756 4.58111 6.1327 4.58478 6.19766C4.58478 6.51222 4.64321 6.82369 4.75671 7.11431C4.87022 7.40492 5.03659 7.66898 5.24633 7.89141C5.66991 8.34062 6.2444 8.59298 6.84344 8.59298H10.3307C10.4868 8.58881 10.6421 8.61782 10.7874 8.6783C10.9328 8.73878 11.0652 8.8295 11.177 8.94511C11.2888 9.06073 11.3776 9.1989 11.4382 9.35148C11.4988 9.50407 11.53 9.66798 11.53 9.83355C11.5376 9.92179 11.5376 10.0106 11.53 10.0988C11.4715 10.3734 11.3268 10.6187 11.1196 10.7945C10.9124 10.9703 10.655 11.0661 10.3896 11.0663H6.93172C6.66635 11.0661 6.40892 10.9703 6.2017 10.7945C5.99447 10.6187 5.84978 10.3734 5.79136 10.0988H4.68043C4.74365 10.6851 5.00804 11.2261 5.42322 11.6189C5.83839 12.0118 6.37533 12.2289 6.93172 12.2289H8.16037V14H9.08002V12.2289H10.3307C10.8871 12.2289 11.4241 12.0118 11.8392 11.6189C12.2544 11.2261 12.5188 10.6851 12.582 10.0988V9.83355C12.5811 9.4831 12.5075 9.13715 12.3664 8.82026C12.2252 8.50338 12.0201 8.22333 11.7654 8Z" fill="black"/>
</svg>
