<svg width="19" height="18" viewBox="0 0 19 18" fill="none" xmlns="http://www.w3.org/2000/svg">
<path d="M2.6001 16H4.0251L13.8001 6.225L12.3751 4.8L2.6001 14.575V16ZM0.600098 18V13.75L13.8001 0.575C14.0001 0.391667 14.2209 0.25 14.4626 0.15C14.7043 0.05 14.9584 0 15.2251 0C15.4918 0 15.7501 0.05 16.0001 0.15C16.2501 0.25 16.4668 0.4 16.6501 0.6L18.0251 2C18.2251 2.18333 18.3709 2.4 18.4626 2.65C18.5543 2.9 18.6001 3.15 18.6001 3.4C18.6001 3.66667 18.5543 3.92083 18.4626 4.1625C18.3709 4.40417 18.2251 4.625 18.0251 4.825L4.8501 18H0.600098ZM13.0751 5.525L12.3751 4.8L13.8001 6.225L13.0751 5.525Z" fill="#18632E"/>
</svg>
