<svg width="17" height="16" viewBox="0 0 17 16" fill="none" xmlns="http://www.w3.org/2000/svg">
<mask id="mask0_6101_85353" style="mask-type:alpha" maskUnits="userSpaceOnUse" x="0" y="0" width="17" height="16">
<rect x="16.9548" width="16" height="16" transform="rotate(90 16.9548 0)" fill="#D9D9D9"/>
</mask>
<g mask="url(#mask0_6101_85353)">
<path d="M8.28821 4.66671H9.62154V6.00004H8.28821V4.66671ZM8.28821 7.33337H9.62154V11.3334H8.28821V7.33337ZM8.95487 1.33337C5.27487 1.33337 2.28821 4.32004 2.28821 8.00004C2.28821 11.68 5.27487 14.6667 8.95487 14.6667C12.6349 14.6667 15.6215 11.68 15.6215 8.00004C15.6215 4.32004 12.6349 1.33337 8.95487 1.33337ZM8.95487 13.3334C6.01487 13.3334 3.62154 10.94 3.62154 8.00004C3.62154 5.06004 6.01487 2.66671 8.95487 2.66671C11.8949 2.66671 14.2882 5.06004 14.2882 8.00004C14.2882 10.94 11.8949 13.3334 8.95487 13.3334Z" fill="black"/>
</g>
</svg>
