<svg width="17" height="17" viewBox="0 0 17 17" fill="none" xmlns="http://www.w3.org/2000/svg">
<path d="M7.86499 5.16671H9.19832V6.50004H7.86499V5.16671ZM7.86499 7.83337H9.19832V11.8334H7.86499V7.83337ZM8.53166 1.83337C4.85166 1.83337 1.86499 4.82004 1.86499 8.50004C1.86499 12.18 4.85166 15.1667 8.53166 15.1667C12.2117 15.1667 15.1983 12.18 15.1983 8.50004C15.1983 4.82004 12.2117 1.83337 8.53166 1.83337ZM8.53166 13.8334C5.59166 13.8334 3.19832 11.44 3.19832 8.50004C3.19832 5.56004 5.59166 3.16671 8.53166 3.16671C11.4717 3.16671 13.865 5.56004 13.865 8.50004C13.865 11.44 11.4717 13.8334 8.53166 13.8334Z" fill="black"/>
</svg>
