<svg width="16" height="10" viewBox="0 0 16 10" fill="none" xmlns="http://www.w3.org/2000/svg">
<path d="M6.03594 9.5L4.60806 9.11699L5.18971 6.94389C4.31908 6.62261 3.50992 6.15445 2.79736 5.55973L1.20615 7.1524L0.161116 6.10688L1.75232 4.51421C0.853675 3.43747 0.249868 2.14573 0 0.765445L1.45448 0.5C1.73344 2.03338 2.5414 3.4202 3.73754 4.41874C4.93368 5.41728 6.44214 5.96421 8 5.96421C9.55786 5.96421 11.0663 5.41728 12.2625 4.41874C13.4586 3.4202 14.2666 2.03338 14.5455 0.5L16 0.764706C15.75 2.14532 15.1459 3.43732 14.2469 4.51421L15.8389 6.10688L14.7938 7.1524L13.2019 5.55973C12.4893 6.15444 11.6802 6.6226 10.8096 6.94389L11.3919 9.11773L9.96406 9.5L9.38168 7.32616C8.46698 7.48303 7.53228 7.48303 6.61758 7.32616L6.03594 9.5Z" fill="black"/>
</svg>
