<svg width="41" height="41" viewBox="0 0 41 41" fill="none" xmlns="http://www.w3.org/2000/svg">
<path d="M40.4212 20.5C40.4212 31.2695 31.6905 40 20.9205 40C10.1505 40 1.4198 31.2695 1.4198 20.5C1.4198 9.73046 10.1505 1 20.9205 1C31.6905 1 40.4212 9.73046 40.4212 20.5Z" fill="#EAF4EA" stroke="#C0DFC1"/>
<path d="M19.5201 16.414H21.3535V18.2473H19.5201V16.414ZM19.5201 20.0806H21.3535V25.5806H19.5201V20.0806ZM20.4368 11.8306C15.3768 11.8306 11.2701 15.9373 11.2701 20.9973C11.2701 26.0573 15.3768 30.164 20.4368 30.164C25.4968 30.164 29.6035 26.0573 29.6035 20.9973C29.6035 15.9373 25.4968 11.8306 20.4368 11.8306ZM20.4368 28.3306C16.3943 28.3306 13.1035 25.0398 13.1035 20.9973C13.1035 16.9548 16.3943 13.664 20.4368 13.664C24.4793 13.664 27.7701 16.9548 27.7701 20.9973C27.7701 25.0398 24.4793 28.3306 20.4368 28.3306Z" fill="#18632E"/>
</svg>
