<svg width="17" height="16" viewBox="0 0 17 16" fill="none" xmlns="http://www.w3.org/2000/svg">
<mask id="mask0_6101_85365" style="mask-type:alpha" maskUnits="userSpaceOnUse" x="0" y="0" width="17" height="16">
<rect x="16.8955" width="16" height="16" transform="rotate(90 16.8955 0)" fill="#D9D9D9"/>
</mask>
<g mask="url(#mask0_6101_85365)">
<path d="M8.22888 4.66671H9.56222V6.00004H8.22888V4.66671ZM8.22888 7.33337H9.56222V11.3334H8.22888V7.33337ZM8.89555 1.33337C5.21555 1.33337 2.22888 4.32004 2.22888 8.00004C2.22888 11.68 5.21555 14.6667 8.89555 14.6667C12.5755 14.6667 15.5622 11.68 15.5622 8.00004C15.5622 4.32004 12.5755 1.33337 8.89555 1.33337ZM8.89555 13.3334C5.95555 13.3334 3.56222 10.94 3.56222 8.00004C3.56222 5.06004 5.95555 2.66671 8.89555 2.66671C11.8355 2.66671 14.2289 5.06004 14.2289 8.00004C14.2289 10.94 11.8355 13.3334 8.89555 13.3334Z" fill="black"/>
</g>
</svg>
