<svg width="16" height="17" viewBox="0 0 16 17" fill="none" xmlns="http://www.w3.org/2000/svg">
<mask id="mask0_5985_66166" style="mask-type:alpha" maskUnits="userSpaceOnUse" x="0" y="0" width="16" height="17">
<rect y="0.232361" width="16" height="16" fill="#D9D9D9"/>
</mask>
<g mask="url(#mask0_5985_66166)">
<path d="M2.66743 13.5657C2.30077 13.5657 1.98688 13.4351 1.72577 13.174C1.46465 12.9129 1.3341 12.599 1.3341 12.2323V4.23232C1.3341 3.86565 1.46465 3.55176 1.72577 3.29065C1.98688 3.02954 2.30077 2.89899 2.66743 2.89899H13.3341C13.7008 2.89899 14.0147 3.02954 14.2758 3.29065C14.5369 3.55176 14.6674 3.86565 14.6674 4.23232V12.2323C14.6674 12.599 14.5369 12.9129 14.2758 13.174C14.0147 13.4351 13.7008 13.5657 13.3341 13.5657H2.66743ZM8.00076 8.89899L2.66743 5.56565V12.2323H13.3341V5.56565L8.00076 8.89899ZM8.00076 7.56565L13.3341 4.23232H2.66743L8.00076 7.56565ZM2.66743 5.56565V4.23232V12.2323V5.56565Z" fill="#2E9331"/>
</g>
</svg>
