<svg width="16" height="16" viewBox="0 0 16 16" fill="none" xmlns="http://www.w3.org/2000/svg">
<g clip-path="url(#clip0_5978_29584)">
<path d="M13.2781 6.40882L13.4548 6.8703L13.9183 6.699L14.7845 6.37888C14.9141 6.91106 15 7.45152 15 8C15 8.70834 14.8857 9.39235 14.6837 10.0384L13.8281 9.65809L13.3757 9.45705L13.1702 9.90735L12.8552 10.5974L12.6463 11.0549L13.105 11.2611L13.9454 11.6388C13.2986 12.7159 12.3815 13.5966 11.2757 14.1829L10.943 13.2989L10.7658 12.8282L10.2962 13.0081L9.59118 13.2781L9.1297 13.4548L9.301 13.9183L9.62112 14.7845C9.08894 14.9141 8.54848 15 8 15C7.29166 15 6.60765 14.8857 5.96162 14.6837L6.34191 13.8281L6.54295 13.3757L6.09265 13.1702L5.40265 12.8552L4.94512 12.6463L4.73894 13.105L4.36125 13.9454C3.28411 13.2986 2.40342 12.3815 1.81709 11.2757L2.70111 10.943L3.17179 10.7658L2.99193 10.2962L2.72193 9.59118L2.54519 9.1297L2.08167 9.301L1.21548 9.62112C1.0859 9.08894 1 8.54848 1 8C1 7.29166 1.11426 6.60765 1.3163 5.96162L2.17193 6.34191L2.62427 6.54295L2.82984 6.09265L3.14484 5.40265L3.35371 4.94512L2.89497 4.73894L2.05459 4.36125C2.70144 3.28411 3.61852 2.40342 4.72434 1.81709L5.05704 2.70111L5.23418 3.17179L5.70382 2.99193L6.40882 2.72193L6.8703 2.54519L6.699 2.08167L6.37888 1.21548C6.91106 1.0859 7.45152 1 8 1C8.70835 1 9.39235 1.11426 10.0384 1.3163L9.65809 2.17193L9.45705 2.62427L9.90735 2.82984L10.5974 3.14484L11.0549 3.35371L11.2611 2.89497L11.6388 2.05459C12.7159 2.70144 13.5966 3.61852 14.1829 4.72434L13.2989 5.05704L12.8282 5.23418L13.0081 5.70382L13.2781 6.40882Z" stroke="#999999"/>
<path d="M5 6.5H11V7.5H5V6.5ZM5 9H11V10H5V9Z" fill="#999999"/>
</g>
<defs>
<clipPath id="clip0_5978_29584">
<rect width="16" height="16" fill="white"/>
</clipPath>
</defs>
</svg>
