<svg width="16" height="16" viewBox="0 0 16 16" fill="none" xmlns="http://www.w3.org/2000/svg">
<path fill-rule="evenodd" clip-rule="evenodd" d="M9.80532 3.53266C9.77928 3.47337 9.73654 3.42294 9.68232 3.38754C9.6281 3.35214 9.56474 3.3333 9.49998 3.33333H7.66665V3.99999H9.28232L9.86765 5.33333H9.24398C8.67278 5.33323 8.11347 5.49657 7.6321 5.80406C7.15072 6.11155 6.76737 6.55035 6.52732 7.06866L5.51731 6.09366C5.45516 6.03358 5.3721 6 5.28565 5.99999H2.33332C2.24491 5.99999 2.16013 6.03511 2.09761 6.09763C2.0351 6.16014 1.99998 6.24492 1.99998 6.33333V7.66666C1.99998 7.75507 2.0351 7.83985 2.09761 7.90236C2.16013 7.96488 2.24491 8 2.33332 8H5.38998C5.33664 8.15087 5.32029 8.31234 5.34229 8.47084C5.3643 8.62935 5.42402 8.78026 5.51645 8.91089C5.60887 9.04153 5.7313 9.14808 5.87344 9.22158C6.01558 9.29509 6.17329 9.33341 6.33331 9.33333H6.80398L7.26698 10.1667H5.64131C5.55611 9.62846 5.2713 9.14209 4.84361 8.80444C4.41591 8.4668 3.87673 8.30264 3.33344 8.34468C2.79016 8.38672 2.28264 8.63186 1.91198 9.03128C1.54132 9.4307 1.33471 9.95509 1.33332 10.5C1.33256 11.0462 1.53814 11.5726 1.9089 11.9737C2.27966 12.3748 2.78824 12.6211 3.33283 12.6632C3.87742 12.7053 4.41783 12.5402 4.84588 12.2009C5.27393 11.8616 5.55803 11.3732 5.64131 10.8333H8.83331C8.88289 10.8333 8.93183 10.8222 8.97658 10.8009C9.02133 10.7795 9.06075 10.7485 9.09198 10.71L11.128 8.20433L11.334 8.67333C10.8742 8.9672 10.5422 9.42375 10.4044 9.95176C10.2665 10.4798 10.333 11.0403 10.5905 11.5214C10.8481 12.0026 11.2776 12.3688 11.7934 12.5469C12.3092 12.7251 12.8733 12.702 13.3728 12.4824C13.8724 12.2628 14.2706 11.8628 14.4881 11.3622C14.7055 10.8617 14.726 10.2976 14.5456 9.7826C14.3652 9.2676 13.9971 8.83964 13.5148 8.58425C13.0326 8.32886 12.4717 8.26484 11.9443 8.40499L11.365 7.08566L13.4046 7.39933L12.928 4.54233L10.6356 5.42399L9.80532 3.53266ZM7.56665 9.33333L8.02931 10.1667H8.67465L10.435 8H9.33331V8.33333C9.33331 8.59855 9.22796 8.8529 9.04042 9.04044C8.85289 9.22797 8.59853 9.33333 8.33331 9.33333H7.56665ZM8.33331 8.66666C8.42172 8.66666 8.50651 8.63154 8.56902 8.56903C8.63153 8.50652 8.66665 8.42173 8.66665 8.33333V8H6.33331C6.24491 8 6.16012 8.03511 6.09761 8.09763C6.0351 8.16014 5.99998 8.24492 5.99998 8.33333C5.99998 8.42173 6.0351 8.50652 6.09761 8.56903C6.16012 8.63154 6.24491 8.66666 6.33331 8.66666H8.33331ZM9.24398 5.99999C8.80286 5.99986 8.37078 6.12514 7.99814 6.36121C7.6255 6.59728 7.32765 6.93443 7.13931 7.33333H10.746L10.1603 5.99999H9.24398ZM10.904 6.03499L11.0473 6.36233L12.5953 6.60066L12.4053 5.45766L10.904 6.03499ZM3.49998 9C3.83996 8.99988 4.16989 9.11526 4.4357 9.32723C4.70151 9.5392 4.88743 9.83518 4.96298 10.1667H3.49998C3.41158 10.1667 3.32679 10.2018 3.26428 10.2643C3.20177 10.3268 3.16665 10.4116 3.16665 10.5C3.16665 10.5884 3.20177 10.6732 3.26428 10.7357C3.32679 10.7982 3.41158 10.8333 3.49998 10.8333H4.96298C4.88027 11.1922 4.66845 11.5082 4.36786 11.7211C4.06726 11.9339 3.69889 12.0288 3.33288 11.9876C2.96687 11.9464 2.62878 11.7721 2.38299 11.4978C2.1372 11.2234 2.00088 10.8683 1.99998 10.5C1.99998 10.1022 2.15802 9.72064 2.43932 9.43933C2.72063 9.15803 3.10216 9 3.49998 9ZM11 10.5C11 10.0063 11.2386 9.568 11.6066 9.29466L12.1946 10.634C12.2302 10.715 12.2964 10.7785 12.3788 10.8106C12.4612 10.8428 12.553 10.8409 12.634 10.8053C12.715 10.7698 12.7785 10.7035 12.8106 10.6211C12.8428 10.5388 12.8409 10.447 12.8053 10.366L12.2173 9.02666C12.3089 9.00888 12.4031 9 12.5 9C12.7967 9 13.0867 9.08797 13.3333 9.25279C13.58 9.41761 13.7723 9.65188 13.8858 9.92597C13.9993 10.2001 14.029 10.5017 13.9712 10.7926C13.9133 11.0836 13.7704 11.3509 13.5606 11.5607C13.3509 11.7704 13.0836 11.9133 12.7926 11.9712C12.5016 12.0291 12.2 11.9993 11.926 11.8858C11.6519 11.7723 11.4176 11.58 11.2528 11.3334C11.088 11.0867 11 10.7967 11 10.5ZM5.15098 6.66666L5.84165 7.33333H2.66665V6.66666H5.15098Z" fill="#999999"/>
</svg>
