<svg width="16" height="16" viewBox="0 0 16 16" fill="none" xmlns="http://www.w3.org/2000/svg">
<path d="M2.66669 14V7.75L1.46669 8.66667L0.666687 7.6L8.00002 2L15.3334 7.6L14.5334 8.65L13.3334 7.75V14H2.66669ZM4.00002 12.6667H12V6.73333L8.00002 3.68333L4.00002 6.73333V12.6667ZM5.33335 10C5.14446 10 4.98624 9.936 4.85869 9.808C4.73113 9.68 4.66713 9.52178 4.66669 9.33333C4.66624 9.14489 4.73024 8.98667 4.85869 8.85867C4.98713 8.73067 5.14535 8.66667 5.33335 8.66667C5.52135 8.66667 5.6798 8.73067 5.80869 8.85867C5.93758 8.98667 6.00135 9.14489 6.00002 9.33333C5.99869 9.52178 5.93469 9.68022 5.80802 9.80867C5.68135 9.93711 5.52313 10.0009 5.33335 10ZM8.00002 10C7.81113 10 7.65291 9.936 7.52535 9.808C7.3978 9.68 7.3338 9.52178 7.33335 9.33333C7.33291 9.14489 7.39691 8.98667 7.52535 8.85867C7.6538 8.73067 7.81202 8.66667 8.00002 8.66667C8.18802 8.66667 8.34647 8.73067 8.47535 8.85867C8.60424 8.98667 8.66802 9.14489 8.66669 9.33333C8.66535 9.52178 8.60135 9.68022 8.47469 9.80867C8.34802 9.93711 8.1898 10.0009 8.00002 10ZM10.6667 10C10.4778 10 10.3196 9.936 10.192 9.808C10.0645 9.68 10.0005 9.52178 10 9.33333C9.99958 9.14489 10.0636 8.98667 10.192 8.85867C10.3205 8.73067 10.4787 8.66667 10.6667 8.66667C10.8547 8.66667 11.0131 8.73067 11.142 8.85867C11.2709 8.98667 11.3347 9.14489 11.3334 9.33333C11.332 9.52178 11.268 9.68022 11.1414 9.80867C11.0147 9.93711 10.8565 10.0009 10.6667 10Z" fill="#999999"/>
</svg>
