<svg width="25" height="25" viewBox="0 0 25 25" fill="none" xmlns="http://www.w3.org/2000/svg">
<mask id="mask0_5985_66201" style="mask-type:alpha" maskUnits="userSpaceOnUse" x="0" y="0" width="25" height="25">
<rect x="0.315567" y="0.595055" width="24" height="24" fill="#D9D9D9"/>
</mask>
<g mask="url(#mask0_5985_66201)">
<path d="M3.31557 20.5951V17.7951C3.31557 17.2284 3.4614 16.7076 3.75307 16.2326C4.04473 15.7576 4.43223 15.3951 4.91557 15.1451C5.9489 14.6284 6.9989 14.2409 8.06557 13.9826C9.13223 13.7242 10.2156 13.5951 11.3156 13.5951C11.6489 13.5951 11.9822 13.6076 12.3156 13.6326C12.6489 13.6576 12.9822 13.6951 13.3156 13.7451C13.2489 14.7117 13.4239 15.6242 13.8406 16.4826C14.2572 17.3409 14.8656 18.0451 15.6656 18.5951V20.5951H3.31557ZM19.3156 23.5951L17.8156 22.0951V17.4451C17.0822 17.2284 16.4822 16.8159 16.0156 16.2076C15.5489 15.5992 15.3156 14.8951 15.3156 14.0951C15.3156 13.1284 15.6572 12.3034 16.3406 11.6201C17.0239 10.9367 17.8489 10.5951 18.8156 10.5951C19.7822 10.5951 20.6072 10.9367 21.2906 11.6201C21.9739 12.3034 22.3156 13.1284 22.3156 14.0951C22.3156 14.8451 22.1031 15.5117 21.6781 16.0951C21.2531 16.6784 20.7156 17.0951 20.0656 17.3451L21.3156 18.5951L19.8156 20.0951L21.3156 21.5951L19.3156 23.5951ZM11.3156 12.5951C10.2156 12.5951 9.2739 12.2034 8.49057 11.4201C7.70723 10.6367 7.31557 9.69505 7.31557 8.59505C7.31557 7.49505 7.70723 6.55339 8.49057 5.77005C9.2739 4.98672 10.2156 4.59505 11.3156 4.59505C12.4156 4.59505 13.3572 4.98672 14.1406 5.77005C14.9239 6.55339 15.3156 7.49505 15.3156 8.59505C15.3156 9.69505 14.9239 10.6367 14.1406 11.4201C13.3572 12.2034 12.4156 12.5951 11.3156 12.5951ZM18.8156 14.5951C19.0989 14.5951 19.3364 14.4992 19.5281 14.3076C19.7197 14.1159 19.8156 13.8784 19.8156 13.5951C19.8156 13.3117 19.7197 13.0742 19.5281 12.8826C19.3364 12.6909 19.0989 12.5951 18.8156 12.5951C18.5322 12.5951 18.2947 12.6909 18.1031 12.8826C17.9114 13.0742 17.8156 13.3117 17.8156 13.5951C17.8156 13.8784 17.9114 14.1159 18.1031 14.3076C18.2947 14.4992 18.5322 14.5951 18.8156 14.5951Z" fill="black"/>
</g>
</svg>
