<svg width="16" height="14" viewBox="0 0 16 14" fill="none" xmlns="http://www.w3.org/2000/svg">
<path d="M15.17 6.36L13 3.92C12.8821 3.78726 12.7373 3.68115 12.5753 3.60873C12.4132 3.53631 12.2375 3.49924 12.06 3.5H10.06V1.75C10.06 1.4202 9.9297 1.10377 9.69744 0.869633C9.46517 0.635498 9.14979 0.502638 8.82001 0.5H1.76001C1.42849 0.5 1.11055 0.631696 0.876126 0.866117C0.641706 1.10054 0.51001 1.41848 0.51001 1.75V10.25C0.51001 10.5815 0.641706 10.8995 0.876126 11.1339C1.11055 11.3683 1.42849 11.5 1.76001 11.5H2.09001C2.10829 12.0473 2.3427 12.5651 2.74192 12.9399C3.14114 13.3148 3.67263 13.5162 4.22001 13.5C4.76837 13.5162 5.30094 13.3151 5.70175 12.9406C6.10256 12.566 6.33915 12.0482 6.36001 11.5H10C10.0183 12.0473 10.2527 12.5651 10.6519 12.9399C11.0511 13.3148 11.5826 13.5162 12.13 13.5C12.6784 13.5162 13.2109 13.3151 13.6117 12.9406C14.0126 12.566 14.2491 12.0482 14.27 11.5C14.592 11.4847 14.8958 11.3465 15.119 11.114C15.3422 10.8815 15.4678 10.5723 15.47 10.25V7.19C15.4771 6.88559 15.3701 6.58953 15.17 6.36ZM4.22001 12.25C4.004 12.2666 3.79021 12.197 3.62532 12.0565C3.46044 11.916 3.35787 11.7159 3.34001 11.5C3.35787 11.2841 3.46044 11.084 3.62532 10.9435C3.79021 10.803 4.004 10.7334 4.22001 10.75C4.43708 10.7333 4.65201 10.8026 4.81849 10.9429C4.98497 11.0832 5.08967 11.2832 5.11001 11.5C5.08967 11.7168 4.98497 11.9168 4.81849 12.0571C4.65201 12.1974 4.43708 12.2667 4.22001 12.25ZM8.82001 4.67V10.25H5.89001C5.68311 10.0109 5.42644 9.81982 5.13797 9.69027C4.8495 9.56072 4.53621 9.49578 4.22001 9.5C3.90549 9.49724 3.59414 9.56288 3.3075 9.69239C3.02087 9.82189 2.76582 10.0122 2.56001 10.25H1.76001V1.75H8.82001V4.67ZM10.07 4.75H12.07L13.51 6.38H10.07V4.75ZM12.15 12.25C11.934 12.2666 11.7202 12.197 11.5553 12.0565C11.3904 11.916 11.2879 11.7159 11.27 11.5C11.2879 11.2841 11.3904 11.084 11.5553 10.9435C11.7202 10.803 11.934 10.7334 12.15 10.75C12.3671 10.7333 12.582 10.8026 12.7485 10.9429C12.915 11.0832 13.0197 11.2832 13.04 11.5C13.0197 11.7168 12.915 11.9168 12.7485 12.0571C12.582 12.1974 12.3671 12.2667 12.15 12.25ZM12.15 9.5C11.8355 9.49724 11.5241 9.56288 11.2375 9.69239C10.9509 9.82189 10.6958 10.0122 10.49 10.25H10.07V7.62H14.24V10.25H13.82C13.6131 10.0109 13.3564 9.81982 13.068 9.69027C12.7795 9.56072 12.4662 9.49578 12.15 9.5Z" fill="#999999"/>
</svg>
