<svg width="21" height="21" viewBox="0 0 21 21" fill="none" xmlns="http://www.w3.org/2000/svg">
<path d="M4.6226 15.3145C5.4726 14.6645 6.4226 14.152 7.4726 13.777C8.5226 13.402 9.6226 13.2145 10.7726 13.2145C11.9226 13.2145 13.0226 13.402 14.0726 13.777C15.1226 14.152 16.0726 14.6645 16.9226 15.3145C17.5059 14.6312 17.9601 13.8562 18.2851 12.9895C18.6101 12.1228 18.7726 11.1978 18.7726 10.2145C18.7726 7.99783 17.9934 6.11033 16.4351 4.552C14.8768 2.99367 12.9893 2.2145 10.7726 2.2145C8.55593 2.2145 6.66843 2.99367 5.1101 4.552C3.55176 6.11033 2.7726 7.99783 2.7726 10.2145C2.7726 11.1978 2.9351 12.1228 3.2601 12.9895C3.5851 13.8562 4.03927 14.6312 4.6226 15.3145ZM10.7726 11.2145C9.78926 11.2145 8.9601 10.877 8.2851 10.202C7.6101 9.527 7.2726 8.69783 7.2726 7.7145C7.2726 6.73117 7.6101 5.902 8.2851 5.227C8.9601 4.552 9.78926 4.2145 10.7726 4.2145C11.7559 4.2145 12.5851 4.552 13.2601 5.227C13.9351 5.902 14.2726 6.73117 14.2726 7.7145C14.2726 8.69783 13.9351 9.527 13.2601 10.202C12.5851 10.877 11.7559 11.2145 10.7726 11.2145ZM10.7726 20.2145C9.38927 20.2145 8.08926 19.952 6.8726 19.427C5.65593 18.902 4.5976 18.1895 3.6976 17.2895C2.7976 16.3895 2.0851 15.3312 1.5601 14.1145C1.0351 12.8978 0.772598 11.5978 0.772598 10.2145C0.772598 8.83117 1.0351 7.53117 1.5601 6.3145C2.0851 5.09783 2.7976 4.0395 3.6976 3.1395C4.5976 2.2395 5.65593 1.527 6.8726 1.002C8.08926 0.476999 9.38927 0.214499 10.7726 0.214499C12.1559 0.214499 13.4559 0.476999 14.6726 1.002C15.8893 1.527 16.9476 2.2395 17.8476 3.1395C18.7476 4.0395 19.4601 5.09783 19.9851 6.3145C20.5101 7.53117 20.7726 8.83117 20.7726 10.2145C20.7726 11.5978 20.5101 12.8978 19.9851 14.1145C19.4601 15.3312 18.7476 16.3895 17.8476 17.2895C16.9476 18.1895 15.8893 18.902 14.6726 19.427C13.4559 19.952 12.1559 20.2145 10.7726 20.2145ZM10.7726 18.2145C11.6559 18.2145 12.4893 18.0853 13.2726 17.827C14.0559 17.5687 14.7726 17.1978 15.4226 16.7145C14.7726 16.2312 14.0559 15.8603 13.2726 15.602C12.4893 15.3437 11.6559 15.2145 10.7726 15.2145C9.88927 15.2145 9.05593 15.3437 8.2726 15.602C7.48926 15.8603 6.7726 16.2312 6.1226 16.7145C6.7726 17.1978 7.48926 17.5687 8.2726 17.827C9.05593 18.0853 9.88927 18.2145 10.7726 18.2145ZM10.7726 9.2145C11.2059 9.2145 11.5643 9.07283 11.8476 8.7895C12.1309 8.50616 12.2726 8.14783 12.2726 7.7145C12.2726 7.28117 12.1309 6.92283 11.8476 6.6395C11.5643 6.35617 11.2059 6.2145 10.7726 6.2145C10.3393 6.2145 9.98093 6.35617 9.6976 6.6395C9.41426 6.92283 9.2726 7.28117 9.2726 7.7145C9.2726 8.14783 9.41426 8.50616 9.6976 8.7895C9.98093 9.07283 10.3393 9.2145 10.7726 9.2145Z" fill="black"/>
</svg>
