<svg width="16" height="17" viewBox="0 0 16 17" fill="none" xmlns="http://www.w3.org/2000/svg">
<mask id="mask0_5985_66172" style="mask-type:alpha" maskUnits="userSpaceOnUse" x="0" y="0" width="16" height="17">
<rect y="0.684662" width="16" height="16" fill="#D9D9D9"/>
</mask>
<g mask="url(#mask0_5985_66172)">
<path d="M13.3 14.6847C11.9111 14.6847 10.5389 14.3819 9.18333 13.7763C7.82778 13.1708 6.59444 12.3124 5.48333 11.2013C4.37222 10.0902 3.51389 8.85688 2.90833 7.50133C2.30278 6.14577 2 4.77355 2 3.38466C2 3.18466 2.06667 3.018 2.2 2.88466C2.33333 2.75133 2.5 2.68466 2.7 2.68466H5.4C5.55556 2.68466 5.69444 2.73744 5.81667 2.843C5.93889 2.94855 6.01111 3.07355 6.03333 3.218L6.46667 5.55133C6.48889 5.72911 6.48333 5.87911 6.45 6.00133C6.41667 6.12355 6.35556 6.22911 6.26667 6.318L4.65 7.95133C4.87222 8.36244 5.13611 8.75966 5.44167 9.143C5.74722 9.52633 6.08333 9.89577 6.45 10.2513C6.79444 10.5958 7.15556 10.9152 7.53333 11.2097C7.91111 11.5041 8.31111 11.7736 8.73333 12.018L10.3 10.4513C10.4 10.3513 10.5306 10.2763 10.6917 10.2263C10.8528 10.1763 11.0111 10.1624 11.1667 10.1847L13.4667 10.6513C13.6222 10.6958 13.75 10.7763 13.85 10.893C13.95 11.0097 14 11.1402 14 11.2847V13.9847C14 14.1847 13.9333 14.3513 13.8 14.4847C13.6667 14.618 13.5 14.6847 13.3 14.6847ZM4.01667 6.68466L5.11667 5.58466L4.83333 4.018H3.35C3.40556 4.47355 3.48333 4.92355 3.58333 5.368C3.68333 5.81244 3.82778 6.25133 4.01667 6.68466ZM9.98333 12.6513C10.4167 12.8402 10.8583 12.9902 11.3083 13.1013C11.7583 13.2124 12.2111 13.2847 12.6667 13.318V11.8513L11.1 11.5347L9.98333 12.6513Z" fill="#2E9331"/>
</g>
</svg>
