<svg width="20" height="14" viewBox="0 0 20 14" fill="none" xmlns="http://www.w3.org/2000/svg">
<path d="M15.8333 3.66668L12.5 7.00001H15C15 9.75834 12.7583 12 9.99998 12C9.15831 12 8.35831 11.7917 7.66665 11.4167L6.44998 12.6333C7.47498 13.2833 8.69165 13.6667 9.99998 13.6667C13.6833 13.6667 16.6666 10.6833 16.6666 7.00001H19.1666L15.8333 3.66668ZM4.99998 7.00001C4.99998 4.24168 7.24165 2.00001 9.99998 2.00001C10.8416 2.00001 11.6416 2.20834 12.3333 2.58334L13.55 1.36668C12.525 0.716677 11.3083 0.333344 9.99998 0.333344C6.31665 0.333344 3.33331 3.31668 3.33331 7.00001H0.833313L4.16665 10.3333L7.49998 7.00001H4.99998Z" fill="#CCCCCC"/>
</svg>
