<svg width="10" height="16" viewBox="0 0 10 16" fill="none" xmlns="http://www.w3.org/2000/svg">
<path d="M7 3.33333C7 2.8029 6.78929 2.29419 6.41421 1.91911C6.03914 1.54404 5.53043 1.33333 5 1.33333C4.46957 1.33333 3.96086 1.54404 3.58579 1.91911C3.21071 2.29419 3 2.8029 3 3.33333M7 3.33333H9M7 3.33333C7 3.93533 6.734 4.47533 6.31333 4.84199M3 3.33333H1M3 3.33333C3 3.93533 3.266 4.47533 3.68667 4.84199M6.31333 4.84199C8.42733 5.45599 9 7.53866 9 8.66666V12C9 12.3536 8.85952 12.6928 8.60948 12.9428C8.35943 13.1929 8.02029 13.3333 7.66667 13.3333H6.33333M6.31333 4.84199C5.94957 5.15953 5.48286 5.33414 5 5.33333C4.51714 5.33414 4.05043 5.15953 3.68667 4.84199M3.68667 4.84199C1.57267 5.45599 1 7.53866 1 8.66666V12C1 12.3536 1.14048 12.6928 1.39052 12.9428C1.64057 13.1929 1.97971 13.3333 2.33333 13.3333H3.66667M6.33333 13.3333C6.33333 13.6869 6.19286 14.0261 5.94281 14.2761C5.69276 14.5262 5.35362 14.6667 5 14.6667C4.64638 14.6667 4.30724 14.5262 4.05719 14.2761C3.80714 14.0261 3.66667 13.6869 3.66667 13.3333M6.33333 13.3333V9.99999C6.33333 9.64637 6.19286 9.30723 5.94281 9.05719C5.69276 8.80714 5.35362 8.66666 5 8.66666C4.64638 8.66666 4.30724 8.80714 4.05719 9.05719C3.80714 9.30723 3.66667 9.64637 3.66667 9.99999V13.3333" stroke="#999999" stroke-linecap="round" stroke-linejoin="round"/>
</svg>
