<svg width="16" height="16" viewBox="0 0 16 16" fill="none" xmlns="http://www.w3.org/2000/svg">
<path d="M10 3.33333C10 2.8029 9.78929 2.29419 9.41421 1.91911C9.03914 1.54404 8.53043 1.33333 8 1.33333C7.46957 1.33333 6.96086 1.54404 6.58579 1.91911C6.21071 2.29419 6 2.8029 6 3.33333M10 3.33333H12M10 3.33333C10 3.93533 9.734 4.47533 9.31333 4.84199M6 3.33333H4M6 3.33333C6 3.93533 6.266 4.47533 6.68667 4.84199M9.31333 4.84199C11.4273 5.45599 12 7.53866 12 8.66666V12C12 12.3536 11.8595 12.6928 11.6095 12.9428C11.3594 13.1929 11.0203 13.3333 10.6667 13.3333H9.33333M9.31333 4.84199C8.94957 5.15953 8.48286 5.33414 8 5.33333C7.51714 5.33414 7.05043 5.15953 6.68667 4.84199M6.68667 4.84199C4.57267 5.45599 4 7.53866 4 8.66666V12C4 12.3536 4.14048 12.6928 4.39052 12.9428C4.64057 13.1929 4.97971 13.3333 5.33333 13.3333H6.66667M9.33333 13.3333C9.33333 13.6869 9.19286 14.0261 8.94281 14.2761C8.69276 14.5262 8.35362 14.6667 8 14.6667C7.64638 14.6667 7.30724 14.5262 7.05719 14.2761C6.80714 14.0261 6.66667 13.6869 6.66667 13.3333M9.33333 13.3333V9.99999C9.33333 9.64637 9.19286 9.30723 8.94281 9.05719C8.69276 8.80714 8.35362 8.66666 8 8.66666C7.64638 8.66666 7.30724 8.80714 7.05719 9.05719C6.80714 9.30723 6.66667 9.64637 6.66667 9.99999V13.3333" stroke="#999999" stroke-linecap="round" stroke-linejoin="round"/>
</svg>
