<svg width="31" height="31" viewBox="0 0 31 31" fill="none" xmlns="http://www.w3.org/2000/svg">
<path fill-rule="evenodd" clip-rule="evenodd" d="M1.64224 9.59206C3.96393 3.98694 9.43341 0.33232 15.5003 0.332336C23.7844 0.332401 30.5 7.0481 30.5 15.3323C30.5 21.3993 26.8454 26.8688 21.2404 29.1905C15.6353 31.5122 9.18366 30.2289 4.89376 25.9389C0.603854 21.6489 -0.679453 15.1972 1.64224 9.59206ZM1.44254 18.1285C2.77656 24.8352 8.6623 29.6655 15.5003 29.6655C19.3027 29.6706 22.9502 28.1597 25.6353 25.4674C30.4705 20.6321 31.2168 13.0546 27.4178 7.36898C23.6188 1.68335 16.3326 -0.526908 10.0152 2.08991C3.69773 4.70674 0.10851 11.4218 1.44254 18.1285Z" fill="#18632E"/>
<path d="M15.5003 0.332336L15.5003 0.0823364H15.5003L15.5003 0.332336ZM1.64224 9.59206L1.41127 9.49639L1.64224 9.59206ZM30.5 15.3323H30.75V15.3323L30.5 15.3323ZM21.2404 29.1905L21.1447 28.9596L21.2404 29.1905ZM4.89376 25.9389L4.71698 26.1157L4.89376 25.9389ZM15.5003 29.6655L15.5006 29.4155H15.5003V29.6655ZM1.44254 18.1285L1.68773 18.0797L1.44254 18.1285ZM25.6353 25.4674L25.4585 25.2906L25.4583 25.2908L25.6353 25.4674ZM10.0152 2.08991L10.1109 2.32088L10.0152 2.08991ZM15.5003 0.0823364C9.33229 0.08232 3.77166 3.79785 1.41127 9.49639L1.87321 9.68773C4.15621 4.17603 9.53453 0.582321 15.5003 0.582336L15.5003 0.0823364ZM30.75 15.3323C30.75 6.91003 23.9225 0.0824019 15.5003 0.0823364L15.5003 0.582336C23.6463 0.5824 30.25 7.18617 30.25 15.3323L30.75 15.3323ZM21.3361 29.4215C27.0345 27.0611 30.75 21.5004 30.75 15.3323H30.25C30.25 21.2982 26.6563 26.6765 21.1447 28.9596L21.3361 29.4215ZM4.71698 26.1157C9.07838 30.4772 15.6376 31.7819 21.3361 29.4215L21.1447 28.9596C15.6331 31.2426 9.28894 29.9806 5.07054 25.7621L4.71698 26.1157ZM1.41127 9.49639C-0.949118 15.1949 0.355578 21.7542 4.71698 26.1157L5.07054 25.7621C0.852131 21.5437 -0.409789 15.1994 1.87321 9.68773L1.41127 9.49639ZM15.5003 29.4155C8.78157 29.4155 2.99849 24.6694 1.68773 18.0797L1.19734 18.1773C2.55464 25.0009 8.54303 29.9155 15.5003 29.9155V29.4155ZM25.4583 25.2908C22.8202 27.9361 19.2365 29.4205 15.5006 29.4155L15.4999 29.9155C19.3689 29.9207 23.0803 28.3834 25.8123 25.6439L25.4583 25.2908ZM27.2099 7.50788C30.9426 13.0943 30.2094 20.5397 25.4585 25.2906L25.8121 25.6441C30.7316 20.7245 31.4909 13.0149 27.6257 7.23009L27.2099 7.50788ZM10.1109 2.32088C16.3181 -0.250295 23.4772 1.92141 27.2099 7.50788L27.6257 7.23009C23.7604 1.44529 16.3472 -0.803521 9.91951 1.85895L10.1109 2.32088ZM1.68773 18.0797C0.376973 11.49 3.9036 4.89206 10.1109 2.32088L9.91951 1.85895C3.49187 4.52141 -0.159954 11.3536 1.19734 18.1773L1.68773 18.0797Z" fill="#18632E"/>
<path fill-rule="evenodd" clip-rule="evenodd" d="M15.167 12.9988H15.8336C16.3859 12.9989 16.8335 13.4466 16.8336 13.9988V21.9988C16.8335 22.5511 16.3859 22.9988 15.8336 22.9988H15.167C14.6147 22.9988 14.167 22.5511 14.167 21.9988V13.9988C14.167 13.4466 14.6147 12.9989 15.167 12.9988ZM15.8336 22.332C16.0176 22.3316 16.1666 22.1826 16.167 21.9987V13.9987C16.1666 13.8147 16.0176 13.6657 15.8336 13.6653H15.167C14.983 13.6657 14.834 13.8147 14.8336 13.9987V21.9987C14.834 22.1826 14.983 22.3316 15.167 22.332H15.8336Z" fill="#18632E"/>
<path d="M15.8336 12.9988L15.8337 12.7488H15.8336V12.9988ZM15.167 12.9988V12.7488H15.167L15.167 12.9988ZM16.8336 13.9988H17.0836V13.9988L16.8336 13.9988ZM16.8336 21.9988L17.0836 21.9989V21.9988H16.8336ZM15.8336 22.9988V23.2488H15.8337L15.8336 22.9988ZM15.167 22.9988L15.167 23.2488H15.167V22.9988ZM14.167 21.9988H13.917V21.9989L14.167 21.9988ZM14.167 13.9988L13.917 13.9988V13.9988H14.167ZM16.167 21.9987L16.417 21.9992V21.9987H16.167ZM15.8336 22.332V22.582L15.8342 22.582L15.8336 22.332ZM16.167 13.9987H16.417L16.417 13.9982L16.167 13.9987ZM15.8336 13.6653L15.8342 13.4153H15.8336V13.6653ZM15.167 13.6653V13.4153L15.1665 13.4153L15.167 13.6653ZM14.8336 13.9987L14.5836 13.9982V13.9987H14.8336ZM14.8336 21.9987H14.5836L14.5836 21.9992L14.8336 21.9987ZM15.167 22.332L15.1665 22.582H15.167V22.332ZM15.8336 12.7488H15.167V13.2488H15.8336V12.7488ZM17.0836 13.9988C17.0835 13.3085 16.524 12.7489 15.8337 12.7488L15.8336 13.2488C16.2478 13.2489 16.5835 13.5847 16.5836 13.9989L17.0836 13.9988ZM17.0836 21.9988V13.9988H16.5836V21.9988H17.0836ZM15.8337 23.2488C16.524 23.2488 17.0835 22.6892 17.0836 21.9989L16.5836 21.9988C16.5835 22.413 16.2478 22.7488 15.8336 22.7488L15.8337 23.2488ZM15.167 23.2488H15.8336V22.7488H15.167V23.2488ZM13.917 21.9989C13.9171 22.6892 14.4766 23.2488 15.167 23.2488L15.167 22.7488C14.7528 22.7488 14.417 22.413 14.417 21.9988L13.917 21.9989ZM13.917 13.9988V21.9988H14.417V13.9988H13.917ZM15.167 12.7488C14.4766 12.7489 13.9171 13.3085 13.917 13.9988L14.417 13.9989C14.417 13.5846 14.7528 13.2489 15.167 13.2488L15.167 12.7488ZM15.917 21.9981C15.9169 22.0444 15.8794 22.0819 15.8331 22.082L15.8342 22.582C16.1558 22.5813 16.4163 22.3208 16.417 21.9992L15.917 21.9981ZM15.917 13.9987V21.9987H16.417V13.9987H15.917ZM15.8331 13.9153C15.8794 13.9154 15.9169 13.9529 15.917 13.9992L16.417 13.9982C16.4163 13.6766 16.1558 13.416 15.8342 13.4153L15.8331 13.9153ZM15.167 13.9153H15.8336V13.4153H15.167V13.9153ZM15.0836 13.9992C15.0837 13.9529 15.1212 13.9154 15.1675 13.9153L15.1665 13.4153C14.8449 13.416 14.5843 13.6765 14.5836 13.9982L15.0836 13.9992ZM15.0836 21.9987V13.9987H14.5836V21.9987H15.0836ZM15.1675 22.082C15.1212 22.0819 15.0837 22.0444 15.0836 21.9981L14.5836 21.9992C14.5843 22.3208 14.8449 22.5814 15.1665 22.582L15.1675 22.082ZM15.8336 22.082H15.167V22.582H15.8336V22.082Z" fill="#18632E"/>
<path fill-rule="evenodd" clip-rule="evenodd" d="M23.1669 12.9988H23.8335C24.3858 12.9989 24.8334 13.4466 24.8335 13.9988V21.9988C24.8334 22.5511 24.3858 22.9988 23.8335 22.9988H23.1669C22.6146 22.9988 22.1669 22.5511 22.1669 21.9988V13.9988C22.1669 13.4466 22.6146 12.9989 23.1669 12.9988ZM23.8335 22.332C24.0174 22.3316 24.1664 22.1826 24.1668 21.9987V13.9987C24.1665 13.8147 24.0174 13.6657 23.8335 13.6653H23.1669C22.9829 13.6657 22.8339 13.8147 22.8335 13.9987V21.9987C22.8339 22.1826 22.9829 22.3316 23.1669 22.332H23.8335Z" fill="#18632E"/>
<path d="M23.8335 12.9988L23.8335 12.7488H23.8335V12.9988ZM23.1669 12.9988V12.7488H23.1668L23.1669 12.9988ZM24.8335 13.9988H25.0835V13.9988L24.8335 13.9988ZM24.8335 21.9988L25.0835 21.9989V21.9988H24.8335ZM23.8335 22.9988V23.2488H23.8335L23.8335 22.9988ZM23.1669 22.9988L23.1668 23.2488H23.1669V22.9988ZM22.1669 21.9988H21.9169V21.9989L22.1669 21.9988ZM22.1669 13.9988L21.9169 13.9988V13.9988H22.1669ZM24.1668 21.9987L24.4168 21.9992V21.9987H24.1668ZM23.8335 22.332V22.582L23.834 22.582L23.8335 22.332ZM24.1668 13.9987H24.4168L24.4168 13.9982L24.1668 13.9987ZM23.8335 13.6653L23.834 13.4153H23.8335V13.6653ZM23.1669 13.6653V13.4153L23.1664 13.4153L23.1669 13.6653ZM22.8335 13.9987L22.5835 13.9982V13.9987H22.8335ZM22.8335 21.9987H22.5835L22.5835 21.9992L22.8335 21.9987ZM23.1669 22.332L23.1663 22.582H23.1669V22.332ZM23.8335 12.7488H23.1669V13.2488H23.8335V12.7488ZM25.0835 13.9988C25.0834 13.3085 24.5238 12.7489 23.8335 12.7488L23.8335 13.2488C24.2477 13.2489 24.5834 13.5847 24.5835 13.9989L25.0835 13.9988ZM25.0835 21.9988V13.9988H24.5835V21.9988H25.0835ZM23.8335 23.2488C24.5238 23.2488 25.0834 22.6892 25.0835 21.9989L24.5835 21.9988C24.5834 22.413 24.2477 22.7488 23.8335 22.7488L23.8335 23.2488ZM23.1669 23.2488H23.8335V22.7488H23.1669V23.2488ZM21.9169 21.9989C21.9169 22.6892 22.4765 23.2488 23.1668 23.2488L23.1669 22.7488C22.7527 22.7488 22.4169 22.413 22.4169 21.9988L21.9169 21.9989ZM21.9169 13.9988V21.9988H22.4169V13.9988H21.9169ZM23.1668 12.7488C22.4765 12.7489 21.9169 13.3085 21.9169 13.9988L22.4169 13.9989C22.4169 13.5846 22.7527 13.2489 23.1669 13.2488L23.1668 12.7488ZM23.9168 21.9981C23.9167 22.0444 23.8793 22.0819 23.833 22.082L23.834 22.582C24.1556 22.5813 24.4162 22.3208 24.4168 21.9992L23.9168 21.9981ZM23.9168 13.9987V21.9987H24.4168V13.9987H23.9168ZM23.833 13.9153C23.8793 13.9154 23.9167 13.9529 23.9168 13.9992L24.4168 13.9982C24.4162 13.6766 24.1556 13.416 23.834 13.4153L23.833 13.9153ZM23.1669 13.9153H23.8335V13.4153H23.1669V13.9153ZM23.0835 13.9992C23.0836 13.9529 23.1211 13.9154 23.1674 13.9153L23.1664 13.4153C22.8447 13.416 22.5842 13.6765 22.5835 13.9982L23.0835 13.9992ZM23.0835 21.9987V13.9987H22.5835V21.9987H23.0835ZM23.1674 22.082C23.1211 22.0819 23.0836 22.0444 23.0835 21.9981L22.5835 21.9992C22.5842 22.3208 22.8447 22.5814 23.1663 22.582L23.1674 22.082ZM23.8335 22.082H23.1669V22.582H23.8335V22.082Z" fill="#18632E"/>
<path fill-rule="evenodd" clip-rule="evenodd" d="M19.1669 10.3323H19.8335C20.3858 10.3324 20.8334 10.7801 20.8335 11.3323L20.8335 21.999C20.8334 22.5513 20.3858 22.9989 19.8335 22.999H19.1669C18.6146 22.9989 18.1669 22.5513 18.1669 21.999V11.3323C18.1669 10.7801 18.6146 10.3324 19.1669 10.3323ZM19.8335 22.3322C20.0174 22.3318 20.1665 22.1828 20.1668 21.9988V11.3322C20.1665 11.1482 20.0174 10.9992 19.8335 10.9988H19.1669C18.9829 10.9992 18.8339 11.1482 18.8335 11.3322V21.9988H18.8335C18.8339 22.1828 18.9829 22.3318 19.1669 22.3322H19.8335Z" fill="#18632E"/>
<path d="M19.8335 10.3323L19.8335 10.0823H19.8335V10.3323ZM19.1669 10.3323V10.0823H19.1668L19.1669 10.3323ZM20.8335 11.3323L21.0835 11.3323V11.3323L20.8335 11.3323ZM20.8335 21.999L21.0835 21.999V21.999L20.8335 21.999ZM19.8335 22.999V23.249H19.8335L19.8335 22.999ZM19.1669 22.999L19.1668 23.249H19.1669V22.999ZM18.1669 21.999H17.9169V21.999L18.1669 21.999ZM18.1669 11.3323L17.9169 11.3323V11.3323H18.1669ZM20.1668 21.9988L20.4168 21.9994V21.9988H20.1668ZM19.8335 22.3322V22.5822L19.834 22.5822L19.8335 22.3322ZM20.1668 11.3322H20.4168L20.4168 11.3317L20.1668 11.3322ZM19.8335 10.9988L19.834 10.7488H19.8335V10.9988ZM19.1669 10.9988V10.7488L19.1664 10.7488L19.1669 10.9988ZM18.8335 11.3322L18.5835 11.3317V11.3322H18.8335ZM18.8335 21.9988V22.2488H19.0835V21.9988H18.8335ZM18.8335 21.9988V21.7488H18.583L18.5835 21.9994L18.8335 21.9988ZM19.1669 22.3322L19.1664 22.5822H19.1669V22.3322ZM19.8335 10.0823H19.1669V10.5823H19.8335V10.0823ZM21.0835 11.3323C21.0834 10.642 20.5238 10.0824 19.8335 10.0823L19.8335 10.5823C20.2477 10.5824 20.5834 10.9182 20.5835 11.3324L21.0835 11.3323ZM21.0835 21.999L21.0835 11.3323L20.5835 11.3323L20.5835 21.999L21.0835 21.999ZM19.8335 23.249C20.5238 23.2489 21.0834 22.6893 21.0835 21.999L20.5835 21.999C20.5834 22.4132 20.2477 22.749 19.8335 22.749L19.8335 23.249ZM19.1669 23.249H19.8335V22.749H19.1669V23.249ZM17.9169 21.999C17.9169 22.6893 18.4765 23.2489 19.1668 23.249L19.1669 22.749C18.7527 22.749 18.4169 22.4132 18.4169 21.999L17.9169 21.999ZM17.9169 11.3323V21.999H18.4169V11.3323H17.9169ZM19.1668 10.0823C18.4765 10.0824 17.9169 10.642 17.9169 11.3323L18.4169 11.3324C18.4169 10.9181 18.7527 10.5824 19.1669 10.5823L19.1668 10.0823ZM19.9168 21.9983C19.9167 22.0446 19.8793 22.0821 19.833 22.0822L19.834 22.5822C20.1556 22.5815 20.4162 22.321 20.4168 21.9994L19.9168 21.9983ZM19.9168 11.3322V21.9988H20.4168V11.3322H19.9168ZM19.833 11.2488C19.8793 11.2489 19.9167 11.2864 19.9168 11.3327L20.4168 11.3317C20.4162 11.0101 20.1556 10.7495 19.834 10.7488L19.833 11.2488ZM19.1669 11.2488H19.8335V10.7488H19.1669V11.2488ZM19.0835 11.3327C19.0836 11.2864 19.1211 11.2489 19.1673 11.2488L19.1664 10.7488C18.8447 10.7495 18.5841 11.0101 18.5835 11.3317L19.0835 11.3327ZM19.0835 21.9988V11.3322H18.5835V21.9988H19.0835ZM18.8335 22.2488H18.8335V21.7488H18.8335V22.2488ZM19.1674 22.0822C19.1211 22.0821 19.0836 22.0446 19.0835 21.9983L18.5835 21.9994C18.5842 22.321 18.8447 22.5815 19.1664 22.5822L19.1674 22.0822ZM19.8335 22.0822H19.1669V22.5822H19.8335V22.0822Z" fill="#18632E"/>
<path fill-rule="evenodd" clip-rule="evenodd" d="M11.167 6.99884H11.8336C12.3859 6.99891 12.8335 7.44659 12.8336 7.99884V21.9988C12.8335 22.5511 12.3859 22.9988 11.8336 22.9988H11.167C10.6147 22.9988 10.167 22.5511 10.167 21.9988V7.99884C10.167 7.44658 10.6147 6.99889 11.167 6.99884ZM11.8336 22.332C12.0176 22.3316 12.1666 22.1826 12.167 21.9987V7.99868C12.1666 7.81474 12.0176 7.66573 11.8336 7.66534H11.167C10.983 7.66571 10.834 7.81473 10.8336 7.99868V21.9987C10.834 22.1826 10.983 22.3316 11.167 22.332H11.8336Z" fill="#18632E"/>
<path d="M11.8336 6.99884L11.8337 6.74884H11.8336V6.99884ZM11.167 6.99884V6.74884H11.167L11.167 6.99884ZM12.8336 7.99884H13.0836V7.99882L12.8336 7.99884ZM12.8336 21.9988L13.0836 21.9989V21.9988H12.8336ZM11.8336 22.9988V23.2488H11.8337L11.8336 22.9988ZM11.167 22.9988L11.167 23.2488H11.167V22.9988ZM10.167 21.9988H9.91699V21.9989L10.167 21.9988ZM10.167 7.99884L9.91699 7.99882V7.99884H10.167ZM12.167 21.9987L12.417 21.9992V21.9987H12.167ZM11.8336 22.332V22.582L11.8342 22.582L11.8336 22.332ZM12.167 7.99868H12.417L12.417 7.99816L12.167 7.99868ZM11.8336 7.66534L11.8342 7.41534H11.8336V7.66534ZM11.167 7.66534V7.41534L11.1665 7.41534L11.167 7.66534ZM10.8336 7.99868L10.5836 7.99815V7.99868H10.8336ZM10.8336 21.9987H10.5836L10.5836 21.9992L10.8336 21.9987ZM11.167 22.332L11.1665 22.582H11.167V22.332ZM11.8336 6.74884H11.167V7.24884H11.8336V6.74884ZM13.0836 7.99882C13.0835 7.30852 12.524 6.74892 11.8337 6.74884L11.8336 7.24884C12.2478 7.24889 12.5835 7.58466 12.5836 7.99886L13.0836 7.99882ZM13.0836 21.9988V7.99884H12.5836V21.9988H13.0836ZM11.8337 23.2488C12.524 23.2488 13.0835 22.6892 13.0836 21.9989L12.5836 21.9988C12.5835 22.413 12.2478 22.7488 11.8336 22.7488L11.8337 23.2488ZM11.167 23.2488H11.8336V22.7488H11.167V23.2488ZM9.91699 21.9989C9.91706 22.6892 10.4766 23.2488 11.167 23.2488L11.167 22.7488C10.7528 22.7488 10.417 22.413 10.417 21.9988L9.91699 21.9989ZM9.91699 7.99884V21.9988H10.417V7.99884H9.91699ZM11.167 6.74884C10.4766 6.7489 9.91705 7.3085 9.91699 7.99882L10.417 7.99886C10.417 7.58465 10.7528 7.24888 11.167 7.24884L11.167 6.74884ZM11.917 21.9981C11.9169 22.0444 11.8794 22.0819 11.8331 22.082L11.8342 22.582C12.1558 22.5813 12.4163 22.3208 12.417 21.9992L11.917 21.9981ZM11.917 7.99868V21.9987H12.417V7.99868H11.917ZM11.8331 7.91534C11.8794 7.91544 11.9169 7.95292 11.917 7.9992L12.417 7.99816C12.4163 7.67656 12.1558 7.41601 11.8342 7.41534L11.8331 7.91534ZM11.167 7.91534H11.8336V7.41534H11.167V7.91534ZM11.0836 7.9992C11.0837 7.95292 11.1212 7.91544 11.1675 7.91534L11.1665 7.41534C10.8449 7.41598 10.5843 7.67653 10.5836 7.99815L11.0836 7.9992ZM11.0836 21.9987V7.99868H10.5836V21.9987H11.0836ZM11.1675 22.082C11.1212 22.0819 11.0837 22.0444 11.0836 21.9981L10.5836 21.9992C10.5843 22.3208 10.8449 22.5814 11.1665 22.582L11.1675 22.082ZM11.8336 22.082H11.167V22.582H11.8336V22.082Z" fill="#18632E"/>
<path fill-rule="evenodd" clip-rule="evenodd" d="M7.1671 10.9988H7.83376C8.386 10.9989 8.83366 11.4466 8.8337 11.9988V21.9988C8.83365 22.5511 8.386 22.9988 7.83376 22.9988H7.1671C6.61485 22.9988 6.16717 22.5511 6.16711 21.9988V11.9988C6.16716 11.4466 6.61484 10.9989 7.1671 10.9988ZM7.83376 22.332C8.01769 22.3316 8.16669 22.1826 8.16708 21.9987V11.9987C8.1667 11.8147 8.01769 11.6657 7.83376 11.6653H7.1671C6.98315 11.6657 6.83412 11.8147 6.83373 11.9987V21.9987C6.83413 22.1826 6.98316 22.3316 7.1671 22.332H7.83376Z" fill="#18632E"/>
<path d="M7.83376 10.9988L7.83379 10.7488H7.83376V10.9988ZM7.1671 10.9988V10.7488H7.16708L7.1671 10.9988ZM8.8337 11.9988H9.0837V11.9988L8.8337 11.9988ZM8.8337 21.9988L9.0837 21.9989V21.9988H8.8337ZM7.83376 22.9988V23.2488H7.83379L7.83376 22.9988ZM7.1671 22.9988L7.16707 23.2488H7.1671V22.9988ZM6.16711 21.9988H5.91711V21.9989L6.16711 21.9988ZM6.16711 11.9988L5.91711 11.9988V11.9988H6.16711ZM8.16708 21.9987L8.41708 21.9992V21.9987H8.16708ZM7.83376 22.332V22.582L7.83429 22.582L7.83376 22.332ZM8.16708 11.9987H8.41709L8.41708 11.9982L8.16708 11.9987ZM7.83376 11.6653L7.83428 11.4153H7.83376V11.6653ZM7.1671 11.6653V11.4153L7.1666 11.4153L7.1671 11.6653ZM6.83373 11.9987L6.58373 11.9982V11.9987H6.83373ZM6.83373 21.9987H6.58373L6.58373 21.9992L6.83373 21.9987ZM7.1671 22.332L7.16659 22.582H7.1671V22.332ZM7.83376 10.7488H7.1671V11.2488H7.83376V10.7488ZM9.0837 11.9988C9.08365 11.3085 8.52408 10.7489 7.83379 10.7488L7.83373 11.2488C8.24791 11.2489 8.58367 11.5847 8.5837 11.9989L9.0837 11.9988ZM9.0837 21.9988V11.9988H8.5837V21.9988H9.0837ZM7.83379 23.2488C8.52408 23.2488 9.08364 22.6892 9.0837 21.9989L8.5837 21.9988C8.58366 22.413 8.24791 22.7488 7.83372 22.7488L7.83379 23.2488ZM7.1671 23.2488H7.83376V22.7488H7.1671V23.2488ZM5.91711 21.9989C5.91718 22.6892 6.47677 23.2488 7.16707 23.2488L7.16712 22.7488C6.75293 22.7488 6.41716 22.413 6.41711 21.9988L5.91711 21.9989ZM5.91711 11.9988V21.9988H6.41711V11.9988H5.91711ZM7.16708 10.7488C6.47676 10.7489 5.91717 11.3085 5.91711 11.9988L6.41711 11.9989C6.41715 11.5846 6.75292 11.2489 7.16712 11.2488L7.16708 10.7488ZM7.91709 21.9981C7.91699 22.0444 7.8795 22.0819 7.83323 22.082L7.83429 22.582C8.15588 22.5813 8.4164 22.3208 8.41708 21.9992L7.91709 21.9981ZM7.91708 11.9987V21.9987H8.41708V11.9987H7.91708ZM7.83324 11.9153C7.8795 11.9154 7.91699 11.9529 7.91709 11.9992L8.41708 11.9982C8.41641 11.6766 8.15588 11.416 7.83428 11.4153L7.83324 11.9153ZM7.1671 11.9153H7.83376V11.4153H7.1671V11.9153ZM7.08373 11.9992C7.08383 11.9529 7.12132 11.9154 7.1676 11.9153L7.1666 11.4153C6.84498 11.416 6.58441 11.6765 6.58373 11.9982L7.08373 11.9992ZM7.08373 21.9987V11.9987H6.58373V21.9987H7.08373ZM7.16761 22.082C7.12133 22.0819 7.08383 22.0444 7.08373 21.9981L6.58373 21.9992C6.58442 22.3208 6.84498 22.5814 7.16659 22.582L7.16761 22.082ZM7.83376 22.082H7.1671V22.582H7.83376V22.082Z" fill="#18632E"/>
</svg>
