<svg width="16" height="16" viewBox="0 0 16 16" fill="none" xmlns="http://www.w3.org/2000/svg">
<g clip-path="url(#clip0_6859_16498)">
<path fill-rule="evenodd" clip-rule="evenodd" d="M10.0794 2.33696C10.1274 2.34919 10.1736 2.36791 10.2167 2.39262C11.0206 2.60845 11.6683 3.28435 12.1167 4.10905C12.6733 5.13368 13 6.50989 13 7.99969C13 9.48892 12.6733 10.8657 12.1167 11.8903C11.6683 12.7145 11.0206 13.3904 10.2167 13.6068C10.1734 13.6315 10.127 13.6502 10.0789 13.6624C8.04111 14.1832 6.83611 14.0293 5.92333 13.6851L5.73222 13.6079C5.67067 13.5819 5.60956 13.5548 5.54889 13.5267C4.77278 13.1671 4.13889 12.4055 3.70333 11.4604C3.26278 10.5045 3 9.31115 3 7.99969C3 6.68823 3.26278 5.49491 3.70333 4.53901C4.13889 3.59389 4.77222 2.83224 5.54833 2.47328C5.60833 2.44544 5.66944 2.41818 5.73167 2.39205L5.92333 2.31538C6.83611 1.97062 8.04111 1.81669 10.0789 2.33753L10.0794 2.33696ZM6.00722 3.50699C5.55333 3.71771 5.07611 4.22435 4.70833 5.02349C4.34444 5.81184 4.11111 6.83818 4.11111 7.99969C4.11111 9.1612 4.34444 10.1875 4.70833 10.9759C5.07611 11.775 5.55278 12.2817 6.00722 12.4924C6.45722 12.7008 7.01944 12.8911 7.91611 12.8616C7.641 12.5717 7.4057 12.245 7.21667 11.8903C6.66 10.8657 6.33333 9.48892 6.33333 7.99969C6.33333 6.50989 6.66 5.13368 7.21667 4.10905C7.40588 3.75437 7.64137 3.42763 7.91667 3.13781C7.01944 3.10827 6.45722 3.29855 6.00722 3.50699ZM9.66667 3.45587C9.19278 3.45587 8.64722 3.81597 8.18833 4.66112C7.73889 5.48696 7.44444 6.66608 7.44444 7.99969C7.44444 9.3333 7.73889 10.5124 8.18833 11.3383C8.64722 12.1834 9.19278 12.5435 9.66667 12.5435C10.1406 12.5435 10.6861 12.1834 11.145 11.3383C11.5944 10.5124 11.8889 9.3333 11.8889 7.99969C11.8889 6.66608 11.5944 5.48696 11.145 4.66112C10.6861 3.81597 10.1406 3.45587 9.66667 3.45587ZM9.66667 5.72778C10.2206 5.72778 10.5722 6.17194 10.7528 6.54056C10.95 6.94382 11.0556 7.46011 11.0556 7.99969C11.0556 8.53927 10.95 9.05612 10.7528 9.45882C10.5728 9.82744 10.2206 10.271 9.66667 10.271C9.11278 10.271 8.76111 9.82744 8.58056 9.45882C8.38333 9.05556 8.27778 8.5387 8.27778 7.99912C8.27778 7.45954 8.38333 6.94325 8.58056 6.54056C8.76111 6.17194 9.11278 5.72778 9.66667 5.72778ZM9.66667 6.89781C9.64278 6.92621 9.61111 6.97335 9.57444 7.04889C9.46944 7.26302 9.38889 7.59813 9.38889 7.99969C9.38889 8.40125 9.46944 8.73635 9.57444 8.95048C9.61111 9.02602 9.64278 9.07316 9.66667 9.10156C9.69056 9.07316 9.72222 9.02602 9.75889 8.95048C9.86389 8.73635 9.94444 8.40125 9.94444 7.99969C9.94444 7.59813 9.86389 7.26302 9.75889 7.04889C9.73409 6.99499 9.70313 6.94428 9.66667 6.89781Z" fill="#999999"/>
</g>
<defs>
<clipPath id="clip0_6859_16498">
<rect width="16" height="16" fill="white"/>
</clipPath>
</defs>
</svg>
