<svg width="16" height="16" viewBox="0 0 16 16" fill="none" xmlns="http://www.w3.org/2000/svg">
<path fill-rule="evenodd" clip-rule="evenodd" d="M7.96265 0.833328H8.03731C9.26265 0.833328 10.2333 0.833328 10.9926 0.935328C11.774 1.04066 12.4066 1.26199 12.906 1.76066C13.4046 2.25999 13.626 2.89266 13.7313 3.67399C13.8 4.18333 13.822 4.78733 13.8293 5.49999H14C14.644 5.49999 15.1666 6.02266 15.1666 6.66666V7.33333C15.1666 7.69999 14.9933 8.04666 14.7 8.26666L13.8313 8.91799C13.8266 9.73933 13.8073 10.4247 13.7313 10.9927C13.626 11.774 13.4046 12.4067 12.906 12.906C12.7793 13.0327 12.644 13.1413 12.5 13.2347V14C12.5 14.3094 12.3771 14.6062 12.1583 14.825C11.9395 15.0437 11.6427 15.1667 11.3333 15.1667H10.3333C10.0239 15.1667 9.72715 15.0437 9.50835 14.825C9.28956 14.6062 9.16665 14.3094 9.16665 14V13.8293C8.81665 13.8333 8.44131 13.8333 8.03731 13.8333H7.96265C7.55865 13.8333 7.18265 13.8333 6.83331 13.8293V14C6.83331 14.3094 6.7104 14.6062 6.4916 14.825C6.27281 15.0437 5.97607 15.1667 5.66665 15.1667H4.66665C4.35723 15.1667 4.06048 15.0437 3.84169 14.825C3.6229 14.6062 3.49998 14.3094 3.49998 14V13.2347C3.35349 13.1397 3.21741 13.0295 3.09398 12.906C2.59531 12.4067 2.37398 11.774 2.26865 10.9927C2.19265 10.4247 2.17331 9.73933 2.16865 8.91799L1.29998 8.26666C1.00665 8.04666 0.833313 7.69999 0.833313 7.33333V6.66666C0.833313 6.02266 1.35598 5.49999 1.99998 5.49999H2.16998C2.17798 4.78733 2.19998 4.18333 2.26865 3.67399C2.37398 2.89266 2.59531 2.25999 3.09398 1.76066C3.59331 1.26199 4.22598 1.04066 5.00731 0.935328C5.76731 0.833328 6.73731 0.833328 7.96265 0.833328ZM2.16665 6.49999H1.99998C1.95578 6.49999 1.91338 6.51755 1.88213 6.54881C1.85087 6.58007 1.83331 6.62246 1.83331 6.66666V7.33333C1.83331 7.3592 1.83934 7.38472 1.85091 7.40786C1.86248 7.43101 1.87928 7.45114 1.89998 7.46666L2.16665 7.66666V6.62933V6.49999ZM3.17065 9.16666C3.17731 9.85599 3.19865 10.4053 3.25998 10.86C3.34998 11.53 3.51931 11.9167 3.80131 12.1987C4.08331 12.4807 4.46998 12.65 5.14065 12.74C5.82598 12.832 6.72865 12.8333 7.99998 12.8333C9.27131 12.8333 10.1746 12.832 10.86 12.74C11.53 12.65 11.9166 12.4807 12.1986 12.1987C12.4806 11.9167 12.65 11.53 12.74 10.8593C12.8013 10.406 12.822 9.85599 12.8293 9.16666H3.17065ZM12.8333 8.16666H3.16665V6.66666C3.16665 5.41133 3.16798 4.51533 3.25665 3.83333H12.7433C12.832 4.51533 12.8333 5.41133 12.8333 6.66666V7.99999V8.16666ZM13.8333 7.66666L14.1 7.46666C14.1207 7.45114 14.1375 7.43101 14.149 7.40786C14.1606 7.38472 14.1666 7.3592 14.1666 7.33333V6.66666C14.1666 6.62246 14.1491 6.58007 14.1178 6.54881C14.0866 6.51755 14.0442 6.49999 14 6.49999H13.8333V6.62933V7.66666ZM12.4673 2.83333C12.3968 2.69864 12.3062 2.57546 12.1986 2.46799C11.9166 2.18599 11.53 2.01666 10.8593 1.92666C10.174 1.83466 9.27131 1.83333 7.99998 1.83333C6.72865 1.83333 5.82598 1.83466 5.13998 1.92666C4.46998 2.01666 4.08331 2.18599 3.80131 2.46799C3.69384 2.57552 3.60326 2.69869 3.53265 2.83333H12.4673ZM4.49998 13.64V14C4.49998 14.092 4.57465 14.1667 4.66665 14.1667H5.66665C5.71085 14.1667 5.75324 14.1491 5.7845 14.1178C5.81575 14.0866 5.83331 14.0442 5.83331 14V13.8027C5.55712 13.7902 5.28155 13.7664 5.00731 13.7313C4.83687 13.7088 4.66757 13.6784 4.49998 13.64ZM10.1666 13.8027V14C10.1666 14.092 10.2413 14.1667 10.3333 14.1667H11.3333C11.3775 14.1667 11.4199 14.1491 11.4512 14.1178C11.4824 14.0866 11.5 14.0442 11.5 14V13.64C11.3324 13.6785 11.1631 13.709 10.9926 13.7313C10.7184 13.7664 10.4428 13.7902 10.1666 13.8027ZM4.16665 10.6667C4.16665 10.5341 4.21932 10.4069 4.31309 10.3131C4.40686 10.2193 4.53404 10.1667 4.66665 10.1667H5.66665C5.79925 10.1667 5.92643 10.2193 6.0202 10.3131C6.11397 10.4069 6.16665 10.5341 6.16665 10.6667C6.16665 10.7993 6.11397 10.9264 6.0202 11.0202C5.92643 11.114 5.79925 11.1667 5.66665 11.1667H4.66665C4.53404 11.1667 4.40686 11.114 4.31309 11.0202C4.21932 10.9264 4.16665 10.7993 4.16665 10.6667ZM9.83331 10.6667C9.83331 10.5341 9.88599 10.4069 9.97976 10.3131C10.0735 10.2193 10.2007 10.1667 10.3333 10.1667H11.3333C11.4659 10.1667 11.5931 10.2193 11.6869 10.3131C11.7806 10.4069 11.8333 10.5341 11.8333 10.6667C11.8333 10.7993 11.7806 10.9264 11.6869 11.0202C11.5931 11.114 11.4659 11.1667 11.3333 11.1667H10.3333C10.2007 11.1667 10.0735 11.114 9.97976 11.0202C9.88599 10.9264 9.83331 10.7993 9.83331 10.6667Z" fill="#999999"/>
</svg>
