<svg width="16" height="11" viewBox="0 0 16 11" fill="none" xmlns="http://www.w3.org/2000/svg">
<path d="M4.66665 9.66667C5.02027 9.66667 5.35941 9.52619 5.60945 9.27614C5.8595 9.02609 5.99998 8.68696 5.99998 8.33333C5.99998 7.97971 5.8595 7.64057 5.60945 7.39052C5.35941 7.14048 5.02027 7 4.66665 7C4.31302 7 3.97389 7.14048 3.72384 7.39052C3.47379 7.64057 3.33331 7.97971 3.33331 8.33333C3.33331 8.68696 3.47379 9.02609 3.72384 9.27614C3.97389 9.52619 4.31302 9.66667 4.66665 9.66667ZM11.3333 9.66667C11.6869 9.66667 12.0261 9.52619 12.2761 9.27614C12.5262 9.02609 12.6666 8.68696 12.6666 8.33333C12.6666 7.97971 12.5262 7.64057 12.2761 7.39052C12.0261 7.14048 11.6869 7 11.3333 7C10.9797 7 10.6406 7.14048 10.3905 7.39052C10.1405 7.64057 9.99998 7.97971 9.99998 8.33333C9.99998 8.68696 10.1405 9.02609 10.3905 9.27614C10.6406 9.52619 10.9797 9.66667 11.3333 9.66667Z" stroke="#999999" stroke-miterlimit="1.5" stroke-linecap="round" stroke-linejoin="round"/>
<path d="M9.33331 8.33333V1.4C9.33331 1.29391 9.29117 1.19217 9.21616 1.11716C9.14114 1.04214 9.0394 1 8.93331 1H1.73331C1.62723 1 1.52548 1.04214 1.45047 1.11716C1.37546 1.19217 1.33331 1.29391 1.33331 1.4V7.93333C1.33331 7.98586 1.34366 8.03788 1.36376 8.08641C1.38386 8.13494 1.41333 8.17903 1.45047 8.21618C1.48761 8.25332 1.53171 8.28278 1.58024 8.30289C1.62877 8.32299 1.68078 8.33333 1.73331 8.33333H3.09998M9.33331 8.33333H6.03331M9.33331 8.33333H9.99998M9.33331 3H13.0733C13.1506 3.00002 13.2263 3.02245 13.2911 3.06457C13.356 3.10669 13.4072 3.1667 13.4386 3.23733L14.632 5.92267C14.6547 5.97366 14.6665 6.02884 14.6666 6.08467V7.93333C14.6666 7.98586 14.6563 8.03788 14.6362 8.08641C14.6161 8.13494 14.5866 8.17903 14.5495 8.21618C14.5123 8.25332 14.4682 8.28278 14.4197 8.30289C14.3712 8.32299 14.3192 8.33333 14.2666 8.33333H13" stroke="#999999" stroke-linecap="round"/>
</svg>
