<svg width="12" height="14" viewBox="0 0 12 14" fill="none" xmlns="http://www.w3.org/2000/svg">
<path d="M7.32875 8.95375C7.69312 9.86375 8.21875 10 8.5 10C8.78125 10 9.30688 9.86375 9.67125 8.95375C9.88313 8.42375 10 7.73 10 7C10 6.27 9.88313 5.57625 9.67125 5.04625C9.30688 4.13625 8.78125 4 8.5 4C8.21875 4 7.69312 4.13625 7.32875 5.04625C7.11687 5.57625 7 6.27 7 7C7 7.73 7.11687 8.42375 7.32875 8.95375ZM8.5 5.0125C8.66375 5.14125 9 5.825 9 7C9 8.175 8.66375 8.85875 8.5 8.9875C8.33625 8.85875 8 8.175 8 7C8 5.825 8.33625 5.14125 8.5 5.0125ZM10.2756 12.5C11.32 11.3581 12 9.34188 12 7C12 3.355 10.3531 0.5 8.25 0.5H3.75C1.64687 0.5 0 3.355 0 7C0 10.645 1.64687 13.5 3.75 13.5H10.2756C10.4082 13.5 10.5354 13.4473 10.6292 13.3536C10.7229 13.2598 10.7756 13.1326 10.7756 13C10.7756 12.8674 10.7229 12.7402 10.6292 12.6464C10.5354 12.5527 10.4082 12.5 10.2756 12.5ZM10.1088 2.99563C10.6831 4.05687 11 5.47937 11 7C11 8.52063 10.6831 9.94313 10.1088 11.0044C9.58625 11.9688 8.92625 12.5 8.25 12.5C7.57375 12.5 6.91375 11.9688 6.39125 11.0044C5.81687 9.94313 5.5 8.52063 5.5 7C5.5 5.47937 5.81687 4.05687 6.39125 2.99563C6.91375 2.03125 7.57375 1.5 8.25 1.5C8.92625 1.5 9.58625 2.03125 10.1088 2.99563ZM1 7C1 6.84375 1.00437 6.6875 1.01062 6.535L3 5.11438L4.52688 6.205C4.50938 6.465 4.5 6.73063 4.5 7C4.49842 7.70238 4.56266 8.40336 4.69187 9.09375L3.29063 8.09375C3.20582 8.03318 3.10421 8.00061 3 8.00061C2.89579 8.00061 2.79418 8.03318 2.70937 8.09375L1.22563 9.15625C1.07298 8.44772 0.997334 7.72478 1 7ZM1.89125 2.99563C2.41375 2.03125 3.07375 1.5 3.75 1.5H6.22437C5.48062 2.3125 4.92188 3.57 4.66187 5.0725L3.29063 4.09312C3.20582 4.03255 3.10421 3.99999 3 3.99999C2.89579 3.99999 2.79418 4.03255 2.70937 4.09312L1.15563 5.20312C1.30313 4.375 1.55187 3.625 1.89125 2.99563ZM1.89125 11.0044C1.74742 10.7363 1.62334 10.458 1.52 10.1719L3 9.11438L5.12125 10.6294C5.40875 11.3794 5.78375 12.0181 6.22437 12.5H3.75C3.07375 12.5 2.41375 11.9688 1.89125 11.0044Z" fill="#999999"/>
</svg>
