<svg width="16" height="16" viewBox="0 0 16 16" fill="none" xmlns="http://www.w3.org/2000/svg">
<path d="M9.32875 9.95375C9.69312 10.8637 10.2188 11 10.5 11C10.7812 11 11.3069 10.8637 11.6713 9.95375C11.8831 9.42375 12 8.73 12 8C12 7.27 11.8831 6.57625 11.6713 6.04625C11.3069 5.13625 10.7812 5 10.5 5C10.2188 5 9.69312 5.13625 9.32875 6.04625C9.11687 6.57625 9 7.27 9 8C9 8.73 9.11687 9.42375 9.32875 9.95375ZM10.5 6.0125C10.6637 6.14125 11 6.825 11 8C11 9.175 10.6637 9.85875 10.5 9.9875C10.3363 9.85875 10 9.175 10 8C10 6.825 10.3363 6.14125 10.5 6.0125ZM12.2756 13.5C13.32 12.3581 14 10.3419 14 8C14 4.355 12.3531 1.5 10.25 1.5H5.75C3.64687 1.5 2 4.355 2 8C2 11.645 3.64687 14.5 5.75 14.5H12.2756C12.4082 14.5 12.5354 14.4473 12.6292 14.3536C12.7229 14.2598 12.7756 14.1326 12.7756 14C12.7756 13.8674 12.7229 13.7402 12.6292 13.6464C12.5354 13.5527 12.4082 13.5 12.2756 13.5ZM12.1088 3.99563C12.6831 5.05687 13 6.47937 13 8C13 9.52063 12.6831 10.9431 12.1088 12.0044C11.5863 12.9688 10.9263 13.5 10.25 13.5C9.57375 13.5 8.91375 12.9688 8.39125 12.0044C7.81687 10.9431 7.5 9.52063 7.5 8C7.5 6.47937 7.81687 5.05687 8.39125 3.99563C8.91375 3.03125 9.57375 2.5 10.25 2.5C10.9263 2.5 11.5863 3.03125 12.1088 3.99563ZM3 8C3 7.84375 3.00437 7.6875 3.01062 7.535L5 6.11438L6.52688 7.205C6.50938 7.465 6.5 7.73063 6.5 8C6.49842 8.70238 6.56266 9.40336 6.69187 10.0938L5.29063 9.09375C5.20582 9.03318 5.10421 9.00061 5 9.00061C4.89579 9.00061 4.79418 9.03318 4.70937 9.09375L3.22563 10.1562C3.07298 9.44772 2.99733 8.72478 3 8ZM3.89125 3.99563C4.41375 3.03125 5.07375 2.5 5.75 2.5H8.22437C7.48062 3.3125 6.92188 4.57 6.66187 6.0725L5.29063 5.09312C5.20582 5.03255 5.10421 4.99999 5 4.99999C4.89579 4.99999 4.79418 5.03255 4.70937 5.09312L3.15563 6.20312C3.30313 5.375 3.55187 4.625 3.89125 3.99563ZM3.89125 12.0044C3.74742 11.7363 3.62334 11.458 3.52 11.1719L5 10.1144L7.12125 11.6294C7.40875 12.3794 7.78375 13.0181 8.22437 13.5H5.75C5.07375 13.5 4.41375 12.9688 3.89125 12.0044Z" fill="#999999"/>
</svg>
