<svg width="16" height="16" viewBox="0 0 16 16" fill="none" xmlns="http://www.w3.org/2000/svg">
<path d="M14.6666 3.45333L7.05998 11.0667L4.23331 8.24L5.17331 7.3L7.05998 9.18667L13.7266 2.52L14.6666 3.45333ZM13.1933 6.81333C13.28 7.19334 13.3333 7.59333 13.3333 8C13.3333 10.9467 10.9466 13.3333 7.99998 13.3333C5.05331 13.3333 2.66665 10.9467 2.66665 8C2.66665 5.05333 5.05331 2.66667 7.99998 2.66667C9.05331 2.66667 10.0266 2.97333 10.8533 3.5L11.8133 2.54C10.6976 1.75303 9.3653 1.33145 7.99998 1.33333C4.31998 1.33333 1.33331 4.32 1.33331 8C1.33331 11.68 4.31998 14.6667 7.99998 14.6667C11.68 14.6667 14.6666 11.68 14.6666 8C14.6666 7.20667 14.52 6.44667 14.2666 5.74L13.1933 6.81333Z" fill="#999999"/>
</svg>
